<svg id="Layer_1" data-name="Layer 1" xmlns="http://www.w3.org/2000/svg" viewBox="0 0 824.45 287.37" fill="#58595b"><defs><style>.cls-1{fill:#58595b;}</style></defs><path class="cls-1" d="M98.16,202.84h22.18c7.25,0,13.45-4.54,13.45-12.14s-4.45-12.4-13.45-12.4H98.16Zm-5.94-29.6h28.56c10.22,0,18.95,5,18.95,16.24,0,8-4.1,14.23-12.14,15.9v.17c8.12,1.14,10.48,6.55,10.92,14.06.26,4.28.26,12.93,2.88,16h-6.55c-1.4-2.35-1.4-7.07-1.66-9.69-.44-8.73-1.31-18.43-12.49-18H98.16v27.68H92.22Z"/><polygon class="cls-1" points="199.31 173.24 242.36 173.24 242.36 178.3 205.25 178.3 205.25 200.83 240 200.83 240 205.9 205.25 205.9 205.25 230.53 242.8 230.53 242.8 235.59 199.31 235.59 199.31 173.24"/><path class="cls-1" d="M302.73,215.07c-.27,12.84,8.9,16.77,20.34,16.77,6.56,0,16.51-3.58,16.51-12.67,0-7.07-7-9.86-12.84-11.26l-13.88-3.41c-7.34-1.83-14.06-5.24-14.06-15,0-6.11,3.93-17.55,21.48-17.55,12.4,0,23.06,6.55,23.06,19.39H337.4c-.44-9.44-8.13-14.33-17-14.33-8.13,0-15.64,3.15-15.64,12.4,0,5.85,4.28,8.39,9.44,9.52l15.19,3.76c8.82,2.36,16.16,6.28,16.16,16.41,0,4.29-1.75,17.82-23.84,17.82-14.76,0-25.59-6.64-24.89-21.83Z"/><path class="cls-1" d="M409.73,203.8h20.43c8.3,0,13.89-4.1,13.89-12.75s-5.59-12.75-13.89-12.75H409.73Zm-5.94-30.56h27.68c11.18,0,18.51,6.55,18.51,17.81s-7.33,17.82-18.51,17.82H409.73v26.72h-5.94Z"/><rect class="cls-1" x="508.08" y="173.24" width="5.94" height="62.36"/><path class="cls-1" d="M581.8,202.84H604c7.25,0,13.45-4.54,13.45-12.14S613,178.3,604,178.3H581.8Zm-5.94-29.6h28.56c10.21,0,19,5,19,16.24,0,8-4.11,14.23-12.14,15.9v.17c8.12,1.14,10.48,6.55,10.92,14.06.26,4.28.26,12.93,2.88,16h-6.55c-1.4-2.35-1.4-7.07-1.66-9.69-.44-8.73-1.31-18.43-12.49-18H581.8v27.68h-5.94Z"/><path class="cls-1" d="M716.31,211.14l-12-32-12.49,32Zm-15.11-37.9h6.64l24.45,62.35h-6.37l-7.6-19.38H689.93l-7.51,19.38H676Z"/><path class="cls-1" d="M489.91,138.57c-25.35,0-45.9-16.44-45.9-36.72s20.55-36.72,45.9-36.72,45.91,16.44,45.91,36.72-20.56,36.72-45.91,36.72m-.07-88.11c-45.53,0-82.44,22.95-82.44,51.26S444.31,153,489.84,153s82.44-22.95,82.44-51.26-36.91-51.26-82.44-51.26"/><path class="cls-1" d="M249.67,94.4H169a3.69,3.69,0,0,0-3.62,3.73v7.27a3.69,3.69,0,0,0,3.62,3.72h47.37a2.56,2.56,0,0,1,2.55,2.59,5,5,0,0,1-.28,1.23c-5.4,14.88-22,27.12-44.61,27.12-25.39,0-45.27-18-45.27-38.2s19.88-38,46.94-38c18.29,0,28.27,8.61,36,14.07a6.74,6.74,0,0,0,4.4,1.85H250a2.62,2.62,0,0,0,2.61-2.66c0-1.72-1.85-3-3-4.08C240,64,214.14,50.46,184.8,50.46h-9.18c-46.11,0-83.48,22.95-83.48,51.26S128.34,153,174.45,153,257,130,257,101.72a7.32,7.32,0,0,0-7.35-7.32"/><path class="cls-1" d="M670,101.57a4.87,4.87,0,0,1,2.54-4.07L731,59.3a2.73,2.73,0,0,0,1.34-2.45A2.83,2.83,0,0,0,729.36,54H685.71a9.39,9.39,0,0,0-6.13,2.74L654.41,84.78A6.08,6.08,0,0,1,649.79,87a6.17,6.17,0,0,1-4.63-2.22L620,56.73A9.39,9.39,0,0,0,613.87,54H570.22a2.83,2.83,0,0,0-3,2.86,2.75,2.75,0,0,0,1.34,2.45L627,97.5a4.52,4.52,0,0,1,0,8.14l-58.4,38.21a2.73,2.73,0,0,0-1.34,2.44,2.82,2.82,0,0,0,3,2.86h43.65a9.42,9.42,0,0,0,6.13-2.73l25.16-28a6.17,6.17,0,0,1,4.63-2.22,6.08,6.08,0,0,1,4.62,2.22l25.17,28a9.42,9.42,0,0,0,6.13,2.73h43.65a2.82,2.82,0,0,0,2.94-2.86,2.71,2.71,0,0,0-1.34-2.44l-58.4-38.21a4.87,4.87,0,0,1-2.54-4.07"/><path class="cls-1" d="M399.18,54H281.44a7.34,7.34,0,0,0-7.33,7.32v80.82a7.35,7.35,0,0,0,7.33,7.33H399.18a3.68,3.68,0,0,0,3.66-3.68v-7.34a3.67,3.67,0,0,0-3.66-3.66H314.56a3.69,3.69,0,0,1-3.67-3.67V112.72a3.68,3.68,0,0,1,3.67-3.66h69.91a3.67,3.67,0,0,0,3.66-3.67V98.06a3.67,3.67,0,0,0-3.66-3.67H314.56a3.68,3.68,0,0,1-3.67-3.66V72.34a3.69,3.69,0,0,1,3.67-3.67h84.62A3.67,3.67,0,0,0,402.84,65V57.66A3.67,3.67,0,0,0,399.18,54"/></svg>