<svg id="Layer_1" data-name="Layer 1" xmlns="http://www.w3.org/2000/svg" viewBox="0 0 824.45 287.37" fill="#ea0029"><defs><style>.cls-1{fill:#ea0029;}</style></defs><path class="cls-1" d="M170.12,144.91l2.08.13c8.19.51,11,1.92,11.86,2.72.68.59,2.25,2.9,2.25,11.62v29.35a4.15,4.15,0,0,1-.94,3c-.38.36-1.85,1.41-7.34,3.21a45,45,0,0,1-8.16,1.88,54.24,54.24,0,0,1-7.51.61,41.63,41.63,0,0,1-31.49-13.6c-8.5-9.06-12.81-21.93-12.81-38.24,0-19.87,4.31-34.25,12.8-42.74s18.45-12.8,29.6-12.8,19.84,3.54,26.71,10.8c3.82,4.17,7.62,10.68,11.28,19.33l.57,1.36h8l-1.61-43.21h-7.68l-.56,1.38a9.89,9.89,0,0,1-2.28,3.61c-.38.36-1.43,1-4.11,1-.33,0-2.11-.26-11.27-2.89a78.42,78.42,0,0,0-21.66-3c-20.31,0-36.85,7.06-49.16,21-11.18,12.59-16.84,27.92-16.84,45.55,0,20.08,7.13,36.33,21.2,48.29,12.71,10.79,28.51,16.27,47,16.27a97.42,97.42,0,0,0,31.25-5.52c14.43-4.91,17.38-7.84,17.38-10.74V157c0-5.16,1-8.66,2.95-10.14.63-.51,2.49-1.41,7.85-1.77l2.07-.14v-7.71h-51.4Z"/><path class="cls-1" d="M323.92,88.17l2,.2c6.05.59,10.29,2,12.27,4.12,1.12,1.19,3,5,3,17.32v47.95c0,11.35-1.38,19.78-4.08,25.08-4.79,9.35-14.06,13.9-28.34,13.9-12.94,0-21.44-4.43-26-13.51-2.48-5.06-3.73-12.33-3.73-21.6V102.71c0-8,1.51-10.54,2.41-11.35s3.85-2.4,12.43-3l2.07-.14V80.52H239.27v7.69l2,.16c8.41.65,11.26,2.2,12.21,3.07s2.39,3.36,2.39,11.27v57.57c0,11.73,2.06,21.36,6.12,28.6,7.58,13.65,21.92,20.58,42.61,20.58,20.92,0,35.38-7,43-20.86,4.06-7.43,6.12-17.81,6.12-30.84V109.81c0-11.91,1.74-15.81,2.78-17.07,1.23-1.51,4.41-3.49,12.51-4.38l2-.21V80.52H323.92Z"/><path class="cls-1" d="M491.77,172.59c-4.49,9.94-9.52,16.25-14.94,18.73-5.61,2.58-14.61,3.89-26.72,3.89-14.05,0-18.72-.49-20.16-.91-.46-.13-1.86-.52-1.86-4.34V146.58H454.3c9.33,0,12.34,1.73,13.31,2.76,1.28,1.36,3.14,4.74,4.75,13.07l.34,1.8h8.37v-47h-8.38l-.33,1.81c-1.54,8.28-3.39,11.66-4.67,13-1,1-4,2.78-13.39,2.78H428.09V96a8.39,8.39,0,0,1,.45-3.52s.64-.46,3.29-.46h25.08c12.76,0,17.66,1.69,19.52,3.12s4.38,5,6.18,14.41l.35,1.8h8.79L491,80.52H388.75v7.71l2.06.14c8.2.58,10.91,2.18,11.8,3.08s2.33,3.52,2.33,11.26v82c0,8.43-1.56,10.66-2.23,11.23-.93.79-3.72,2.24-12,3.11l-2,.21v7.64H492.26l9.55-35.57h-9.45Z"/><path class="cls-1" d="M584.13,135.37l-16.18-10c-5.81-3.57-10.14-7-12.86-10.25a15.76,15.76,0,0,1-3.77-10.7c0-4.61,1.56-8.09,4.78-10.63a18.22,18.22,0,0,1,11.8-4c6,0,12.16,2.22,18.37,6.6S597,108.66,599.84,119.9l.42,1.67h8.6l-4.51-43.66h-7.52l-.41,1.69a9.54,9.54,0,0,1-1.6,3.72,4,4,0,0,1-2.93.8c-.3,0-1.87-.33-9.45-3-6.11-2.14-11.46-3.23-15.9-3.23-10.75,0-19.54,3.34-26.12,9.92s-9.92,14.91-9.92,24.77c0,7.55,2.83,14.52,8.42,20.76a58.51,58.51,0,0,0,11.78,9.46l15.71,9.81c8.86,5.52,14.71,9.68,17.36,12.34a19.46,19.46,0,0,1,5.83,14.11c0,6-1.84,10.58-5.65,13.88a20.1,20.1,0,0,1-13.78,5c-10.24,0-18.59-3.95-25.52-12.08-4-4.7-7.56-11.14-10.57-19.13l-.54-1.44h-8.32L531.33,209h7.88l.3-1.87a9.77,9.77,0,0,1,1.22-3.48c.32-.57,1.13-.86,2.38-.86.31,0,2,.33,10,3.11a56.54,56.54,0,0,0,18.59,3.37c11.84,0,21.73-3.46,29.4-10.28a33.32,33.32,0,0,0,11.68-25.86,31.92,31.92,0,0,0-6.63-20.09C601.84,147.66,594.43,141.71,584.13,135.37Z"/><path class="cls-1" d="M726,153.05c-4.3-5.39-11.71-11.34-22-17.68l-16.18-10c-5.81-3.57-10.14-7-12.86-10.25a15.77,15.77,0,0,1-3.78-10.7c0-4.61,1.57-8.09,4.79-10.63a18.22,18.22,0,0,1,11.8-4c6,0,12.16,2.22,18.37,6.6s10.72,12.24,13.57,23.48l.43,1.67h8.59l-4.51-43.66h-7.52l-.41,1.69a9.54,9.54,0,0,1-1.6,3.72c-.4.51-1.5.8-2.93.8-.3,0-1.86-.33-9.45-3-6.12-2.14-11.46-3.23-15.89-3.23-10.76,0-19.55,3.34-26.13,9.92s-9.91,14.91-9.91,24.77c0,7.55,2.82,14.52,8.41,20.76a58.8,58.8,0,0,0,11.78,9.46l15.71,9.81c8.86,5.52,14.71,9.68,17.36,12.34a19.47,19.47,0,0,1,5.84,14.11c0,6-1.85,10.58-5.66,13.88A20.09,20.09,0,0,1,690,198c-10.25,0-18.6-3.95-25.53-12.08-4-4.7-7.56-11.14-10.57-19.13l-.54-1.44h-8.32L651.16,209H659l.3-1.87a10,10,0,0,1,1.21-3.48c.33-.57,1.15-.86,2.39-.86.31,0,2,.33,10,3.11a56.54,56.54,0,0,0,18.59,3.37c11.84,0,21.74-3.46,29.4-10.28a33.32,33.32,0,0,0,11.68-25.86A32,32,0,0,0,726,153.05Z"/></svg>