<?xml version="1.0" encoding="utf-8"?>
<!-- Generator: Adobe Illustrator 26.3.1, SVG Export Plug-In . SVG Version: 6.00 Build 0)  -->
<svg version="1.1" id="Logo_Konstruktion" xmlns="http://www.w3.org/2000/svg" xmlns:xlink="http://www.w3.org/1999/xlink" x="0px"
	 y="0px" viewBox="0 0 609.5 226.8" style="enable-background:new 0 0 609.5 226.8;" xml:space="preserve">
<style type="text/css">
	.st0{fill:#B5202A;}
</style>
<polygon class="st0" points="127.6,56.7 127.6,99.2 87.9,99.2 87.9,56.7 56.7,56.7 56.7,170.1 87.9,170.1 87.9,124.7 127.6,124.7 
	127.6,170.1 158.7,170.1 158.7,56.7 "/>
<path class="st0" d="M236.7,172.9c-25.5-0.1-51-17-51-51V56.7h31.2l0,68c0,14.2,11.4,19.8,19.9,19.8s19.9-5.7,19.9-19.8l0-68h31.2
	v65.2C287.7,155.9,262.2,173,236.7,172.9z"/>
<path class="st0" d="M367.1,172.9c-32.6,0-59.5-25.5-59.5-59.5c0-34,26.9-59.5,59.5-59.5c22.7,0,36.8,11.3,36.8,11.3l-17.7,22
	c0,0-6.4-5.7-19.1-5.7c-17,0-29,14.9-29,31.9s12,31.2,29,31.2c14.2,0,21.3-5.7,21.3-5.7v-14.2h-24.1V99.9h51v53.2
	C415.3,153.1,399.7,172.9,367.1,172.9z"/>
<g>
	<path class="st0" d="M493.2,82.2c-17,0-29,14.2-29,31.2s12,31.2,29,31.2c17,0,29.1-14.2,29.1-31.2
		C522.3,96.4,510.2,82.2,493.2,82.2z M493.2,172.9c-32.6,0-59.5-25.5-59.5-59.5c0-34,26.9-59.5,59.5-59.5s59.5,25.5,59.5,59.5
		S525.8,172.9,493.2,172.9z"/>
</g>
</svg>
