<svg xmlns="http://www.w3.org/2000/svg" width="24.482" height="22.532" viewBox="0 0 24.482 22.532">
  <path id="Path_17" data-name="Path 17" d="M-17.457,65.546A6.474,6.474,0,0,0-22.741,68.3a6.474,6.474,0,0,0-5.284-2.751A6.837,6.837,0,0,0-34.482,72.4c0,3.556,2.007,7.218,5.807,10.591a31.224,31.224,0,0,0,5.754,4.042.393.393,0,0,0,.36,0,31.214,31.214,0,0,0,5.753-4.042C-13.007,79.613-11,75.951-11,72.4A6.837,6.837,0,0,0-17.457,65.546Z" transform="translate(34.982 -65.046)" fill="none" stroke="#000" stroke-width="1"/>
</svg>
