<svg id="Layer_1" data-name="Layer 1" xmlns="http://www.w3.org/2000/svg" viewBox="0 0 824.45 287.37" fill="#ff6c0e" ><defs><style>.cls-1{fill:#ff6c0e;}</style></defs><path class="cls-1" d="M143.82,109l19.35-19.45L143.68,70,124.25,89.24Zm56-.33,19.07-19.39-19.27-19L180.52,89.35Zm-14,79.16A8.36,8.36,0,0,1,174.59,183l-21.24-42A8.46,8.46,0,0,1,167,131l22.41,45.23a8.32,8.32,0,0,1-3.57,11.6m39.62-31.61c-1.33-28.59-26.22-49.17-54.87-48.83-28.26.28-52.25,20.58-53.62,48.83-1.43,30.22,25.81,54.67,56.07,53.64,29.23-1,53.73-24.41,52.42-53.64m8,23.19,38.42-16.77-38.42,47.22H317.9l.41-36.85L279.49,189.4l38.41-47.22H233.45v37.19M408,210.2l11.55-104.83H368l4,43.18-23.59-22.4C332,136.07,324.27,149.83,324.3,169c.05,18.44,7.05,31.46,22.41,41.63l26.44-24.45c-6.58-3.46-9.87-8.56-10.39-16-.54-8.14,2.85-14.43,9.95-18.4l5.65,58.41Zm34.79-70.87,19.66-19.46L442.4,100.14l-19.65,19.67ZM456.42,211,464,143l-43.66-.4,6.4,68.46Zm48.45,0,12-105.73h-52L475.21,211Zm93.62-42.9c.11-9-1.6-14.64-6.79-22-4.7-6.73-8.84-10.09-16.4-13.22l-59.67,30.47c-.29,15.68,3.7,26.11,14.45,37.6,9.36,10,17.62,14.39,31.24,16.41l34-18c-14.52-1-23.84-5.73-33.22-16.84-7.86-9.34-10.82-17-11.17-29.24A35.25,35.25,0,0,1,562.07,167a35.25,35.25,0,0,1,4.42,17.23ZM673,177l34.57-35H661l-22,33,7.59-69.67H597.72l9.22,106.13h28.81L639,179l21.61,32.44h47Z"/></svg>