<svg id="Layer_1" data-name="Layer 1" xmlns="http://www.w3.org/2000/svg" viewBox="0 0 824.45 287.37" fill="#d12027"><defs><style>.cls-1{fill:#d12027;fill-rule:evenodd;}</style></defs><path class="cls-1" d="M152.61,101.79c0-4.82,1.5-6,10.31-6,6.81,0,28.59.5,28.59,22.61,0,23.77-24.94,24.1-38.9,24.27h0v-40.9Zm75.64,94.75c-6.82-.33-10.81-3.32-14.47-7.81h0l-34.24-42h0C188,145,209.63,141,209.63,118.75c0-25.6-27.43-29.09-42.22-29.09H121.53v3.16h0c11.63,1.16,14.12,2.66,14.12,15h0v72h0c0,12.46-.66,16-14.12,16.78h0v3.16h46v-3.16h0c-13.3-.66-15-3.82-15-15h0V148.84l9.31-.34,39.56,51.2h26.77v-3.16Zm93.08,3.16H231.57v-3.16h0c10.64-.66,14.46-2.16,14.46-15h0v-73.8h0c0-13.13-4-14.13-14.46-15h0V89.66h88.27l.5,23.77h-4.16C313.69,98.63,309.37,96,290.91,96H268.47C265,96,263,96,263,101.63h0v36.9h25.6c14.79,0,16.45-4,18.28-15.79h3.83V161.3h-3.83c-2-13.29-4.49-15.62-18.28-15.79h0l-25.6-.33V186.4h0c0,6.82,0,7,24.77,7,20.77,0,29.09-5,36.4-21.78h4.66l-7.49,28.09Zm37.84-98.24c0-5.48,1.82-5.65,6.81-5.65,7.32,0,31.59.33,31.59,24.1,0,25.27-22.28,25.27-28.43,25.27a95.84,95.84,0,0,1-10-.5h0V101.46Zm-30.92-8.64c12.13,1.16,14,3.16,14,15h0v72h0c0,12,0,15.79-14,16.78h0v3.16h46.54v-3.16h0c-12.8-.33-15.62-2.82-15.62-15h0V151.33h0c4,.33,7.14.5,11.13.5,17.46,0,28.1-3,35.24-9.81a29.22,29.22,0,0,0,10.14-22.44c0-21.11-20.61-29.92-43.55-29.92H328.25v3.16Zm127.53,0c-11.31.66-15.46,1.83-15.46,15h0V186.4h0c0,6.65,3,6.82,16.79,6.82,24.93,0,35.57-.67,45-22.44h4.16l-8,28.92H408.9v-3.16h0c10.64-.66,14.46-2.16,14.46-15h0v-73.8h0c0-13.13-4-14.13-14.46-15h0V89.66h46.88v3.16ZM536.07,157l19.11-45.71L574.47,157Zm81.45,39.56c-7.32-.49-9.64-2.32-15-14.46h0L561.17,87.66h-3.33l-34.57,81.62h0c-3.16,7.32-8.32,19.45-12.14,23.61-3,3.16-5.82,3.49-8.48,3.65h0v3.16h32.92v-3.16h0c-3.49,0-11.31,0-11.31-7a18.71,18.71,0,0,1,1.33-6.31h0l7.65-19.45h43.55l6.82,16h0c1,2.32,3.16,7.81,3.16,10.47,0,6.15-5.49,6.31-11.64,6.31h0v3.16h42.39v-3.16Zm85.4-103.72c-6,.66-11.47,1.33-22.94,19h0l-24.6,37.56v32.25h0c0,12,2.16,14.8,17.12,15h0v3.16H621.63v-3.16h0c16.3-.33,16.79-4.15,16.79-16.78h0V150.83l-21.77-31.92h0c-17-24.93-19.45-25.43-26.93-26.09h0V89.66h46.54v3.16h0c-7.64.33-11.8.5-11.8,5.15,0,1.83,1.33,5,2.83,7.15h0l24.6,36.9,23.77-37.57h0c1.16-1.83,2.33-3.82,2.33-6.15,0-5.15-6.32-5.48-11.47-5.48h0V89.66h36.4v3.16Z"/></svg>