<?xml version="1.0" encoding="utf-8"?>
<!-- Generator: Adobe Illustrator 26.0.3, SVG Export Plug-In . SVG Version: 6.00 Build 0)  -->
<svg version="1.1" id="Layer_1" xmlns="http://www.w3.org/2000/svg" xmlns:xlink="http://www.w3.org/1999/xlink" x="0px" y="0px"
	 viewBox="0 0 1426.72 841.89" style="enable-background:new 0 0 1426.72 841.89;" xml:space="preserve">
<style type="text/css">
	.st0{stroke:#FFFFFF;stroke-width:0.25;stroke-miterlimit:10;}
</style>
<g>
	<g>
		<path class="st0" d="M369.26,708.9l-7.13-15.59h-32.04l-7.05,15.59h-3.6l24.83-54.75h3.52l25.07,54.75H369.26z M331.5,690.02
			h29.14l-14.65-32.12L331.5,690.02z"/>
		<path class="st0" d="M435.45,658.14c-2.56-0.68-5.07-1.02-7.52-1.02c-4.33,0-7.81,0.86-10.42,2.58c-2.61,1.72-3.92,4.02-3.92,6.89
			c0,2.51,0.67,4.54,2,6.11c1.33,1.57,2.98,2.78,4.94,3.64s4.61,1.81,7.95,2.86c3.71,1.1,6.71,2.17,9.01,3.21
			c2.3,1.05,4.23,2.58,5.8,4.62c1.57,2.04,2.35,4.67,2.35,7.91c0,2.82-0.78,5.31-2.35,7.48c-1.57,2.17-3.79,3.84-6.66,5.01
			c-2.87,1.18-6.22,1.76-10.03,1.76c-3.6,0-7.16-0.73-10.65-2.19c-3.5-1.46-6.45-3.39-8.85-5.8l1.72-2.9
			c2.19,2.35,4.91,4.19,8.15,5.52c3.24,1.33,6.47,2,9.71,2c4.75,0,8.51-0.98,11.28-2.94c2.77-1.96,4.15-4.58,4.15-7.87
			c0-2.56-0.68-4.63-2.04-6.23c-1.36-1.59-3.04-2.83-5.05-3.72c-2.01-0.89-4.69-1.83-8.03-2.82c-3.76-1.15-6.75-2.23-8.97-3.25
			c-2.22-1.02-4.1-2.52-5.64-4.5c-1.54-1.98-2.31-4.57-2.31-7.75c0-2.61,0.74-4.91,2.23-6.89c1.49-1.98,3.6-3.51,6.34-4.58
			c2.74-1.07,5.89-1.61,9.44-1.61c2.77,0,5.55,0.4,8.34,1.21c2.79,0.81,5.23,1.89,7.32,3.25l-1.49,2.98
			C440.28,659.81,438.01,658.82,435.45,658.14z"/>
		<path class="st0" d="M583.58,654.14l-21.62,34.7v20.05h-3.21V689l-21.93-34.86h3.53l19.97,30.78l19.74-30.78H583.58z"/>
		<path class="st0" d="M657.88,657.47c4.36,2.48,7.81,5.84,10.34,10.07c2.53,4.23,3.8,8.85,3.8,13.86c0,5.01-1.27,9.65-3.8,13.9
			c-2.53,4.26-5.98,7.64-10.34,10.14c-4.36,2.51-9.1,3.76-14.22,3.76c-5.12,0-9.86-1.25-14.22-3.76
			c-4.36-2.51-7.81-5.89-10.34-10.14c-2.53-4.26-3.8-8.89-3.8-13.9c0-5.01,1.27-9.63,3.8-13.86c2.53-4.23,5.98-7.58,10.34-10.07
			c4.36-2.48,9.1-3.72,14.22-3.72C648.78,653.75,653.52,654.99,657.88,657.47z M631.16,660.25c-3.84,2.19-6.88,5.16-9.12,8.89
			c-2.25,3.73-3.37,7.82-3.37,12.26c0,4.44,1.12,8.54,3.37,12.3c2.24,3.76,5.29,6.75,9.12,8.97c3.84,2.22,8,3.33,12.49,3.33
			s8.66-1.11,12.49-3.33c3.84-2.22,6.88-5.21,9.13-8.97c2.24-3.76,3.37-7.86,3.37-12.3c0-4.44-1.12-8.52-3.37-12.26
			c-2.25-3.73-5.29-6.7-9.13-8.89c-3.84-2.19-8-3.29-12.49-3.29S635,658.06,631.16,660.25z"/>
		<path class="st0" d="M723.28,700.94c3.32,3.37,7.95,5.05,13.91,5.05c5.9,0,10.51-1.68,13.82-5.05c3.32-3.37,4.97-8.11,4.97-14.22
			v-32.59h3.29v32.59c0,7.1-1.93,12.63-5.8,16.57c-3.87,3.94-9.29,5.91-16.29,5.91c-7,0-12.44-1.97-16.33-5.91
			c-3.89-3.94-5.84-9.46-5.84-16.57v-32.59h3.29v32.59C718.31,692.84,719.97,697.58,723.28,700.94z"/>
		<path class="st0" d="M861.89,654.14h3.29v51.54h24.36v3.21h-27.65V654.14z"/>
		<path class="st0" d="M932.47,654.14h3.29v54.75h-3.29V654.14z"/>
		<path class="st0" d="M977.12,654.14h3.68l20.76,50.84l20.84-50.84h3.6l-22.72,54.75h-3.45L977.12,654.14z"/>
		<path class="st0" d="M1067.36,654.14h35.33v3.21h-32.04v21.85h28.51v3.29h-28.51v23.19h33.06v3.21h-36.35V654.14z"/>
	</g>
	<g>
		<path d="M118.63,472.14c-6.75-9.22-11.46-13.48-17.75-16.85c-6.07-3.38-13.48-5.18-20.89-5.18c-15.5,0-26.74,7.64-26.74,18.43
			c0,8.75,5.17,12.59,21.57,16.39l21.78,5.17c15.73,3.82,25.84,8.09,32.8,13.92c8.99,7.65,13.71,18.42,13.71,31.23
			c0,28.76-24.71,48.07-61.1,48.07c-20.21,0-37.96-5.16-50.54-15.05c-6.29-4.72-9.21-7.86-15.95-16.84l23.82-16.86
			c6.28,9.22,12.35,14.61,21.11,18.41c6.96,3.16,16.17,4.95,24.49,4.95c17.07,0,28.07-8.07,28.07-20.44
			c0-10.11-6.96-15.73-24.93-19.54l-19.54-4.27c-31.22-6.74-44.7-19.54-44.7-42.68c0-27.4,22.91-46.28,56.61-46.28
			c18.19,0,33.7,5.16,46.95,15.95c4.95,4.27,7.41,6.73,14.15,14.37L118.63,472.14z"/>
		<path d="M197.87,578.83h-27.64V429.22h54.59c35.04,0,56.16,18.65,56.16,49.43c0,17.51-7.87,32.57-21.79,41.79
			c-8.98,6.05-17.98,8.29-32.58,8.29h-28.75V578.83z M220.12,504.71c21.34,0,31.67-8.76,31.67-27.17c0-16.63-9.21-24.5-29.43-24.5
			h-24.49v51.67H220.12z"/>
		<path d="M332.85,578.83h-27.63V429.22h57.05c22.01,0,35.49,4.95,45.16,16.86c6.73,8.3,10.77,19.98,10.77,30.99
			c0,13.48-5.38,25.15-15.5,33.23c-4.27,3.39-6.96,5.19-14.37,8.55l32.8,59.97h-31.01l-29.65-55.48h-27.62V578.83z M359.35,499.54
			c18.86,0,29.65-8.76,29.65-23.81c0-14.37-10.56-22.69-28.98-22.69h-27.17v46.5H359.35z"/>
		<rect x="454.71" y="429.22" width="27.62" height="149.61"/>
		<polygon points="638.82,578.83 613.89,578.83 550.08,476.41 550.08,578.83 524.03,578.83 524.03,429.22 550.31,429.22 
			612.55,530.31 612.55,429.22 638.82,429.22 		"/>
		<path d="M806.79,578.83h-23.82v-12.8c-6.29,5.38-8.54,7.18-12.8,9.66c-8.55,4.71-19.32,7.63-29.88,7.63
			c-40.2,0-69.41-33.02-69.41-78.4c0-46.94,29.87-80.2,72.1-80.2c18.88,0,36.39,7.19,48.52,19.55c6.51,6.96,9.43,11.45,14.38,23.58
			l-25.83,10.79c-7.18-19.77-19.32-29.21-37.74-29.21c-25.17,0-41.56,21.13-41.56,53.68c0,33.26,16.63,54.15,42.68,54.15
			c21.8,0,35.5-13.04,37.74-35.71h-37.29v-24.28h62.91V578.83z"/>
		<polygon points="945.09,453.93 870.96,453.93 870.96,491.68 934.75,491.68 934.75,515.49 870.96,515.49 870.96,578.83 
			843.33,578.83 843.33,429.22 945.09,429.22 		"/>
		<rect x="970.88" y="429.22" width="27.62" height="149.61"/>
		<polygon points="1143.34,453.93 1064.72,453.93 1064.72,489.44 1137.06,489.44 1137.06,513.24 1064.72,513.24 1064.72,554.13 
			1149.63,554.13 1149.63,578.83 1037.11,578.83 1037.11,429.22 1143.34,429.22 		"/>
		<polygon points="1205.31,554.13 1267.08,554.13 1267.08,578.83 1177.67,578.83 1177.67,429.23 1205.31,429.23 		"/>
		<path d="M1289.28,429.23h45.83c21.11,0,31.9,2.01,43.35,8.3c6.28,3.36,11.9,8.09,16.62,13.69c11.23,13.26,16.86,31.46,16.86,53.7
			c0,31.22-12.14,55.27-33.48,65.81c-11.24,5.63-24.94,8.09-43.35,8.09h-45.83V429.23z M1332.64,554.13
			c25.15,0,36.17-4.05,42.45-15.72c4.71-8.55,6.74-19.55,6.74-34.61c0-35.93-13.7-49.87-49.19-49.87h-15.73v100.2H1332.64z"/>
	</g>
	<g>
		<path d="M701.76,124.38c2.46,0,5.32-0.35,8.37-0.72c2.79-0.34,5.41-0.66,7.3-0.62l0.76,0.02l0.66-0.37
			c1.05-0.59,2.2-1.82,2.27-3.47c0.04-0.82-0.19-2.38-2.05-3.65c-2.67-1.86-15.52-3.91-18.56-2.99c-0.51,0.16-1.02,0.29-1.51,0.42
			c-2.22,0.6-4.73,1.27-5.58,3.64c-0.84,2.34,0.72,4.52,1.24,5.25C696.03,123.79,698.55,124.38,701.76,124.38z"/>
		<path d="M675.56,158.34c0.95,0,6.22-0.7,19.94-2.56c13.43-1.82,33.69-4.6,35.84-4.5c7.98,0.24,11.29-1.56,13.49-2.75
			c0.43-0.23,0.83-0.46,1.17-0.59c1.42-0.53,2.39-1.55,2.75-2.89c0.65-2.41-1.05-4.71-1.58-5.36l-1.06-1.28l-15.9,3.22
			c-4.36-0.54-7.14-1.26-8.04-3.03c1.19-3.42,5.22-5.29,7.22-6.22c1.23-0.57,3.3-1.53,2.79-3.84c-0.52-2.36-2.82-2.36-4.67-2.36
			h-0.66l-0.59,0.3c-9.4,4.73-20.54,4.48-27.92,4.31c-4.15-0.1-6.65-0.15-8.36,0.59c-2.69,1.2-3.24,2.88-3.23,4.07
			c0.03,2.53,2.52,3.78,3.28,4.1l0.59,0.18c1.26,0.22,2.63,0.45,4.07,0.7c5.23,0.88,16.2,2.73,20.79,4.89
			c-8.12,2.25-31.95,3.96-37.8,3.04c0.77-0.85,2.31-2.02,3.15-2.65c2.35-1.78,5.57-4.22,3.43-7.1c-0.71-1-2.83-3.18-7.1-1.82
			c-5.53,1.77-12.29,9.02-12.29,14.95C664.88,158.34,672.64,158.34,675.56,158.34z"/>
		<path d="M729.83,181.86c0.07,1.64,0.18,4.39,18.34,4.39c6.31,0,29.14-7.96,34.5-16.01c1.72-2.59,1.43-4.71,0.88-6.02
			c-1.24-3.05-3.36-3.72-4.52-3.85c-2.7-0.3-5.06,1.59-6.26,3.31l-0.06,0.09c-6.63,10.35-23.18,12.9-29.95,13.51
			C733.05,178.06,729.7,178.51,729.83,181.86z"/>
		<path d="M733.07,161.92c-0.68,0.24-1.52,0.55-1.65,0.58l-34.03,4.48l-1.61,0l-1.58,2.86l0.87,1.38c0.46,0.73,0.69,1.09,2.5,1.24
			l0,0.04l0.3-0.02c0.97,0.07,2.35,0.09,4.34,0.09c1.59,0,3.58-0.01,6.07-0.03c5.8-0.04,14.38-0.2,22.12-0.68
			c0.91,0,8.05-1.11,13.51-2.15c13.08-2.48,14.52-3.8,14.71-6.22c0.24-3.14-3.44-3.71-4.66-3.89
			C743.91,158.03,736.86,160.56,733.07,161.92z"/>
		<path d="M649.93,170.61c4.07,3.27,13.54,5.13,21.9,6.77c1.94,0.38,3.79,0.75,5.45,1.11c2.07,0.44,3.69,0.6,4.96,0.6
			c3.23,0,4.18-1.08,4.57-1.51c0.81-0.91,1.05-2.13,0.67-3.28c-0.26-0.77-1.05-3.12-8.13-4.52c-4.03-0.84-9.54-2.91-13.96-4.57
			c-4.81-1.8-7.03-2.62-8.46-2.65c-7.59-0.32-8.57,2.22-8.9,3.05C647.66,166.58,647.4,168.51,649.93,170.61z"/>
		<path d="M649,184.02c1.24,0.5,3.23,1.31,3.97,1.86c0.93,7.72,7.72,8.23,11.72,7.84c2.22-0.23,6.32,1.12,10.66,2.54
			c5.92,1.94,12.64,4.13,19.16,4.13c2.48,0,4.68-0.64,6.8-1.26c1.7-0.49,3.31-0.97,5.06-1.12v15.42c-0.2,0.16-0.45,0.36-0.67,0.51
			c-1.74,1.31-4.64,3.5-5.89,8.29c-0.89,3.62,0.2,5.63,1.27,6.68c1.3,1.28,3.02,1.59,4.37,1.59c0.79,0,1.46-0.11,1.85-0.19
			c1.39-0.14,2.7-1.24,7.43-5.32c6.23-5.39,17.83-15.41,23.57-15.41c0.68,0.01,3.26,0.68,4.96,1.12c3.29,0.85,5.39,1.37,6.77,1.37
			c1.91,0,3.93-1.37,8.7-4.74c7.21-5.09,19.29-13.61,30.41-13.61c0.3,0,0.81,0.07,1.46,0.15c5.01,0.59,10.08,0.91,12.35-2.13
			c0.81-1.09,1.53-3,0.26-5.94c-2.05-4.36-6.77-3.51-13.31-2.32c-2.44,0.44-5.47,0.99-9,1.45c-6.55,0.8-10.2,3.23-14.06,5.81
			c-5.45,3.64-11.63,7.77-29.18,9.16c-5.12,0.37-12.16,3.49-17.31,5.78c-1.37,0.61-3.02,1.34-3.79,1.61
			c-0.58-0.56-1.36-2.95-1.36-5.48c0-2.23,3.8-9.38,8.79-12.93l0.46-0.32l0.29-0.48c0.81-1.31,1.34-3.47,0.2-5.25
			c-1.71-2.67-5.48-2.2-6.75-2.05c-3.1,0.42-6.4,2.29-9.9,4.27c-4.24,2.41-9.04,5.11-13.18,4.88c-17.96-1.27-30.02-7.53-38-11.68
			c-5.93-3.08-9.85-5.12-12.94-2.77l-0.03,0.02c-1.67,1.31-1.65,2.88-1.56,3.5C642.97,181.58,645.63,182.66,649,184.02z"/>
		<path d="M643.65,204.65c1.4,0.05,6.85,1.84,11.24,3.29c9.17,3.02,13.99,4.47,16.77,4.47c1.63,0,2.56-0.5,3.27-1.46
			c0.44-0.6,1.28-2.21-0.28-4.38l0,0c-2.69-3.73-12.47-6.93-28.2-11.85c-9.58-3-19.48-6.1-23.42-8.57c-1.68-1.06-3.77-2.38-5.6-0.96
			c-0.97,0.75-1.35,2.02-0.97,3.23C617.48,191.57,632.97,204.23,643.65,204.65z M670.17,209.8l0.36-0.26c0.02,0,0.04,0,0.06,0.01
			l-0.39,0.3C670.19,209.84,670.18,209.82,670.17,209.8z M672.41,208.19L672.41,208.19L672.41,208.19L672.41,208.19z"/>
		<path d="M791.03,205.61c-11.76,0-21.04,5.81-27.82,10.05c-3.77,2.36-7.67,4.8-9.25,4.21c-6.72-2.43-25.12,2.01-29.37,7.09
			c-1.35,1.61-1.6,3.54-0.67,5.15c0.83,1.47,1.7,2.98,3.41,3.43c0.31,0.08,0.61,0.12,0.89,0.12c1.17,0,2.15-0.6,3.03-1.13
			c1.72-1.05,4.92-3,12.86-4.05l4.31-0.55c15.65-1.97,20.93-2.64,22.86-6.01c0.33-0.59,0.64-1.41,0.59-2.46
			c5.04-4.2,15.26-6.95,20.62-7.03c12.09,2.25,13.11,0.53,13.85-0.73c0.55-0.93,0.73-2.41-0.48-3.88c-2.67-3-11.11-3.93-14.62-4.19
			L791.03,205.61z"/>
		<path d="M614.15,212.39c5.16,0.88,8.06,1.81,8.64,2.78l0,0.02c0.33,2.18,0.39,2.57,32.24,18.18c13.09,6.41,27.92,13.68,30.4,15.65
			c1.04,0.8,1.96,1.07,2.73,1.07c0.58,0,1.08-0.15,1.47-0.34c2.41-1.17,2.82-4.15,2.89-13.1l0-0.37l-0.09-0.36
			c-5.8-21.93-9.1-22.14-11.07-22.27c-1.07-0.07-3.05,0.26-4.27,3.25c-1.57,3.79,1.12,7.39,3.5,10.57c2.65,3.55,4.32,6.05,3.33,8.29
			c-0.35,0.81-0.58,1.09-0.57,1.12c-0.05,0.01-0.19,0.03-0.46,0.02c-1.7-0.44-8.96-4.68-15.38-8.42
			c-24.74-14.43-45.97-26.14-55.26-23.35c-1.28,0.39-3.95,1.21-3.79,3.75C608.62,211.45,610.94,211.85,614.15,212.39z"/>
		<path d="M795.84,223.2c-3.23,1.56-8.08,2.76-11.98,3.72c-6.52,1.61-9.5,2.34-9.49,5.37c0.01,2.86,3.34,3.66,5.12,4.09
			c0.34,0.08,0.72,0.12,1.13,0.12c5.86,0,18.53-7.93,19.55-9.67l1.05-1.83l-1.42-1.5C798.33,221.97,796.48,222.88,795.84,223.2z"/>
		<path d="M615.04,236.4c0.57-0.01,1.42-0.04,2,0.01c0.03,0.18,0.08,0.36,0.15,0.53c0.9,2.36,5.63,3.55,14.06,3.55
			c4.29,0,15.45,5.23,21.37,8.65c-0.52-0.03-1.02-0.05-1.48-0.08c-6.04-0.34-11.74-0.66-12.63,3.48c-0.28,1.19,0.01,2.41,0.82,3.33
			c1.82,2.08,6.97,2.72,15.49,1.87c5.23-0.87,21.75,10.66,25.62,20.7c0.9,2.37,1.89,6.57,2.94,11.02
			c3.3,13.98,5.83,23.33,10.69,25.77c0.8,0.4,1.63,0.6,2.46,0.6c0.74,0,1.49-0.16,2.22-0.48l0.85-0.37l0.46-0.81
			c1.26-2.22,0.15-5.21-1.78-9.9c-0.51-1.25-1.29-3.14-1.35-3.6c0-1.23-0.58-4.19-1.8-10.19c-0.66-3.26-1.57-7.73-1.6-8.59
			c0-8.46,6.74-29.74,22.66-29.74c12.29,0,12.96,1.76,13.36,2.8c1.39,3.64,3.84,5.49,13.34,5.49c18.24,0,47.29-8.53,66.52-14.17
			c3.61-1.06,6.85-2.01,9.72-2.82c1.44-0.49,3.06-1.7,3.28-3.61c0.14-1.18-0.22-2.91-2.71-4.47c-3.78-2.37-9-0.93-10.6-0.39
			c-1.34,0.13-3.11,0.68-5.7,1.52c-1.81,0.59-3.87,1.26-5.16,1.48c-4.21,0.67-10.69,2.36-18.2,4.31c-13.01,3.39-29.2,7.6-38.34,7.6
			c-0.68,0-1.38,0.07-2.08,0.15c-0.61,0.07-1.63,0.19-1.88,0.07c0,0-0.01-0.01-0.03-0.03c0.25-0.31,0.53-0.63,0.79-0.93
			c1.52-1.77,3.42-3.97,2.6-6.54c-0.52-1.64-1.98-2.78-4.34-3.36c-4.49-1.15-7.65,1.04-9.96,2.63c-0.95,0.65-2.02,1.39-2.48,1.39
			c0,0-0.01,0-0.01,0c-8.69-0.44-11.07-2.75-13.58-5.2c-1.51-1.46-3.21-3.12-6.06-4.13c-2.88-1-4.45,0.37-5,1.01
			c-2.46,2.88,0.06,9.42,1.84,13.16c-5.02,4.44-9.32,9.66-13.17,14.31c-0.93,1.13-1.84,2.22-2.71,3.26
			c-14.21-19.48-36.11-33.19-56.68-35.26l-0.06-0.01c-1.61-0.13-4.29-1.06-6.89-1.97c-5.29-1.84-9.85-3.44-12.76-1.51
			c-1.22,0.81-1.94,2.13-2.04,3.73c-0.13,2.08,0.66,3.35,1.34,4.06C610.29,236.52,612.82,236.46,615.04,236.4z"/>
		<path d="M609.57,266.93c1.49,0,4.29,1.05,7.53,2.27c6.73,2.53,16.42,6.18,28.76,6.18c2.03,0,4.14-0.1,6.32-0.32
			c3.3-0.31,7.24-1.55,8.39-4.1c0.53-1.18,0.4-2.49-0.34-3.52c-1.33-1.83-4.22-2.38-9.36-1.82c-1.03,0.1-6.66-0.41-10.02-0.72
			c-3.49-0.31-5.5-0.49-6.37-0.49c-8.4,0-17.08-1.45-23.77-11.98l-0.22-0.35l-0.32-0.27c-1.54-1.32-3.81-2.65-5.83-1.53
			c-0.62,0.35-2.03,1.42-1.68,3.98C603.57,262.78,605.83,266.93,609.57,266.93z"/>
		<path d="M713.44,325.26c-0.43-0.04-0.93-0.09-1.38-0.16c7.96-11.82,9.78-18.5,10.48-32.9c0.83-0.1,1.45-0.52,1.86-0.91
			c3.04-2.93-1.17-10.69-3.54-13.19c-2.07-2.23-4.06-5.13-5.81-7.68c-2.94-4.29-4.43-6.45-6.71-6.56c-2.83-0.14-4.2,1.04-4.85,2.07
			c-1.9,2.99,0.24,6.97,3.48,12.99c2.4,4.47,5.38,10.02,5.71,14.14c0.75,10.24-3.44,27.12-18.04,31.66
			c-1.96,0.61-3.7,1.16-5.25,1.65c-3.6,1.14-6.8,2.16-8.4,2.41c0.58-1.5,2.43-4.16,3.51-5.71c2.58-3.7,4.62-6.62,3.98-9.27
			c-0.27-1.11-0.98-2.02-1.97-2.54c-3.8-2.1-6.3,2.27-9.48,7.82c-3.13,5.47-7.79,13.77-12.64,13.51c-0.23-0.01-0.75-0.07-1.47-0.15
			c-12.9-1.37-19.62-1.26-20.27,3.15c-0.25,1.25,0.09,2.49,0.95,3.45c1.7,1.88,6.22,2.45,11.04,2.45c6,0,12.45-0.88,14.44-1.17
			c7.95-1.18,13.8-2.48,18.51-3.53c5.48-1.22,9.44-2.1,13.61-2.11c4.07-0.07,9.76,1.29,14.35,2.38c7.21,1.71,10.83,2.57,12.5-0.14
			c0.94-1.52,0.56-3.31-1.12-5.31C722.42,326.18,717.02,325.62,713.44,325.26z"/>
		<path d="M651.24,298.41c0.62,0.09,2.24,0.42,3.68,0.71c16.04,3.29,23.97,3.99,25.65-0.93c0.88-2.68,0.1-4.57-0.7-5.68
			c-2.19-3.03-6.74-3.26-7.67-3.28c-3.69-0.27-15.32-1.07-18.31-0.47c-1.94,0.11-12.15-2.48-20.57-4.95l-0.38-0.11h-0.4
			c-3.43,0-8.53-3.05-13.04-5.74c-6.45-3.85-12.02-7.18-15.35-3.22l0,0c-1.17,1.4-1.37,3.22-0.55,4.99
			c2.8,6,19.55,12.81,23.92,12.81h2.88c-9.34,2.85-14.23,4.54-14.52,8.2c-0.08,1.02,0.2,2.93,3.06,4.33
			c1.06,0.5,2.41,0.72,4.02,0.72c5.63,0,14.3-2.73,23.45-5.83C648.32,299.32,650.49,298.59,651.24,298.41z"/>
		<path d="M824.6,295.18c-1.37-3.08-4.97-2.7-13.66-1.79c-5.27,0.55-12.48,1.31-20.95,1.45c-12.73,0.16-15.95-1.73-19.68-3.91
			c-2.12-1.24-4.52-2.64-8.5-3.78c-4.38-1.32-12.16-1.88-14.48,2.23c-0.77,1.36-1.45,4.18,2.58,7.81l0.33,0.3l0.41,0.18
			c12.68,5.51,45.36,5.69,49.66,5.69c0.21,0,0.35,0,0.42,0c1.24,0,6.36-0.47,11.27-1.19c9.85-1.43,11.43-2.66,12.28-3.89
			C824.89,297.39,825.03,296.32,824.6,295.18z"/>
		<path d="M778.94,281.79l-0.02,0.02c-1,1.14-3.33,3.81-1.04,5.87c0.57,0.51,1.13,0.8,1.84,0.8c1.69,0,4.21-1.62,9.68-5.78
			c3.45-2.62,7.83-6.18,9.54-7.96c1.62-0.98,11.36-4.76,15.08-5.61l0.52-0.12l0.44-0.31c0.5-0.35,2.98-2.22,2.71-4.92
			c-0.1-0.95-0.64-2.72-3.23-3.84C802.97,255.17,779.18,281.52,778.94,281.79z"/>
		<path d="M776.34,332.97l-0.37-0.27l-0.44-0.14c-2.34-0.73-5.66-0.8-9.85-0.88c-7.41-0.14-17.55-0.34-23.54-5.04
			c-5.63-4.38-6.59-14.05-3.03-30.43c7.78-21.62,28.07-24.78,38.98-26.49c5.22-0.81,8.1-1.26,8.63-4.08c0.52-2.8-2.4-4.5-4.33-5.62
			c-3.37-1.96-8.6,0.11-17.56,3.92c-6.34,2.7-16.95,7.23-19.17,4.7l-4.77-5.45l-0.07,7.24c-0.05,5.11-3.9,10.71-7.29,15.65
			c-1.93,2.81-3.75,5.46-4.96,8.03l-0.11,0.26c-5.55,15.83-2.99,29.1,1.26,36.23c2.49,4.18,5.84,6.8,9.41,7.38
			c14.95,2.45,24.14,3.28,29.83,3.28c8.45,0,9.22-1.83,9.69-2.94C779.2,337.06,779.23,335.09,776.34,332.97z"/>
	</g>
</g>
</svg>
