<svg xmlns="http://www.w3.org/2000/svg" width="1289.999" height="23.998" viewBox="0 0 1289.999 23.998">
  <path id="Subtraction_2" data-name="Subtraction 2" d="M-13213.733,36.577H-13224v-24h34.267l-24,24Zm1279.731,0h-30.1l24-24h6.106v24Zm-52.731,0h-22.372l24-24h22.372l-24,24Zm-45,0h-23.374l24-24h23.374l-24,24Zm-46,0h-22.374l24-24h22.372l-24,24Zm-45,0h-22.372l24-24h22.372l-24,24Zm-45,0h-23.371l24-24h23.371l-24,24Zm-46,0h-22.375l24-24h22.375l-24,24Zm-45,0h-23.373l24-24h23.371l-24,24Zm-46,0h-22.372l24-24h22.372l-24,24Zm-45,0h-23.375l24-24h23.374l-24,24Zm-46,0h-22.372l24-24h22.372l-24,24Zm-45,0h-23.371l24-24h23.371l-24,24Zm-46,0h-22.375l24-24h22.375l-24,24Zm-45,0h-23.373l24-24h23.371l-24,24Zm-46,0h-22.372l24-24h22.372l-24,24Zm-45,0h-22.372l24-24h22.372l-24,24Zm-45,0h-23.374l24-24h23.374l-24,24Zm-46,0h-22.371l24-24h22.372l-24,24Zm-45,0h-23.374l24-24h23.374l-24,24Zm-46,0h-22.375l24-24h22.372l-24,24Zm-45,0h-23.371l24-24h23.371l-24,24Zm-46,0h-22.372l24-24h22.372l-24,24Zm-45,0h-23.374l24-24h23.374l-24,24Zm-46,0h-22.372l24-24h22.371l-24,24Zm-45,0h-23.374l24-24h23.374l-24,24Zm-46,0h-22.375l24-24h22.373l-24,24Zm-45,0h-23.371l24-24h23.371l-24,24Zm-46,0h-22.371l24-24h22.372l-24,24Z" transform="translate(13224.001 -12.578)" fill="#faf0e7"/>
</svg>
