<svg id="Layer_1" data-name="Layer 1" xmlns="http://www.w3.org/2000/svg" viewBox="0 0 824.45 287.37" fill="#e27725"><defs><style>.cls-1{fill:#e27725;fill-rule:evenodd;}</style></defs><path class="cls-1" d="M429.82,90.43l-.2,99.13c-1.17,5.06,7.9,4.27,5,9.58-3.67,4.51-11,2.26-16.67,3.07-5.1-.8-13,1.7-14.44-4.3-.5-4.46,5.18-4.18,4.56-8.44l.12-48.82c-.82,3.37-.58,8.23-4.21,9.83a6.54,6.54,0,0,1-5.95-2.24c-1.38-1.71-.84-5.65-2.82-5.91-6.74,1.06-10.09,8.42-11.87,13.79-2,11-.88,24-1,35.89.87,3.06,6.49,2.56,4,6.75a9.7,9.7,0,0,1-3.64,2.78s-4.87.3-12.41.32c-7.89,0-11.89-.4-11.89-.4a4.26,4.26,0,0,1-2.8-3.41c-1.17-1.64.59-3.31,1.71-4,1.07,0,2.43-1.89,2.81-3l.15-48.82c-.33-4.2-7.07-3.42-5.46-7.62,6-5.33,14.41-5.29,21.05-9.58,1.64.3,3.6-.21,5,.88,2.29,3.09.28,8.18,1.65,11.81h.88c4-5,8.78-12.69,16.41-12.34,2,.27,7.11,0,8.48,3.38.1-10.11,1.19-23.69-5.09-29.1.15-7,15.31-6.12,20.2-11.8,1.9-.82,6.19-.83,6.44,2.56"/><path class="cls-1" d="M603.16,88l.61,13.88,0,85.26c1.12,1.67,3.65.62,4.22,2.55.88,4.27-2.27,5.63-5.38,7.06-6.52,2.27-12.4,5.3-19.51,5.56-3.11-.82.85-3.91-2.22-5.34-3.13,3.64-7.93,7.6-12.78,5.56-9.58-.85-15-9-17.37-16.89-3.66-19.24-2-40.7,9.13-55.68,3.13-3.61,7.34-5,11.89-5.56,3.1.56,5.94,2.3,8.47,4l.81-1.47.39-22.56c-2-2.75-8.3-4-5.38-8.72,1.94-1.14,3.66-.3,6.49-1.35,5.74-2.57,11.59-5.13,17.27-7.93,1.7-.54,2.74.59,3.33,1.68m-28,49.36c-.91-1.41-2.24-.26-3.13.88-5.22,13.57-7.4,33.59,1.64,46.06,1.37,1.39,3.36.54,4.49-1.13,4.22-10.23,4.22-22.6,2.31-33.89-1.11-4.3-1.66-8.76-5.31-11.92"/><path class="cls-1" d="M144.09,87.45l6.18,28a5.75,5.75,0,0,1-3.71,6.49c-2.56,1.08-5.12-.54-7.07-2-4.23-6.46-5-15-11.8-20-1.93-.27-3.63,0-3.87,2V190.2c.82,2.57,3.37,5.05,5.9,5.35,2.25-.28,4.54-3.34,4.54-4.44l.13-48.87c-.28-2.77-8.19-3.67-5.93-6.79,7.35-3.34,15-5.9,22-9.58,2-.31,5.15,0,5.69,2.3l.1,63c-.27,3.36,4.28,2.84,5.07,5.92,1.11-2.56,4.27-3.06,4.51-5.88l.1-48c0-4-7.58-4.55-5.26-7.68,6.74-3,13.55-6.16,20.3-9.24,2.28-1.11,6-1.12,6.73,1.7,0,2-.25,3.36.58,5.09,3.16,1.43,3.18-2.77,5.2-4,4.16-4.19,11.53-4.15,16.62-2.18,4.2.54,4.43,6.47,8.46,6.26,1.91-2.56,3.07-5.4,6.22-6.54,5.06-.52,10.39-.79,14.38,2.31,9,9.08,9,22,10.3,34.18,1.13,10.48,2,20.36,3.09,31.1.54,1.61,1.38.76,2.78,1.62v-2.24l.2-86.64c0-5.93-5.58-6-4.7-9.92,5.38-6.45,15-5.52,21.17-10.65,2.28,0,4.55.8,5.34,2.82l-.05,38.68c2.21,2.29,3.38-1.36,6-2.21,6.14-1.94,12.08,1.14,15.72,5.13,7.37,7.92,8.7,18.08,10.39,28.2h.31c1.7-12.37,4.27-27.62,17.56-32.37,5.94-2.27,13.25-2.24,18.58,1.72,7.89,6.83,13.34,18.66,10.7,29.41-9.63,4.51-18.95,8.15-26.85,11.74.79,4.84,2.2,10.2,6.77,13.07,3.13,1.37,7.58,3.34,10.47.31,1.34-2.56.55-7.08,3.95-7.36,2.53,0,5.32.31,6.46,2.85,3.12,5.89,1.13,12.67-2.55,17.72-6.27,6.77-17.27,7.36-26,5.07-13.37-4.26-16.67-18.61-18.87-30.53-.66,12.43-2.91,26.75-15.62,31.27-7.66,2-17.76.24-21.14-4.58-1.11-1.44-.87-3.89-3.4-3.9-4.26,0-3.67,7.82-9.14,8.42-2.5.83-4.11-1.45-5-2.87-.5,1.41-1,1.75-3.35,2.21.29.06-21.47.31-23.4-.28-2-.24-2-1.45-2.52-2.25-1.42-4,3.63-2,4-5.34.79-15.54-.56-30.46-2.51-45.2-.56-3.46-1.64-5.94-4.46-7.39-2.26-1.05-4.55,2-4.82,3.43l-.37,47.15c-.34,4.46,7.06,3.37,3.82,8.13-6.12,3.14-16.59,1.37-24.24,1.4a16.55,16.55,0,0,1-2.79-.59c-1.38-.3-2-3.64-.85-4.21,3.11-.3,4.22-3.38,4.8-5.91.35-14.45.38-46-.42-48.27-.59-2-3.12-2.83-5-2.3-2.56.86-4,1.48-4.88,5.36l.2,46.61c-.85,3.65,6.17,3.08,3.59,7.27l-2.19,1.77c-8.15,1.06-17.31.79-25.74.15-1.4-.84-3.33-1.94-3.37-4.19-.53,1.67-.88,2.76-2.5,3.62-9.67.53-16.7,1.39-26.59.23-.52-.58-1.67-.81-2.24-1.74-4.25,3.44-10.74,2-16.42,2.26-7.57,0-13.24,1.1-19.51-1.46-1.32-.84-1.31-2.54-1.08-3.66,2.83-.86,4.28-2.58,5.38-5.34l.26-87.55c-.3-2.54-2-2.26-2.54-3.07-2.85-.3-5.08,2.23-6.21,4.47-5.09,5.91-3.71,19.79-15,17.72-1.43-1.13-2.95-2-3.49-3.7,1.19-11.19,3.8-20.82,6.06-31.29.87-.86,1.65-2.52,3.35-2.2A4.32,4.32,0,0,1,84.77,87c15.28.62,34.19.67,50.8.11,1.71-3.11,8-4.49,8.52.3M332,135.09c-2.21-1.39-5.3,1.47-5.94,3.11-1.07,6.7-1.68,15.76,1.66,22.31a35,35,0,0,0,8.21-3.65c3.39-3.61,3.67-8.16.61-14.18Zm-48,1c-2,0-5.11,9.27-6.22,14.36-1.17,11.6-1.78,24.55,4.72,33.9,1.63,1.68,3.05-1.14,3.83-1.91,6.59-11.31,5.44-26.57,2.19-39-.85-2.91-1.18-7.4-4.52-7.38"/><path class="cls-1" d="M540.09,135.84c5.62,12.2,6.45,26.6,7.48,40.47.58,6.14-1.33,16.64,4.81,20.32.78.84.56,2.79-.27,3.94l-2.25,1.14c-7.89.52-16.42,1.34-25.19-.94a3.2,3.2,0,0,1-.84-3.69c7.12-3.28,3.77-14.69,4.35-20.79-2-11.64-3.36-23.56-8.66-33.89a2.92,2.92,0,0,0-3.17-1.19l-1.94,1.92.43,48c.22,2.25.84,5,3.66,5.34,1.09,1.44.28,3.11-.3,4.23-7.84,2.27-17.23,2-25.11,1.39a5.68,5.68,0,0,1-3.67-3.1c-2.28,2.24-4.5,3.06-8.13,3.34-6.28.29-9.66-3.13-13.59-6a57.61,57.61,0,0,1-8.2,5c-5.91,3.14-13.3,1.15-18.67-1.69-7.61-4.3-8.75-12.42-8.92-20.37-.61-11.57,9.87-19.73,19.19-24.24,2.85-1.1,8.49-1.34,9.6-4.76.28-4.61.34-11-4.19-14.41-2.83,0-5.87-1.18-8.75,0-2.23,3.16,2.8,2.55,3.68,5.31a11.16,11.16,0,0,1-1.73,8c-2.86,3.35-7.89,2.53-11.84,2a12.81,12.81,0,0,1-4.52-5.66c-.59-4.29-.57-8.75,2.09-11.82,7.24-8.54,20-7.57,30.11-6.46,5.38,0,10.72,4.51,12.42,9.38,4.54,16,4.76,33,5.57,50.22,1.39,5.94,4.5-1.1,5.91,4.55l.87,5.07c2.77,0,3.36-2.75,4.2-4.48l-.2-48.87c-.5-3.92-7.23-3.92-5-8.14,5.6-4.23,12.95-5.64,19.21-9.33,2.51-.53,5,0,5.55,2.3.86.86-.53,2.82,1.13,3.4,2.64-3.13,4.81-6,8.75-6.5,7.72-.25,13,4.84,16.1,11m-79.38,25.25c-3.4.85-5.65,3.08-7.62,6.53-1.67,6.49-2.59,20.25,3.33,22a5.07,5.07,0,0,0,6-1.44,102.35,102.35,0,0,0-.81-26Z"/><path class="cls-1" d="M742.46,178.77c-4.29,5.91-8.16,10.38-14.16,14.33-27.37-.89-53.34-8.06-80.47-9.21l-2.27-2.55c32-7.26,65,4.08,96.9-2.57"/><path class="cls-1" d="M710,194.49l14.91,1.13c-16.17,11.87-43.55,12-61,2.15A84,84,0,0,1,650.12,187c20.86.61,39.78,5.52,59.86,7.54"/><path class="cls-1" d="M691.27,82.64c3.4,5.65,5.93,11.91,9.33,17.45l2.45-.24c-1.33-5.59-4.18-11.25-6.63-16.9,8.44-2.84,7.82,8.15,11.75,12.14,4.29-.84,8.28-4.26,12.49-5.88,1.32,0,2,1.36,2.72,2l-11.29,9.57c.07,3.4,1.69,6.74,3.15,9.86L728,93.74c1.44.23,2.27,1.93,3.45,2.54-2,3.1-4,5.34-5.77,8.73l.87.52c5.6,1.78,15.78-3.56,17.53,5.14l-12.7,1.1-5.65,9.53c7.82,1.19,13.77-4,20.55-6.3l2.8,5a111.63,111.63,0,0,1-26.29,8.44c-1.39,2-2.29,4.19-3.66,6.2,10.46-2.2,21.21-5,31.88-7.81,4.79,15.85,1.92,34.18-6,47.41l-3.38,2c-33,6.39-65.18-4.39-98,2-11.19-15.59-14.91-39.56-6.86-57.6l12.93-.58,0-1.12c-1-4.53-11.27-9.06-4.11-13.81,4.76,3.71,8.71,9.31,12.63,13.53,1.73,0,3.46.33,4.55-.27L648.61,102c1-2.5,4-3.93,5.93-5.93l11.9,2.58c.54-3.39.32-6.5.33-10.16,2.54-1.66,5.31-2.25,7.88-3.39l6.7,13.56,8.82-16Zm0,11.57-5.66,12.38A31.67,31.67,0,0,0,689,118.47c6.49-1.68,4.88-9.31,6.54-14.08Zm-18.71.49c.6,2.28-2,8.17,2.85,6.78Zm-15.77,7.54,9,9.36c.36-2.21.37-4.46.61-6.73-3.11-.82-6.24-2-9.6-2.63m46.86,5,.49.8c.58-.51,1.47-1.11,1.53-2a2.7,2.7,0,0,0-2,1.15m-30.54.73,0,10.47,4.65-9c-1.49-1.16-3.19-1.11-4.6-1.46M724.56,112a35,35,0,0,1-3.72.56l-5.85,9c1,0,3,.33,3.85.33Zm-24.36,7.38.59,11.22c3.07-5.34,11.87-9.85,8.25-17.46a44.18,44.18,0,0,0-8.84,6.24m-16.36,9.48-2.77-11-2.3,5.31Zm9.35-6.18c-3.94-.56-3.74,6.75-.34,7.08Zm-33.88,1.35-5.15,6.14,8.48,3.72,9.06-6.43c-1.41-5.94-8.48-2.32-12.39-3.43m-19.52,1.07,5.05,2.5c2.85,2,3.12-1.37,4.62-2.74-3.19.21-6.56-.32-9.67.24m40.37,10-3.47-3.35c-5.31,2.74-9.83,9.83-15.79,11.79l-7,0a17.69,17.69,0,0,0,3.33-5.05,25.44,25.44,0,0,0-7.3-2.51c-1.68,2.18-4.29,6.17-6,7.52l-3.65,0c0,6.51.31,14.16,3.37,19.82,14.07.29,30,2.34,44.62,4.11l0-22.05-2.77-4.3a17,17,0,0,1-8.19,2.52,78,78,0,0,1-12.14,0Zm-39.27-3.45-.64,6.73a14.93,14.93,0,0,0,3.51-5.33ZM747.05,137a12.94,12.94,0,0,0-.8-2c-1.44.55-3.46.83-5.62,1.36l4.37,8.51-7.28-.26c-.52-.92-.89-2-1.66-3.46-.29-.55-1.74-3.35-1.45-3.35-2.19.86-6.74,1.38-9.28,1.92.54,2,1.11,3.14,1.65,4.79l-5.84,0a33,33,0,0,1-2.29-3.64c-6.86,1.93-13.23,3.86-20.14,5.79.31,7.68.56,16.12,2.26,22.63a205.14,205.14,0,0,0,37.86,3.21c6.75-10.15,10.72-22.8,8.22-35.54m-32.47-7.51a19.74,19.74,0,0,0-3.66.05l-4.81,7.92a17.06,17.06,0,0,0,4.5-1.13Z"/></svg>