<svg id="Layer_1" data-name="Layer 1" xmlns="http://www.w3.org/2000/svg" fill="#010101" viewBox="0 0 824.45 287.37"><defs><style>.cls-1{fill:#010101;}</style></defs><path class="cls-1" d="M430.91,108.85h9.16v20.87h-9.16Zm319.26,68.26c-13.1,1.51-22.17-6.23-22.17-20.56v-47.7h9.17v12H750v8.86h-12.8v26.83c0,10,6,12.47,13,12Zm-43-34c-2.29-9.19-9.93-15.29-18.1-15.29-7.77,0-16,5.65-18.36,15.29Zm9,16.47c-3.9,12-13.51,18.79-26.53,18.79-16.14,0-28.82-12.9-28.82-29.37,0-16.25,12.68-29.58,28.3-29.58,14.52,0,28.49,12,28.38,31.95H670.13c1.2,11.71,10.16,18.57,19.43,18.57,8,0,13.66-3.82,16.7-10.36Zm-57-39.87v8.63c-10.82-1-17.68,4.27-17.68,15.09v33.63h-9.19V143.68c0-17,12.12-25.65,26.87-23.92M598.5,178.42c-15.51,0-28.15-13.11-28.15-29.37S583,119.47,598.5,119.47a26.85,26.85,0,0,1,26.21,18.76h-10A18,18,0,0,0,598.5,128c-10.38,0-18.87,9.5-18.87,21.08s8.49,20.82,18.87,20.82a17.73,17.73,0,0,0,16.25-10.24h10C621,171,611.08,178.42,598.5,178.42m-46.4-35.26c-2.29-9.19-9.94-15.29-18.13-15.29-7.72,0-15.92,5.65-18.34,15.29Zm8.95,16.47c-3.94,12-13.54,18.79-26.53,18.79-16.15,0-28.83-12.9-28.83-29.37,0-16.25,12.68-29.58,28.28-29.58,14.53,0,28.53,12,28.29,31.95H515.09c1.19,11.71,10.14,18.57,19.43,18.57,8,0,13.65-3.82,16.69-10.36Zm-86.62,18.89c-13.63,0-23.53-7.32-25.07-19.23h9.37c1.22,6.56,7.66,10.58,15.7,10.58,8.78,0,14.1-4.25,14.1-9.15,0-3.94-1.5-6.88-15.26-8.71-13.68-2-22-5.25-22-15.85,0-8.06,7-16.69,22.07-16.69,13,0,21.74,6.54,22.95,17.58h-9.41c-1.31-6-6.66-9.08-13.54-9.08-7.42,0-12.78,3.5-12.78,7.87,0,4,3.18,5.45,14.2,7.2,12.45,2,22.71,4.35,22.71,17.16,0,11.22-9.61,18.32-23.07,18.32M383,177.11h-9.17V142.94c0-14.23,10.06-23.47,23.47-23.47s23.38,9.24,23.38,23.47v34.17h-9.17V142.62c0-8.44-5.6-14.52-14.21-14.52S383,134.18,383,142.62Zm-29.47-34c-2.29-9.19-9.93-15.29-18.12-15.29-7.77,0-15.95,5.65-18.34,15.29Zm8.95,16.47c-3.92,12-13.53,18.79-26.53,18.79-16.16,0-28.82-12.9-28.82-29.37,0-16.25,12.66-29.58,28.28-29.58,14.51,0,28.51,12,28.38,31.95H316.45C317.69,163.13,326.64,170,335.9,170c8,0,13.66-3.82,16.7-10.36Zm-65,17.48h-9.3V140.72c0-7.3-4.67-12.75-12.22-12.75-7.31,0-12.22,5.45-12.22,12.75v36.39h-9.16V140.72c0-7.3-4.83-12.75-12.24-12.75s-12.22,5.45-12.22,12.75v36.39h-9.3v-36c0-12.24,8.85-21.61,21.52-21.61,7.64,0,13.54,3.59,16.8,9.24A18.85,18.85,0,0,1,276,119.47c12.79,0,21.52,9.37,21.52,21.61Zm-95.22-28c0-11.67-8.54-21.17-19-21.17s-18.89,9.5-18.89,21.17c0,11.5,8.51,20.73,18.89,20.73s19-9.23,19-20.73m9.27,0c0,16.17-12.24,29.28-28.26,29.28S155,165.31,155,149.14c0-16.34,12.34-29.67,28.3-29.67s28.26,13.33,28.26,29.67m-82,14,11.9-42.27h9.75l-16.76,56.25h-9.8l-11.91-43-12,43H91.09L74.27,120.86H84l12,42.27,11.92-42.27h9.7Z"/></svg>