<svg id="Layer_1" data-name="Layer 1" xmlns="http://www.w3.org/2000/svg" viewBox="0 0 824.45 287.37" fill="#b51f35"><defs><style>.cls-1{fill:#b51f35;fill-rule:evenodd;}</style></defs><path class="cls-1" d="M266.14,110.82h7.69l0,68h-7.85V168.14c-2.05,1.88-4.09,3.76-6.29,5.49A29.91,29.91,0,0,1,240,180.37c-8.32,0-17-2.84-23.08-8-10.68-9-11.61-22.62-11.61-27.33,0-4.08.79-14.92,8.34-23.87a35.47,35.47,0,0,1,26.23-11.76c11.62,0,17.74,5,26.22,12.42v-11Zm-38.67,58.71a26.93,26.93,0,0,0,12.72,3c3.45,0,13.51-.78,19.95-8.47,4.4-5.18,6.44-12.88,6.45-20.1,0-5-.78-16.8-13.34-23.24a29.75,29.75,0,0,0-13.5-3.15,26.88,26.88,0,0,0-11.63,2.5c-12.25,5.81-14.3,19.31-14.61,23.71-.32,5.49.14,19,14,25.76Z"/><path class="cls-1" d="M289.76,110.83v7.07c.94-.94,1.87-1.73,2.8-2.67a19.44,19.44,0,0,1,13.81-5.49,20.13,20.13,0,0,1,13,4.72,47.18,47.18,0,0,1,5.11,6,45.26,45.26,0,0,1,4.35-5.34,23.78,23.78,0,0,1,15.21-5.48,19.22,19.22,0,0,1,7,1.1,22.38,22.38,0,0,1,13.34,12.73c1.24,3.14,1.55,5.34,1.86,12.09l0,43.34h-7.76l0-41.29a46.33,46.33,0,0,0-.16-4.71c-.15-1.89-.77-9-6.51-12.73a13,13,0,0,0-7.6-2.36,16.74,16.74,0,0,0-9,2.82c-6.37,4.24-6.83,10.52-7.15,18.06l0,40.2h-7.91l0-41.92c-.15-6.91-.46-12.72-6.35-16.5a14.56,14.56,0,0,0-8.38-2.51,15.42,15.42,0,0,0-11.8,5.8c-2.8,3.3-3.57,6.28-3.89,14.92l0,40H281.5l0-67.83Z"/><path class="cls-1" d="M430,178.74v-11a22.35,22.35,0,0,1-3.15,4.13,29,29,0,0,1-20.89,8.25,32.58,32.58,0,0,1-14.45-3.35c-16.64-8.27-17.73-27.35-17.73-32.27,0-3.65.64-14.3,7.4-23.52,3-4,11.15-13,25.29-12.85a30.5,30.5,0,0,1,20.1,7.79A35.13,35.13,0,0,1,430,119.3v-9.85h12.41l0,69.29Zm-14-11.29c10.68-3.33,14.77-12.71,14.77-23.35a29.46,29.46,0,0,0-1.4-9.86,21.57,21.57,0,0,0-29.68-12.73c-5.19,2.38-12.89,8.9-12.89,22.88,0,12.87,7.05,23.21,20.71,24.17a21.79,21.79,0,0,0,8.49-1.11Z"/><path class="cls-1" d="M460,110.92V118c.93-.94,1.86-1.73,2.79-2.67a19.47,19.47,0,0,1,13.82-5.49,20.21,20.21,0,0,1,13,4.72,47.18,47.18,0,0,1,5.11,6,45.68,45.68,0,0,1,4.35-5.33,23.74,23.74,0,0,1,15.21-5.49,19.22,19.22,0,0,1,7,1.1,22.39,22.39,0,0,1,13.34,12.73c1.24,3.14,1.55,5.34,1.86,12.09l0,43.34h-7.76l0-41.3c0-1.57,0-3.14-.15-4.71-.16-1.89-.78-8.95-6.51-12.73a13,13,0,0,0-7.6-2.36,16.75,16.75,0,0,0-9,2.82c-6.36,4.24-6.83,10.52-7.15,18.06l0,40.2h-7.91l0-41.93c-.15-6.91-.46-12.72-6.35-16.49a14.51,14.51,0,0,0-8.38-2.52,15.44,15.44,0,0,0-11.8,5.8c-2.79,3.3-3.57,6.28-3.88,14.92l0,40h-8.23l0-67.84Z"/><path class="cls-1" d="M602.09,111h7.59l0,68H601.9V168.32c-2,1.88-4,3.76-6.19,5.49a29.23,29.23,0,0,1-19.35,6.74c-8.21,0-16.72-2.83-22.76-8-10.52-9-11.44-22.62-11.43-27.33,0-4.08.78-14.91,8.21-23.86a34.84,34.84,0,0,1,25.86-11.77c11.46,0,17.49,5,25.84,12.43V111ZM564,169.71a26.21,26.21,0,0,0,12.54,3c3.4,0,13.31-.78,19.66-8.47,4.34-5.18,6.36-12.87,6.36-20.09,0-5-.77-16.81-13.15-23.25a29.12,29.12,0,0,0-13.31-3.15,26.06,26.06,0,0,0-11.46,2.51c-12.07,5.8-14.09,19.31-14.41,23.7-.31,5.49.15,19,13.77,25.76Z"/><path class="cls-1" d="M218.3,89.57c-.61,1.39-45.9,107.41-46.16,108h-8.42l15.93-36.3L146.91,89.53H155l28.66,61.75s25.78-61.12,26-61.72Z"/><path class="cls-1" d="M677.53,89.82c-.6,1.39-45.89,107.42-46.16,108H623l15.94-36.29L606.15,89.78h8.11l28.65,61.76S668.7,90.41,669,89.81Z"/></svg>