<svg id="_360-degrees" data-name="360-degrees" xmlns="http://www.w3.org/2000/svg" width="24" height="17.801" viewBox="0 0 24 17.801">
  <path id="Path_565" data-name="Path 565" d="M308,152.854a.7.7,0,0,1-.088-1.4,15.358,15.358,0,0,0,5.6-1.7c1.272-.741,1.972-1.612,1.972-2.453a2.959,2.959,0,0,0-1.507-2.158.7.7,0,1,1,.8-1.159,4.151,4.151,0,0,1,2.117,3.317c0,1.382-.923,2.65-2.671,3.668a16.529,16.529,0,0,1-6.133,1.876A.747.747,0,0,1,308,152.854Zm0,0" transform="translate(-292.896 -137.121)"/>
  <path id="Path_566" data-name="Path 566" d="M11.829,145.963l-1.875-1.875a.7.7,0,0,0-.994.994l.548.548a16.941,16.941,0,0,1-5.487-1.417c-1.661-.8-2.614-1.817-2.614-2.792,0-.827.682-1.687,1.921-2.422a.7.7,0,1,0-.717-1.21C.453,139.068,0,140.47,0,141.421c0,1.56,1.211,3,3.411,4.06a18.711,18.711,0,0,0,6.322,1.583l-.774.774a.7.7,0,0,0,.994.994l1.875-1.875A.7.7,0,0,0,11.829,145.963Zm0,0" transform="translate(0 -131.237)"/>
  <path id="Path_567" data-name="Path 567" d="M96.429,94.684v-.169c0-.6-.365-.712-.855-.712-.3,0-.4-.267-.4-.534s.1-.534.4-.534c.338,0,.695-.044.695-.766,0-.517-.294-.641-.659-.641-.436,0-.659.107-.659.454,0,.3-.134.508-.65.508-.641,0-.721-.134-.721-.561,0-.695.5-1.594,2.03-1.594,1.131,0,1.986.41,1.986,1.612a1.564,1.564,0,0,1-.686,1.461,1.291,1.291,0,0,1,.908,1.309v.169c0,1.461-1.006,2.013-2.253,2.013-1.532,0-2.12-.935-2.12-1.683,0-.4.169-.508.659-.508.57,0,.712.125.712.463,0,.419.392.517.793.517C96.215,95.486,96.429,95.263,96.429,94.684Zm0,0" transform="translate(-89.065 -85.908)"/>
  <path id="Path_568" data-name="Path 568" d="M213.147,94.515v.08a2.188,2.188,0,0,1-4.373,0v-2.36c0-1.532.989-2.1,2.271-2.1,1.505,0,2.1.935,2.1,1.674,0,.428-.2.561-.65.561-.383,0-.721-.1-.721-.508,0-.338-.356-.517-.775-.517-.526,0-.837.276-.837.891v.8a1.424,1.424,0,0,1,1.113-.392A1.669,1.669,0,0,1,213.147,94.515Zm-2.984.178c0,.615.3.882.8.882s.793-.267.793-.882v-.08c0-.65-.294-.9-.8-.9a.715.715,0,0,0-.793.819Zm0,0" transform="translate(-198.987 -85.908)"/>
  <path id="Path_569" data-name="Path 569" d="M325.055,94.595v-2.36a2.188,2.188,0,0,1,4.373,0v2.36a2.188,2.188,0,0,1-4.373,0Zm2.984-2.36c0-.615-.3-.891-.8-.891s-.793.276-.793.891v2.36c0,.615.294.891.793.891s.8-.276.8-.891Zm0,0" transform="translate(-309.818 -85.908)"/>
  <path id="Path_570" data-name="Path 570" d="M411.461,4.219a2.109,2.109,0,1,1,2.109-2.109A2.112,2.112,0,0,1,411.461,4.219Zm0-2.812a.7.7,0,1,0,.7.7A.7.7,0,0,0,411.461,1.406Zm0,0" transform="translate(-390.163)"/>
</svg>
