<svg xmlns="http://www.w3.org/2000/svg" width="25.829" height="23.555" viewBox="0 0 25.829 23.555">
  <g id="Group_47" data-name="Group 47" transform="translate(-0.177 0.529)">
    <path id="Path_16" data-name="Path 16" d="M-44.54,68.883a.717.717,0,0,0-.571-.282h0l-19.6.142c-.09.015-.634-3.747-.7-3.7.043-.008-2.1,0-3.773,0-.4,0,3.8-.066,3.773,0h0l2.547,14.825a.717.717,0,0,0,.7.555h14.127a.716.716,0,0,0,.69-.522l2.923-10.391A.721.721,0,0,0-44.54,68.883Z" transform="translate(69.895 -65.046)" fill="none" stroke="#000" stroke-width="1"/>
    <ellipse id="Ellipse_1" data-name="Ellipse 1" cx="2.284" cy="2.284" rx="2.284" ry="2.284" transform="translate(7.279 17.958)" fill="none" stroke="#000" stroke-width="1"/>
    <ellipse id="Ellipse_2" data-name="Ellipse 2" cx="2.284" cy="2.284" rx="2.284" ry="2.284" transform="translate(16.788 17.958)" fill="none" stroke="#000" stroke-width="1"/>
  </g>
</svg>
