<svg xmlns="http://www.w3.org/2000/svg" width="136.985" height="26.603" viewBox="0 0 136.985 26.603">
  <g id="Group_561" data-name="Group 561" transform="translate(-535 -1311.069)">
    <g id="Group_550" data-name="Group 550" transform="translate(535 1311.069)">
      <g id="Group_547" data-name="Group 547" transform="translate(0 0)">
        <g id="Group_546" data-name="Group 546">
          <path id="Path_457" data-name="Path 457" d="M276.4,153.521H237.465a1.056,1.056,0,0,0-1.057,1.057v24.489a1.056,1.056,0,0,0,1.057,1.057H276.4a1.056,1.056,0,0,0,1.057-1.057V154.578A1.056,1.056,0,0,0,276.4,153.521Zm-36.814,8.039h4.381a1.137,1.137,0,0,1,1.231.842l.953,4.582c-.936-2.4-3.192-4.391-6.6-5.217Zm5.3,10.451-2.531-8.646a11.1,11.1,0,0,1,3.915,4.3l.3,1.068,2.768-7.071h2.994l-4.45,10.35Zm9.642.007H251.7l1.767-10.37H256.3Zm4.917.156a8.946,8.946,0,0,1-3.148-.554l.4-2.321.364.165a5.922,5.922,0,0,0,2.661.544c.812,0,1.682-.318,1.69-1.012.005-.454-.364-.778-1.464-1.287-1.073-.5-2.493-1.327-2.475-2.816.015-2.015,1.983-3.422,4.777-3.422a7.294,7.294,0,0,1,2.531.435l-.382,2.248-.255-.12a5.214,5.214,0,0,0-2.115-.4c-1.106,0-1.619.461-1.619.892-.006.486.6.805,1.587,1.286,1.63.74,2.384,1.637,2.374,2.817C264.347,170.785,262.419,172.174,259.447,172.174Zm12.246-.151s-.258-1.192-.344-1.554l-3.619,0c-.11.28-.594,1.558-.594,1.558h-2.968l4.2-9.5a1.407,1.407,0,0,1,1.48-.861h2.183l2.287,10.363Z" transform="translate(-236.408 -153.521)"/>
        </g>
      </g>
      <g id="Group_549" data-name="Group 549" transform="translate(32.134 10.935)">
        <g id="Group_548" data-name="Group 548">
          <path id="Path_458" data-name="Path 458" d="M282.314,169.461l-.19-.894c-.144.39-.392,1.018-.376.99,0,0-.893,2.3-1.126,2.9h2.347C282.855,171.936,282.314,169.461,282.314,169.461Z" transform="translate(-280.622 -168.567)"/>
        </g>
      </g>
    </g>
    <g id="Group_555" data-name="Group 555" transform="translate(582.968 1311.069)">
      <g id="Group_552" data-name="Group 552" transform="translate(0 0)">
        <g id="Group_551" data-name="Group 551">
          <path id="Path_459" data-name="Path 459" d="M340.256,153.521H301.32a1.056,1.056,0,0,0-1.057,1.057v24.489a1.056,1.056,0,0,0,1.057,1.057h38.936a1.056,1.056,0,0,0,1.057-1.057V154.578A1.056,1.056,0,0,0,340.256,153.521Zm-36.814,8.039h4.381a1.137,1.137,0,0,1,1.231.842l.953,4.582c-.936-2.4-3.192-4.391-6.6-5.217Zm5.3,10.451-2.531-8.646a11.1,11.1,0,0,1,3.915,4.3l.3,1.068,2.768-7.071h2.994l-4.45,10.35Zm9.642.007h-2.826l1.767-10.37h2.827Zm4.917.156a8.945,8.945,0,0,1-3.148-.554l.4-2.321.364.165a5.922,5.922,0,0,0,2.661.544c.812,0,1.682-.318,1.69-1.012.005-.454-.364-.778-1.465-1.287-1.073-.5-2.493-1.327-2.475-2.816.015-2.015,1.983-3.422,4.776-3.422a7.294,7.294,0,0,1,2.531.435l-.382,2.248-.255-.12a5.215,5.215,0,0,0-2.115-.4c-1.106,0-1.619.461-1.619.892-.006.486.6.805,1.587,1.286,1.63.74,2.384,1.637,2.374,2.817C328.2,170.785,326.273,172.174,323.3,172.174Zm12.246-.151s-.258-1.192-.344-1.554l-3.619,0c-.11.28-.594,1.558-.594,1.558h-2.967l4.2-9.5a1.407,1.407,0,0,1,1.48-.861h2.183l2.287,10.363Z" transform="translate(-300.263 -153.521)"/>
        </g>
      </g>
      <g id="Group_554" data-name="Group 554" transform="translate(32.134 10.935)">
        <g id="Group_553" data-name="Group 553">
          <path id="Path_460" data-name="Path 460" d="M346.169,169.461l-.19-.894c-.144.39-.392,1.018-.376.99,0,0-.893,2.3-1.126,2.9h2.347C346.71,171.936,346.169,169.461,346.169,169.461Z" transform="translate(-344.477 -168.567)"/>
        </g>
      </g>
      <path id="Path_461" data-name="Path 461" d="M321.308,184.841h.486v0l1.281-.008.065-.481-1.281.007.141-1.031.975-.008.065-.481-.974.008.126-.927,1.241-.008.064-.482-1.725.01-.464,3.4Zm4.683,0h.485v0l1.281-.008.065-.481-1.281.007.141-1.031.975-.008.064-.481-.974.008.127-.927,1.24-.008.064-.482-1.725.01-.464,3.4Zm-2.316,0h.486v0l1.282-.008.064-.481-1.28.007.45-2.93-.537.01-.464,3.4Zm8.482,0h.486v0l.035-.008.371-2.914,1.064-.008.065-.482-2.508.01-.065.48h.956l-.4,2.924Zm2.072,0,.486-.01h.036l.178-1.44h.262l.783,1.441h.525l-.768-1.439c.964-.238,1.244-1.975.039-1.965l-1.034.01-.507,3.4Zm.767-1.869h.559c.447,0,.72-1.114.182-1.121l-.6-.008L335,182.972Zm3.856-1.659c.816,0,1.384.807,1.268,1.8a1.921,1.921,0,0,1-1.686,1.8c-.815,0-1.383-.807-1.268-1.8a1.92,1.92,0,0,1,1.686-1.8Zm-.057.406c.589,0,1,.676.917,1.4s-.637,1.4-1.228,1.4-.993-.677-.909-1.4.629-1.4,1.22-1.4Zm1.777,3.122.485-.01h.036l.373-2.631,1.277,2.631h.406l.473-3.393h-.459l-.386,2.449-1.183-2.449h-.472l-.549,3.4Zm-10.35-3.528a1.232,1.232,0,0,1,.922.406l-.26.451a.9.9,0,0,0-.722-.358,1.414,1.414,0,0,0-1.268,1.3,1.061,1.061,0,0,0,.954,1.3,1.178,1.178,0,0,0,.826-.376v.573a1.529,1.529,0,0,1-.886.3,1.467,1.467,0,0,1-1.318-1.8,1.956,1.956,0,0,1,1.753-1.8Z" transform="translate(-306.013 -161.114)" fill="#fff" fill-rule="evenodd"/>
    </g>
    <g id="Group_559" data-name="Group 559" transform="translate(630.936 1311.069)">
      <g id="Group_557" data-name="Group 557" transform="translate(0 0)">
        <g id="Group_556" data-name="Group 556">
          <path id="Path_462" data-name="Path 462" d="M404.111,153.521H365.175a1.056,1.056,0,0,0-1.057,1.057v24.489a1.056,1.056,0,0,0,1.057,1.057h38.936a1.056,1.056,0,0,0,1.057-1.057V154.578A1.056,1.056,0,0,0,404.111,153.521Z" transform="translate(-364.118 -153.521)"/>
        </g>
      </g>
      <path id="Path_463" data-name="Path 463" d="M374.726,184.2v-1.856a1.1,1.1,0,0,0-1.164-1.176,1.145,1.145,0,0,0-1.04.526,1.086,1.086,0,0,0-.978-.526.979.979,0,0,0-.866.439v-.365h-.644V184.2h.65v-1.64a.692.692,0,0,1,.724-.786c.427,0,.644.278.644.78V184.2h.65v-1.64a.7.7,0,0,1,.724-.786c.44,0,.65.278.65.78V184.2Zm9.617-2.958h-1.052v-.9h-.65v.9h-.6v.588h.6v1.349c0,.687.266,1.1,1.027,1.1a1.511,1.511,0,0,0,.8-.229l-.185-.55a1.19,1.19,0,0,1-.57.166c-.322,0-.427-.2-.427-.495v-1.337h1.052Zm5.489-.074a.872.872,0,0,0-.78.433v-.359h-.637V184.2h.644v-1.659c0-.489.21-.761.631-.761a1.044,1.044,0,0,1,.4.074l.2-.606a1.365,1.365,0,0,0-.458-.081Zm-8.3.31a2.21,2.21,0,0,0-1.206-.31c-.749,0-1.232.359-1.232.947,0,.483.359.78,1.021.872l.3.044c.352.049.52.142.52.31,0,.229-.236.359-.674.359a1.576,1.576,0,0,1-.984-.31l-.3.5a2.131,2.131,0,0,0,1.281.384c.854,0,1.35-.4,1.35-.965,0-.52-.39-.792-1.034-.885l-.3-.043c-.278-.037-.5-.093-.5-.291,0-.217.21-.347.563-.347a1.908,1.908,0,0,1,.922.254Zm17.242-.31a.872.872,0,0,0-.78.433v-.359h-.637V184.2H398v-1.659c0-.489.211-.761.632-.761a1.04,1.04,0,0,1,.4.074l.2-.606a1.368,1.368,0,0,0-.458-.081Zm-8.293,1.553a1.494,1.494,0,0,0,1.579,1.553,1.548,1.548,0,0,0,1.064-.353l-.309-.52a1.3,1.3,0,0,1-.774.266.949.949,0,0,1,0-1.894,1.3,1.3,0,0,1,.774.266l.309-.52a1.548,1.548,0,0,0-1.064-.353,1.494,1.494,0,0,0-1.579,1.553Zm6.028,0v-1.479h-.643v.359a1.123,1.123,0,0,0-.935-.433,1.555,1.555,0,0,0,0,3.106,1.121,1.121,0,0,0,.935-.433v.359h.643Zm-2.395,0a.9.9,0,1,1,.9.947.888.888,0,0,1-.9-.947Zm-7.767-1.553a1.554,1.554,0,0,0,.044,3.106,1.8,1.8,0,0,0,1.213-.414l-.315-.477a1.408,1.408,0,0,1-.861.31.822.822,0,0,1-.885-.724h2.2c.007-.081.012-.161.012-.248a1.418,1.418,0,0,0-1.4-1.553Zm-.012.576a.735.735,0,0,1,.749.718h-1.535a.761.761,0,0,1,.786-.718Zm16.146.978v-2.667h-.643V181.6a1.123,1.123,0,0,0-.935-.433,1.555,1.555,0,0,0,0,3.106,1.121,1.121,0,0,0,.935-.433v.359h.643Zm-2.395,0a.9.9,0,1,1,.9.947.888.888,0,0,1-.9-.947Zm-21.735,0v-1.479h-.644v.359a1.123,1.123,0,0,0-.935-.433,1.555,1.555,0,0,0,0,3.106,1.121,1.121,0,0,0,.935-.433v.359h.644Zm-2.4,0a.9.9,0,1,1,.9.947A.888.888,0,0,1,375.958,182.722Z" transform="translate(-365.735 -160.77)" fill="#fff"/>
      <g id="Group_558" data-name="Group 558" transform="translate(8.939 2.982)">
        <ellipse id="Ellipse_83" data-name="Ellipse 83" cx="7.17" cy="7.17" rx="7.17" ry="7.17" fill="#fff" opacity="0.9"/>
        <ellipse id="Ellipse_84" data-name="Ellipse 84" cx="7.17" cy="7.17" rx="7.17" ry="7.17" transform="translate(8.83)" fill="#fff" opacity="0.6"/>
      </g>
    </g>
  </g>
</svg>
