<svg xmlns="http://www.w3.org/2000/svg" width="14.395" height="14.395" viewBox="0 0 14.395 14.395">
  <path id="Icon_material-language" data-name="Icon material-language" d="M10.19,3a7.2,7.2,0,1,0,7.2,7.2A7.194,7.194,0,0,0,10.19,3Zm4.988,4.318H13.055a11.263,11.263,0,0,0-.993-2.562A5.779,5.779,0,0,1,15.178,7.318ZM10.2,4.468a10.139,10.139,0,0,1,1.375,2.85H8.823A10.139,10.139,0,0,1,10.2,4.468ZM4.627,11.637a5.63,5.63,0,0,1,0-2.879H7.059a11.887,11.887,0,0,0-.1,1.439,11.887,11.887,0,0,0,.1,1.439Zm.59,1.439H7.34a11.263,11.263,0,0,0,.993,2.562A5.748,5.748,0,0,1,5.217,13.076ZM7.34,7.318H5.217A5.748,5.748,0,0,1,8.333,4.756,11.263,11.263,0,0,0,7.34,7.318ZM10.2,15.926a10.139,10.139,0,0,1-1.375-2.85h2.749A10.139,10.139,0,0,1,10.2,15.926Zm1.684-4.29H8.513A10.589,10.589,0,0,1,8.4,10.2a10.5,10.5,0,0,1,.115-1.439h3.368A10.5,10.5,0,0,1,12,10.2,10.589,10.589,0,0,1,11.882,11.637Zm.18,4a11.263,11.263,0,0,0,.993-2.562h2.123A5.779,5.779,0,0,1,12.061,15.639Zm1.274-4a11.887,11.887,0,0,0,.1-1.439,11.887,11.887,0,0,0-.1-1.439h2.433a5.63,5.63,0,0,1,0,2.879Z" transform="translate(-3 -3)"/>
</svg>
