<svg xmlns="http://www.w3.org/2000/svg" width="165.963" height="48.335" viewBox="0 0 165.963 48.335">
  <g id="Group_93" data-name="Group 93" transform="translate(-53.775 -116.411)">
    <path id="Path_133" data-name="Path 133" d="M55.336,158.087h5.752a3.212,3.212,0,0,0,3.486-3.147c0-1.992-1.154-3.216-3.486-3.216H55.336ZM53.8,150.412h7.4c2.649,0,4.914,1.29,4.914,4.211a3.886,3.886,0,0,1-3.147,4.122v.045c2.105.295,2.717,1.7,2.83,3.645.068,1.109.068,3.351.748,4.143h-1.7a7.209,7.209,0,0,1-.431-2.513c-.113-2.264-.34-4.777-3.238-4.664H55.336v7.177H53.8Z" transform="translate(-0.001 -2.172)" fill="#fff"/>
    <path id="Path_134" data-name="Path 134" d="M83.453,150.412H94.615v1.313H84.993v5.842H94v1.314H84.993v6.385h9.736v1.313H83.453Z" transform="translate(-1.896 -2.172)" fill="#fff"/>
    <path id="Path_135" data-name="Path 135" d="M111.988,161.234c-.068,3.329,2.309,4.347,5.275,4.347,1.7,0,4.279-.928,4.279-3.283,0-1.834-1.811-2.558-3.328-2.922l-3.6-.882c-1.9-.476-3.646-1.358-3.646-3.9,0-1.584,1.019-4.551,5.57-4.551,3.216,0,5.977,1.7,5.977,5.026h-1.539c-.113-2.445-2.106-3.713-4.415-3.713-2.106,0-4.053.815-4.053,3.215,0,1.517,1.109,2.174,2.445,2.469l3.94.974c2.286.61,4.188,1.63,4.188,4.256,0,1.11-.453,4.62-6.181,4.62-3.827,0-6.634-1.722-6.453-5.661Z" transform="translate(-3.619 -2.148)" fill="#fff"/>
    <path id="Path_136" data-name="Path 136" d="M141.621,158.336h5.3c2.151,0,3.6-1.064,3.6-3.305s-1.448-3.306-3.6-3.306h-5.3Zm-1.539-7.924h7.176c2.9,0,4.8,1.7,4.8,4.619s-1.9,4.619-4.8,4.619h-5.637v6.928h-1.539Z" transform="translate(-5.512 -2.172)" fill="#fff"/>
    <rect id="Rectangle_167" data-name="Rectangle 167" width="1.54" height="16.166" transform="translate(161.606 148.241)" fill="#fff"/>
    <path id="Path_137" data-name="Path 137" d="M189.275,158.087h5.751a3.212,3.212,0,0,0,3.487-3.147c0-1.992-1.155-3.216-3.487-3.216h-5.751Zm-1.54-7.675h7.4c2.648,0,4.914,1.29,4.914,4.211a3.886,3.886,0,0,1-3.147,4.122v.045c2.105.295,2.717,1.7,2.83,3.645.068,1.109.068,3.351.747,4.143h-1.7a7.228,7.228,0,0,1-.43-2.513c-.113-2.264-.34-4.777-3.238-4.664h-5.841v7.177h-1.54Z" transform="translate(-8.556 -2.172)" fill="#fff"/>
    <path id="Path_138" data-name="Path 138" d="M225.919,160.238l-3.125-8.286-3.238,8.286ZM222,150.412h1.721l6.339,16.166H228.41l-1.97-5.026h-7.359l-1.948,5.026H215.48Z" transform="translate(-10.328 -2.172)" fill="#fff"/>
    <path id="Path_139" data-name="Path 139" d="M162.473,139.252c-6.572,0-11.9-4.26-11.9-9.518s5.327-9.52,11.9-9.52,11.9,4.261,11.9,9.52-5.328,9.518-11.9,9.518m-.018-22.841c-11.8,0-21.373,5.95-21.373,13.288s9.569,13.29,21.373,13.29,21.372-5.95,21.372-13.29-9.567-13.288-21.372-13.288" transform="translate(-5.576 0)" fill="#fff"/>
    <path id="Path_140" data-name="Path 140" d="M94.614,127.8H73.7a.957.957,0,0,0-.938.968v1.883a.958.958,0,0,0,.938.966l12.282,0a.665.665,0,0,1,.661.671,1.283,1.283,0,0,1-.072.32c-1.4,3.858-5.71,7.031-11.566,7.031-6.583,0-11.735-4.657-11.735-9.9s5.152-9.854,12.168-9.854c4.743,0,7.328,2.232,9.329,3.647a1.751,1.751,0,0,0,1.139.478h8.79a.679.679,0,0,0,.676-.688c0-.446-.478-.78-.771-1.058-2.49-2.351-9.193-5.849-16.8-5.849H75.416c-11.953,0-21.641,5.95-21.641,13.288s9.386,13.289,21.338,13.289S96.52,137.04,96.52,129.7a1.9,1.9,0,0,0-1.906-1.9" transform="translate(0 0)" fill="#fff"/>
    <path id="Path_141" data-name="Path 141" d="M211.994,129.723a1.262,1.262,0,0,1,.66-1.054l15.14-9.905a.7.7,0,0,0,.348-.634.732.732,0,0,0-.763-.74H216.061a2.443,2.443,0,0,0-1.589.708l-6.525,7.273a1.578,1.578,0,0,1-1.2.575,1.6,1.6,0,0,1-1.2-.575l-6.524-7.273a2.438,2.438,0,0,0-1.59-.708H186.121a.733.733,0,0,0-.765.74.708.708,0,0,0,.348.634l15.141,9.905a1.173,1.173,0,0,1,0,2.11L185.7,140.685a.706.706,0,0,0-.348.632.732.732,0,0,0,.765.741h11.316a2.438,2.438,0,0,0,1.59-.708l6.524-7.273a1.6,1.6,0,0,1,1.2-.575,1.575,1.575,0,0,1,1.2.575l6.525,7.273a2.444,2.444,0,0,0,1.589.708h11.318a.732.732,0,0,0,.763-.741.7.7,0,0,0-.348-.632l-15.14-9.906a1.261,1.261,0,0,1-.66-1.056" transform="translate(-8.404 -0.062)" fill="#fff"/>
    <path id="Path_142" data-name="Path 142" d="M136.594,117.391l-30.524,0a1.9,1.9,0,0,0-1.9,1.9v20.952a1.906,1.906,0,0,0,1.9,1.9h30.524a.954.954,0,0,0,.949-.953v-1.9a.953.953,0,0,0-.949-.949H114.656a.954.954,0,0,1-.95-.949v-4.769a.953.953,0,0,1,.95-.949H132.78a.952.952,0,0,0,.949-.951v-1.9a.951.951,0,0,0-.949-.95H114.656a.954.954,0,0,1-.95-.951v-4.767a.955.955,0,0,1,.95-.951h21.938a.952.952,0,0,0,.949-.949v-1.9a.952.952,0,0,0-.949-.949" transform="translate(-3.219 -0.062)" fill="#fff"/>
  </g>
</svg>
