<svg xmlns="http://www.w3.org/2000/svg" width="241.674" height="61.783" viewBox="0 0 241.674 61.783">
  <g id="Group_899" data-name="Group 899" transform="translate(-6.457 -228.691)">
    <path id="Path_640" data-name="Path 640" d="M19.807,228.691a7.944,7.944,0,1,1-7.943,7.944A7.945,7.945,0,0,1,19.807,228.691Z" transform="translate(-2.426 0)" fill="#1a1818" fill-rule="evenodd"/>
    <g id="Group_899-2" data-name="Group 899" transform="translate(6.457 250.54)">
      <path id="Path_641" data-name="Path 641" d="M57.6,292.533q-1.12,0-1.119,1.287v13.239q0,1.292,1.119,1.291c.745,0,1.114-.43,1.114-1.291V293.82C58.718,292.961,58.348,292.533,57.6,292.533Z" transform="translate(-28.899 -279.179)" fill="#1a1818"/>
      <path id="Path_642" data-name="Path 642" d="M22.107,304.634v7.183c0,.861.377,1.291,1.12,1.291s1.122-.43,1.122-1.291v-8.679C22.845,303.409,22.1,303.909,22.107,304.634Z" transform="translate(-13.478 -283.936)" fill="#1a1818"/>
      <path id="Path_643" data-name="Path 643" d="M48.645,268.315a4.507,4.507,0,0,1,.122,1.039,4.421,4.421,0,0,1-4.423,4.425h0a4.426,4.426,0,0,1-4.426-4.425c0-.1,0-.194.01-.289-10.283,2.222-19.076,7.993-33.47,3.176v29.474h.006A6.538,6.538,0,0,0,13,308.249H45.709a6.537,6.537,0,0,0,6.533-6.535l.006-32.957A28.5,28.5,0,0,0,48.645,268.315ZM21.2,300.209H17.328v-.768c-.3.693-1.213,1.039-2.734,1.039q-3.376,0-3.377-2.994v-7.639A3.651,3.651,0,0,1,12,287.533a12.471,12.471,0,0,1,3.367-2.463q1.8-.849,1.966-1.364v-3.3q0-1.3-1.122-1.294c-.743,0-1.12.43-1.12,1.294v3.641h-3.87v-3.641a3.826,3.826,0,0,1,.9-2.689,30.121,30.121,0,0,0,8.623.626,4.288,4.288,0,0,1,.458,2.062Zm6.467,0H23.8V277.989c1.321-.213,2.605-.491,3.871-.805Zm12.48-4.014c0,1.7-.366,2.824-1.108,3.368a4.543,4.543,0,0,1-2.747.813,3.4,3.4,0,0,1-2.249-.83v.662h-3.87V276.517c1.3-.366,2.583-.75,3.87-1.119v4.294a5.782,5.782,0,0,1,3.1-.745,3.327,3.327,0,0,1,2.092.714q.916.715.916,3.3Zm6.4,4.014H42.714V276.39h3.829Z" transform="translate(-6.457 -268.315)" fill="#1a1818"/>
    </g>
    <path id="Path_644" data-name="Path 644" d="M52.248,240.75v10.184c-21.036-1.368-25.861,14.808-45.791,5.522v-7.1C26.157,259.992,31.441,239.449,52.248,240.75Z" transform="translate(0 -5.383)" fill="#1a1818"/>
    <path id="Path_645" data-name="Path 645" d="M72.446,264.138a3.341,3.341,0,1,1-3.34,3.341A3.342,3.342,0,0,1,72.446,264.138Z" transform="translate(-28.104 -15.902)" fill="#1a1818" fill-rule="evenodd"/>
    <path id="Path_646" data-name="Path 646" d="M107.593,269.242h4.258V279.2h.068a5.671,5.671,0,0,1,2.095-1.923,5.728,5.728,0,0,1,2.885-.755c2.85,0,5.837,1.888,5.837,7.245v9.856h-4.224v-9.376c0-2.437-.892-4.258-3.228-4.258a3.448,3.448,0,0,0-3.263,2.37,3.568,3.568,0,0,0-.171,1.27v9.994h-4.258Z" transform="translate(-45.37 -18.191)" fill="#1a1818"/>
    <path id="Path_647" data-name="Path 647" d="M146.583,272.789a2.371,2.371,0,1,1-2.369-2.3A2.238,2.238,0,0,1,146.583,272.789Z" transform="translate(-60.735 -18.75)" fill="#1a1818"/>
    <rect id="Rectangle_2031" data-name="Rectangle 2031" width="4.258" height="16.725" transform="translate(81.35 258.708)" fill="#1a1818"/>
    <path id="Path_648" data-name="Path 648" d="M157.177,288.386c0-2.2-.068-3.984-.137-5.564h3.709l.206,2.576h.069a6.513,6.513,0,0,1,5.735-2.953c3.847,0,7.04,3.3,7.04,8.516,0,6.044-3.812,8.964-7.625,8.964a5.5,5.5,0,0,1-4.7-2.233H161.4v8.653h-4.224Zm4.224,4.156a4.35,4.35,0,0,0,.138,1.167,3.818,3.818,0,0,0,3.708,2.953c2.679,0,4.258-2.232,4.258-5.528,0-2.954-1.443-5.358-4.155-5.358a3.938,3.938,0,0,0-3.778,3.125,3.826,3.826,0,0,0-.171,1.064Z" transform="translate(-67.552 -24.115)" fill="#1a1818"/>
    <path id="Path_649" data-name="Path 649" d="M194.906,292.37c.1,3.022,2.472,4.327,5.151,4.327a12.6,12.6,0,0,0,4.636-.755l.618,2.919a15.756,15.756,0,0,1-5.838,1.03c-5.425,0-8.619-3.331-8.619-8.448,0-4.636,2.816-9,8.173-9,5.426,0,7.212,4.464,7.212,8.138a10.475,10.475,0,0,1-.137,1.785Zm7.348-2.953c.035-1.546-.652-4.087-3.468-4.087-2.609,0-3.709,2.371-3.881,4.087Z" transform="translate(-82.721 -24.115)" fill="#1a1818"/>
    <path id="Path_650" data-name="Path 650" d="M223.873,288.215c0-2.266-.034-3.881-.137-5.392h3.673l.138,3.194h.138a4.986,4.986,0,0,1,4.567-3.571,4.419,4.419,0,0,1,1,.1v3.983a5.922,5.922,0,0,0-1.236-.137,3.725,3.725,0,0,0-3.777,3.193,7.231,7.231,0,0,0-.137,1.306v8.654h-4.224Z" transform="translate(-97.472 -24.115)" fill="#1a1818"/>
    <path id="Path_651" data-name="Path 651" d="M245.108,287.8c0-1.923-.034-3.536-.137-4.98h3.64l.171,2.473h.1a5.786,5.786,0,0,1,5.151-2.849,4.82,4.82,0,0,1,4.636,3.091h.068a6.324,6.324,0,0,1,2.061-2.095,5.578,5.578,0,0,1,3.365-1c2.782,0,5.6,1.888,5.6,7.245v9.856h-4.121V290.31c0-2.782-.962-4.43-2.987-4.43a3.223,3.223,0,0,0-2.954,2.233,6.076,6.076,0,0,0-.206,1.407v10.029h-4.121v-9.685c0-2.335-.927-3.984-2.884-3.984a3.3,3.3,0,0,0-3.022,2.4,3.583,3.583,0,0,0-.242,1.373v9.891h-4.121Z" transform="translate(-106.998 -24.115)" fill="#1a1818"/>
    <path id="Path_652" data-name="Path 652" d="M305.555,299.548l-.275-1.854h-.1a6.216,6.216,0,0,1-4.945,2.233,4.966,4.966,0,0,1-5.255-4.98c0-4.225,3.743-6.353,9.924-6.32v-.273c0-1.1-.446-2.92-3.4-2.92a8.868,8.868,0,0,0-4.5,1.236l-.824-2.747a12.044,12.044,0,0,1,6.044-1.476c5.357,0,6.9,3.4,6.9,7.04v6.044a26.859,26.859,0,0,0,.24,4.018Zm-.55-8.173c-2.987-.07-5.837.583-5.837,3.124a2.216,2.216,0,0,0,2.4,2.4,3.423,3.423,0,0,0,3.3-2.3,3.049,3.049,0,0,0,.137-.928Z" transform="translate(-129.43 -24.115)" fill="#1a1818"/>
    <path id="Path_653" data-name="Path 653" d="M327.685,288.215c0-2.266-.034-3.881-.136-5.392h3.674l.137,3.194h.138a4.986,4.986,0,0,1,4.567-3.571,4.44,4.44,0,0,1,1,.1v3.983a5.941,5.941,0,0,0-1.237-.137,3.724,3.724,0,0,0-3.777,3.193,7.126,7.126,0,0,0-.138,1.306v8.654h-4.224Z" transform="translate(-144.042 -24.115)" fill="#1a1818"/>
    <path id="Path_654" data-name="Path 654" d="M353.255,284.248h.069c.412-.653.893-1.373,1.34-1.957l4.052-5.392H363.8l-6.182,6.834,7.075,9.891H359.5l-4.807-7.384-1.443,1.683v5.7h-4.224V269.242h4.224Z" transform="translate(-153.679 -18.191)" fill="#1a1818"/>
    <path id="Path_655" data-name="Path 655" d="M381.481,292.37c.1,3.022,2.473,4.327,5.151,4.327a12.6,12.6,0,0,0,4.636-.755l.618,2.919a15.755,15.755,0,0,1-5.838,1.03c-5.425,0-8.619-3.331-8.619-8.448,0-4.636,2.815-9,8.173-9,5.426,0,7.211,4.464,7.211,8.138a10.369,10.369,0,0,1-.137,1.785Zm7.349-2.953c.035-1.546-.652-4.087-3.468-4.087-2.609,0-3.708,2.371-3.881,4.087Z" transform="translate(-166.418 -24.115)" fill="#1a1818"/>
    <path id="Path_656" data-name="Path 656" d="M414.033,274.474v4.772h4.018v3.16h-4.018v7.384c0,2.026.549,3.091,2.164,3.091a6.263,6.263,0,0,0,1.648-.206l.068,3.228a9.278,9.278,0,0,1-3.056.411,4.894,4.894,0,0,1-3.641-1.373c-.893-.962-1.3-2.473-1.3-4.67v-7.865h-2.4v-3.16h2.4V275.47Z" transform="translate(-179.912 -20.538)" fill="#1a1818"/>
    <path id="Path_657" data-name="Path 657" d="M273.961,327.743l-6.875-.035c-1.709-.1,1.735-.158.018-.26s-8.589-.113-10.3-.186c-5.165-.11,3.446-.1,8.6-.01-1.717-.086,3.438.053,3.44,0,.008-.105.021-.215-6.858-.47-1.721-.071.006-.133.013-.2-10.338-.271-21.133-.4-31.925-.341s-21.58.3-31.884.73c-8.594.347-18.09.721-27.524,1.236s-18.8,1.179-27.131,1.958c-2.529.237-5.909.511-9.055.813s-6.066.618-7.7.853l5.012-.516c-4.981.573-10.019,1.041-14.955,1.662.017.026.025.039-1.622.245,3.3-.394,8.274-.962,11.634-1.275l.034.067c-3.337.346-8.351.84-11.646,1.238l.026.043c.008.007-.577.073-1.389.163,1.636-.18,3.57-.387,4.723-.5l.035.058c.007.014-1.66.178-3.332.348.019.022-1.639.2.041.052l5.022-.465c-6.686.637-10.01.993-10.006,1,1.677-.157,1.692-.134,3.371-.281-5.023.464-10.134.82-3.344.32,29.623-2.234,59.7-3.667,89.968-4.619,30.264-.937,60.649-1.382,90.785-1.4h1.722c-6.885-.06-13.762-.046-18.909-.09C272.228,327.874,275.671,327.795,273.961,327.743Zm-160.086,5.72c-.732.079-1.409.156-1.92.214C112.634,333.6,113.308,333.525,113.875,333.463ZM292.86,327.97h0l.427.016Z" transform="translate(-45.154 -43.757)" fill="#1a1818"/>
  </g>
</svg>
