<svg xmlns="http://www.w3.org/2000/svg" width="21.809" height="21.809" viewBox="0 0 21.809 21.809">
  <path id="Icon_simple-instagram" data-name="Icon simple-instagram" d="M10.9,0c-2.962,0-3.332.014-4.5.065A8.041,8.041,0,0,0,3.762.572,5.34,5.34,0,0,0,1.83,1.83,5.321,5.321,0,0,0,.572,3.762,8.017,8.017,0,0,0,.065,6.409C.011,7.572,0,7.942,0,10.9s.014,3.332.065,4.5a8.046,8.046,0,0,0,.507,2.647A5.348,5.348,0,0,0,1.83,19.979a5.332,5.332,0,0,0,1.932,1.258,8.051,8.051,0,0,0,2.647.507c1.163.055,1.533.065,4.5.065s3.332-.014,4.5-.065a8.069,8.069,0,0,0,2.647-.507,5.573,5.573,0,0,0,3.19-3.19,8.046,8.046,0,0,0,.507-2.647c.055-1.163.065-1.533.065-4.5s-.014-3.332-.065-4.5a8.064,8.064,0,0,0-.507-2.647A5.352,5.352,0,0,0,19.979,1.83,5.313,5.313,0,0,0,18.047.572,8.022,8.022,0,0,0,15.4.065C14.237.011,13.867,0,10.9,0Zm0,1.963c2.911,0,3.258.015,4.407.065a6.008,6.008,0,0,1,2.024.377,3.588,3.588,0,0,1,2.07,2.069A6.021,6.021,0,0,1,19.781,6.5c.052,1.15.064,1.5.064,4.407s-.014,3.258-.067,4.407a6.137,6.137,0,0,1-.383,2.024,3.462,3.462,0,0,1-.817,1.256,3.4,3.4,0,0,1-1.254.814,6.065,6.065,0,0,1-2.031.375c-1.158.052-1.5.064-4.415.064s-3.259-.014-4.415-.067a6.183,6.183,0,0,1-2.032-.383,3.377,3.377,0,0,1-1.253-.817,3.311,3.311,0,0,1-.818-1.254,6.188,6.188,0,0,1-.382-2.031c-.041-1.145-.055-1.5-.055-4.4s.015-3.259.055-4.417a6.181,6.181,0,0,1,.382-2.03,3.232,3.232,0,0,1,.818-1.255A3.225,3.225,0,0,1,4.43,2.373,6.035,6.035,0,0,1,6.448,1.99c1.159-.041,1.5-.055,4.415-.055l.041.027Zm0,3.342a5.6,5.6,0,1,0,5.6,5.6A5.6,5.6,0,0,0,10.9,5.3Zm0,9.234A3.635,3.635,0,1,1,14.539,10.9,3.634,3.634,0,0,1,10.9,14.539Zm7.13-9.455a1.309,1.309,0,1,1-1.309-1.308A1.309,1.309,0,0,1,18.034,5.084Z" transform="translate(0 0)"/>
</svg>
