<svg id="Group_559" data-name="Group 559" xmlns="http://www.w3.org/2000/svg" width="41.049" height="26.603" viewBox="0 0 41.049 26.603">
  <g id="Group_557" data-name="Group 557" transform="translate(0 0)">
    <g id="Group_556" data-name="Group 556">
      <path id="Path_462" data-name="Path 462" d="M404.111,153.521H365.175a1.056,1.056,0,0,0-1.057,1.057v24.489a1.056,1.056,0,0,0,1.057,1.057h38.936a1.056,1.056,0,0,0,1.057-1.057V154.578A1.056,1.056,0,0,0,404.111,153.521Z" transform="translate(-364.118 -153.521)"/>
    </g>
  </g>
  <path id="Path_463" data-name="Path 463" d="M374.726,184.2v-1.856a1.1,1.1,0,0,0-1.164-1.176,1.145,1.145,0,0,0-1.04.526,1.086,1.086,0,0,0-.978-.526.979.979,0,0,0-.866.439v-.365h-.644V184.2h.65v-1.64a.692.692,0,0,1,.724-.786c.427,0,.644.278.644.78V184.2h.65v-1.64a.7.7,0,0,1,.724-.786c.44,0,.65.278.65.78V184.2Zm9.617-2.958h-1.052v-.9h-.65v.9h-.6v.588h.6v1.349c0,.687.266,1.1,1.027,1.1a1.511,1.511,0,0,0,.8-.229l-.185-.55a1.19,1.19,0,0,1-.57.166c-.322,0-.427-.2-.427-.495v-1.337h1.052Zm5.489-.074a.872.872,0,0,0-.78.433v-.359h-.637V184.2h.644v-1.659c0-.489.21-.761.631-.761a1.044,1.044,0,0,1,.4.074l.2-.606a1.365,1.365,0,0,0-.458-.081Zm-8.3.31a2.21,2.21,0,0,0-1.206-.31c-.749,0-1.232.359-1.232.947,0,.483.359.78,1.021.872l.3.044c.352.049.52.142.52.31,0,.229-.236.359-.674.359a1.576,1.576,0,0,1-.984-.31l-.3.5a2.131,2.131,0,0,0,1.281.384c.854,0,1.35-.4,1.35-.965,0-.52-.39-.792-1.034-.885l-.3-.043c-.278-.037-.5-.093-.5-.291,0-.217.21-.347.563-.347a1.908,1.908,0,0,1,.922.254Zm17.242-.31a.872.872,0,0,0-.78.433v-.359h-.637V184.2H398v-1.659c0-.489.211-.761.632-.761a1.04,1.04,0,0,1,.4.074l.2-.606a1.368,1.368,0,0,0-.458-.081Zm-8.293,1.553a1.494,1.494,0,0,0,1.579,1.553,1.548,1.548,0,0,0,1.064-.353l-.309-.52a1.3,1.3,0,0,1-.774.266.949.949,0,0,1,0-1.894,1.3,1.3,0,0,1,.774.266l.309-.52a1.548,1.548,0,0,0-1.064-.353,1.494,1.494,0,0,0-1.579,1.553Zm6.028,0v-1.479h-.643v.359a1.123,1.123,0,0,0-.935-.433,1.555,1.555,0,0,0,0,3.106,1.121,1.121,0,0,0,.935-.433v.359h.643Zm-2.395,0a.9.9,0,1,1,.9.947.888.888,0,0,1-.9-.947Zm-7.767-1.553a1.554,1.554,0,0,0,.044,3.106,1.8,1.8,0,0,0,1.213-.414l-.315-.477a1.408,1.408,0,0,1-.861.31.822.822,0,0,1-.885-.724h2.2c.007-.081.012-.161.012-.248a1.418,1.418,0,0,0-1.4-1.553Zm-.012.576a.735.735,0,0,1,.749.718h-1.535a.761.761,0,0,1,.786-.718Zm16.146.978v-2.667h-.643V181.6a1.123,1.123,0,0,0-.935-.433,1.555,1.555,0,0,0,0,3.106,1.121,1.121,0,0,0,.935-.433v.359h.643Zm-2.395,0a.9.9,0,1,1,.9.947.888.888,0,0,1-.9-.947Zm-21.735,0v-1.479h-.644v.359a1.123,1.123,0,0,0-.935-.433,1.555,1.555,0,0,0,0,3.106,1.121,1.121,0,0,0,.935-.433v.359h.644Zm-2.4,0a.9.9,0,1,1,.9.947A.888.888,0,0,1,375.958,182.722Z" transform="translate(-365.735 -160.77)" fill="#fff"/>
  <g id="Group_558" data-name="Group 558" transform="translate(8.939 2.982)">
    <ellipse id="Ellipse_83" data-name="Ellipse 83" cx="7.17" cy="7.17" rx="7.17" ry="7.17" fill="#fff" opacity="0.9"/>
    <ellipse id="Ellipse_84" data-name="Ellipse 84" cx="7.17" cy="7.17" rx="7.17" ry="7.17" transform="translate(8.83)" fill="#fff" opacity="0.6"/>
  </g>
</svg>
