<svg xmlns="http://www.w3.org/2000/svg" width="92.53" height="33.302" viewBox="0 0 92.53 33.302">
  <path id="Path_234" data-name="Path 234" d="M561.71,340.845c-6.021,7.07-11.794,15.84-11.853,22.394a7.765,7.765,0,0,0,2.653,6.251,12.88,12.88,0,0,0,8.692,3.18c4.355.005,8.679-1.751,12.064-3.105,5.7-2.28,68.73-29.651,68.73-29.651.608-.3.494-.684-.266-.494-.307.077-68.617,18.589-68.617,18.589a15.088,15.088,0,0,1-3.975.569c-5.25.03-9.921-2.883-9.883-9.024a20.146,20.146,0,0,1,2.455-8.708Z" transform="translate(-549.856 -339.368)" fill="#fff" fill-rule="evenodd"/>
</svg>
