<svg width="30" height="19" viewBox="0 0 30 19" fill="none" xmlns="http://www.w3.org/2000/svg">
<path d="M9.8045 2.14462L8.95158 1.2729C8.59929 0.912812 8.02451 0.893842 7.67222 1.25393C7.67222 1.25393 7.67223 1.25395 7.65369 1.2729L0.274215 8.83476C-0.0780723 9.19484 -0.0966309 9.78236 0.255656 10.1425C0.255656 10.1425 0.255674 10.1425 0.274215 10.1614L7.67222 17.7233C8.02451 18.0834 8.59929 18.1023 8.95158 17.7423C8.95158 17.7423 8.95157 17.7422 8.97011 17.7233L9.82303 16.8514C10.1753 16.4914 10.1753 15.8849 9.8045 15.5248L5.20621 11.0521L29.0876 11.0521C29.5882 11.0521 29.9961 10.6352 29.9961 10.1235L29.9961 8.8727C29.9961 8.36099 29.5882 7.94395 29.0876 7.94395L5.18768 7.94395L9.78594 3.49026C10.1568 3.13017 10.1753 2.54265 9.82303 2.18256C9.82303 2.16361 9.8045 2.14462 9.8045 2.14462Z" fill="black"/>
</svg>
