<svg id="Group_555" data-name="Group 555" xmlns="http://www.w3.org/2000/svg" width="41.049" height="26.603" viewBox="0 0 41.049 26.603">
  <g id="Group_552" data-name="Group 552" transform="translate(0 0)">
    <g id="Group_551" data-name="Group 551">
      <path id="Path_459" data-name="Path 459" d="M340.256,153.521H301.32a1.056,1.056,0,0,0-1.057,1.057v24.489a1.056,1.056,0,0,0,1.057,1.057h38.936a1.056,1.056,0,0,0,1.057-1.057V154.578A1.056,1.056,0,0,0,340.256,153.521Zm-36.814,8.039h4.381a1.137,1.137,0,0,1,1.231.842l.953,4.582c-.936-2.4-3.192-4.391-6.6-5.217Zm5.3,10.451-2.531-8.646a11.1,11.1,0,0,1,3.915,4.3l.3,1.068,2.768-7.071h2.994l-4.45,10.35Zm9.642.007h-2.826l1.767-10.37h2.827Zm4.917.156a8.945,8.945,0,0,1-3.148-.554l.4-2.321.364.165a5.922,5.922,0,0,0,2.661.544c.812,0,1.682-.318,1.69-1.012.005-.454-.364-.778-1.465-1.287-1.073-.5-2.493-1.327-2.475-2.816.015-2.015,1.983-3.422,4.776-3.422a7.294,7.294,0,0,1,2.531.435l-.382,2.248-.255-.12a5.215,5.215,0,0,0-2.115-.4c-1.106,0-1.619.461-1.619.892-.006.486.6.805,1.587,1.286,1.63.74,2.384,1.637,2.374,2.817C328.2,170.785,326.273,172.174,323.3,172.174Zm12.246-.151s-.258-1.192-.344-1.554l-3.619,0c-.11.28-.594,1.558-.594,1.558h-2.967l4.2-9.5a1.407,1.407,0,0,1,1.48-.861h2.183l2.287,10.363Z" transform="translate(-300.263 -153.521)"/>
    </g>
  </g>
  <g id="Group_554" data-name="Group 554" transform="translate(32.134 10.935)">
    <g id="Group_553" data-name="Group 553">
      <path id="Path_460" data-name="Path 460" d="M346.169,169.461l-.19-.894c-.144.39-.392,1.018-.376.99,0,0-.893,2.3-1.126,2.9h2.347C346.71,171.936,346.169,169.461,346.169,169.461Z" transform="translate(-344.477 -168.567)"/>
    </g>
  </g>
  <path id="Path_461" data-name="Path 461" d="M321.308,184.841h.486v0l1.281-.008.065-.481-1.281.007.141-1.031.975-.008.065-.481-.974.008.126-.927,1.241-.008.064-.482-1.725.01-.464,3.4Zm4.683,0h.485v0l1.281-.008.065-.481-1.281.007.141-1.031.975-.008.064-.481-.974.008.127-.927,1.24-.008.064-.482-1.725.01-.464,3.4Zm-2.316,0h.486v0l1.282-.008.064-.481-1.28.007.45-2.93-.537.01-.464,3.4Zm8.482,0h.486v0l.035-.008.371-2.914,1.064-.008.065-.482-2.508.01-.065.48h.956l-.4,2.924Zm2.072,0,.486-.01h.036l.178-1.44h.262l.783,1.441h.525l-.768-1.439c.964-.238,1.244-1.975.039-1.965l-1.034.01-.507,3.4Zm.767-1.869h.559c.447,0,.72-1.114.182-1.121l-.6-.008L335,182.972Zm3.856-1.659c.816,0,1.384.807,1.268,1.8a1.921,1.921,0,0,1-1.686,1.8c-.815,0-1.383-.807-1.268-1.8a1.92,1.92,0,0,1,1.686-1.8Zm-.057.406c.589,0,1,.676.917,1.4s-.637,1.4-1.228,1.4-.993-.677-.909-1.4.629-1.4,1.22-1.4Zm1.777,3.122.485-.01h.036l.373-2.631,1.277,2.631h.406l.473-3.393h-.459l-.386,2.449-1.183-2.449h-.472l-.549,3.4Zm-10.35-3.528a1.232,1.232,0,0,1,.922.406l-.26.451a.9.9,0,0,0-.722-.358,1.414,1.414,0,0,0-1.268,1.3,1.061,1.061,0,0,0,.954,1.3,1.178,1.178,0,0,0,.826-.376v.573a1.529,1.529,0,0,1-.886.3,1.467,1.467,0,0,1-1.318-1.8,1.956,1.956,0,0,1,1.753-1.8Z" transform="translate(-306.013 -161.114)" fill="#fff" fill-rule="evenodd"/>
</svg>
