<?xml version="1.0" encoding="utf-8"?>
<!-- Generator: Adobe Illustrator 22.1.0, SVG Export Plug-In . SVG Version: 6.00 Build 0)  -->
<svg version="1.1" id="_360-degrees" xmlns="http://www.w3.org/2000/svg" xmlns:xlink="http://www.w3.org/1999/xlink" x="0px"
	 y="0px" viewBox="0 0 24 17.8" style="enable-background:new 0 0 24 17.8;" xml:space="preserve">
<style type="text/css">
	.st0{fill:#FFFFFF;}
</style>
<path id="Path_565" class="st0" d="M15.1,15.7c-0.4,0-0.7-0.3-0.7-0.7c0-0.4,0.3-0.7,0.7-0.7c2-0.2,3.9-0.8,5.6-1.7
	c1.3-0.7,2-1.6,2-2.5c-0.1-0.9-0.7-1.7-1.5-2.2c-0.3-0.2-0.4-0.7-0.2-1s0.7-0.4,1-0.2c1.2,0.7,2,1.9,2.1,3.3c0,1.4-0.9,2.6-2.7,3.7
	C19.4,14.9,17.3,15.5,15.1,15.7C15.2,15.7,15.1,15.7,15.1,15.7z"/>
<path id="Path_566" class="st0" d="M11.8,14.7L10,12.9c-0.3-0.3-0.7-0.3-1,0c-0.3,0.3-0.3,0.7,0,1l0.5,0.5C7.6,14.2,5.8,13.8,4,13
	c-1.7-0.8-2.6-1.8-2.6-2.8c0-0.8,0.7-1.7,1.9-2.4c0.3-0.2,0.4-0.6,0.2-1s-0.6-0.4-1-0.2C0.5,7.8,0,9.2,0,10.2c0,1.6,1.2,3,3.4,4.1
	c2,0.9,4.1,1.4,6.3,1.6L9,16.6c-0.3,0.3-0.3,0.7,0,1c0.3,0.3,0.7,0.3,1,0l0,0l1.9-1.9C12.1,15.4,12.1,15,11.8,14.7
	C11.8,14.7,11.8,14.7,11.8,14.7z"/>
<path id="Path_567" class="st0" d="M7.4,8.8V8.6C7.4,8,7,7.9,6.5,7.9c-0.3,0-0.4-0.3-0.4-0.5s0.1-0.5,0.4-0.5c0.3,0,0.7,0,0.7-0.8
	c0-0.5-0.3-0.6-0.7-0.6c-0.4,0-0.7,0.1-0.7,0.5c0,0.3-0.1,0.5-0.7,0.5c-0.6,0-0.7-0.1-0.7-0.6c0-0.7,0.5-1.6,2-1.6
	c1.1,0,2,0.4,2,1.6C8.6,6.4,8.3,7,7.8,7.3C8.4,7.5,8.8,8,8.8,8.6v0.2c0,1.5-1,2-2.3,2c-1.5,0-2.1-0.9-2.1-1.7c0-0.4,0.2-0.5,0.7-0.5
	c0.6,0,0.7,0.1,0.7,0.5c0,0.4,0.4,0.5,0.8,0.5C7.1,9.6,7.4,9.4,7.4,8.8z"/>
<path id="Path_568" class="st0" d="M14.2,8.6L14.2,8.6c0,1.3-1.1,2.2-2.3,2.2c-1.1,0-2.1-1-2.1-2.1V6.3c0-1.5,1-2.1,2.3-2.1
	c1.5,0,2.1,0.9,2.1,1.7c0,0.4-0.2,0.6-0.6,0.6c-0.4,0-0.7-0.1-0.7-0.5c0-0.3-0.4-0.5-0.8-0.5c-0.5,0-0.8,0.3-0.8,0.9v0.8
	c0.3-0.3,0.7-0.4,1.1-0.4c0.9-0.1,1.8,0.5,1.9,1.4C14.2,8.3,14.2,8.5,14.2,8.6z M11.2,8.8c0,0.6,0.3,0.9,0.8,0.9s0.8-0.3,0.8-0.9
	V8.7c0-0.7-0.3-0.9-0.8-0.9c-0.4,0-0.7,0.2-0.8,0.6c0,0.1,0,0.1,0,0.2V8.8z"/>
<path id="Path_569" class="st0" d="M15.2,8.7V6.3c0-1.2,1.1-2.2,2.3-2.1c1.1,0,2.1,1,2.1,2.1v2.4c0,1.2-1.1,2.2-2.3,2.1
	C16.2,10.7,15.3,9.8,15.2,8.7z M18.2,6.3c0-0.6-0.3-0.9-0.8-0.9s-0.8,0.3-0.8,0.9v2.4c0,0.6,0.3,0.9,0.8,0.9s0.8-0.3,0.8-0.9V6.3z"
	/>
<path id="Path_570" class="st0" d="M21.3,4.2c-1.2,0-2.1-0.9-2.1-2.1c0-1.2,0.9-2.1,2.1-2.1c1.2,0,2.1,0.9,2.1,2.1
	C23.4,3.3,22.5,4.2,21.3,4.2z M21.3,1.4c-0.4,0-0.7,0.3-0.7,0.7s0.3,0.7,0.7,0.7c0.4,0,0.7-0.3,0.7-0.7C22,1.7,21.7,1.4,21.3,1.4
	C21.3,1.4,21.3,1.4,21.3,1.4L21.3,1.4z"/>
</svg>
