<svg xmlns="http://www.w3.org/2000/svg" width="18.053" height="16.1" viewBox="0 0 18.053 16.1">
  <g id="Group_478" data-name="Group 478" transform="translate(70.105 -64.946)">
    <path id="Path_16" data-name="Path 16" d="M-52.105,68.046c-.094-.124.156-1,0-1h-1l-13,1v-3c-.053-.226-.768,0-1,0h-2a1.778,1.778,0,0,0-1,1c0,.277.723,0,1,0h2v2h0l2,7c.053.227.768,1,1,1h9c.224,0,.94-.785,1-1l2-7C-52.063,67.894-52.01,68.171-52.105,68.046Z" fill="#fff"/>
    <circle id="Ellipse_1" data-name="Ellipse 1" cx="1.5" cy="1.5" r="1.5" transform="translate(-65.105 78.046)" fill="#fff"/>
    <circle id="Ellipse_2" data-name="Ellipse 2" cx="1.5" cy="1.5" r="1.5" transform="translate(-58.105 78.046)" fill="#fff"/>
  </g>
</svg>
