<svg width="42" height="42" viewBox="0 0 42 42" fill="none" xmlns="http://www.w3.org/2000/svg">
<rect width="42" height="42" rx="6" fill="black"/>
<path d="M15.7812 34.3396C15.7812 35.4871 14.9553 36 14.1427 36C13.2384 36 12.5436 35.3909 12.5436 34.3909C12.5436 33.3652 13.2318 32.737 14.1951 32.737C15.1455 32.737 15.7812 33.3908 15.7812 34.3396ZM13.376 34.3716C13.376 34.9743 13.6774 35.4294 14.169 35.4294C14.6277 35.4294 14.9489 34.9871 14.9489 34.3589C14.9489 33.8717 14.7261 33.3139 14.1755 33.3139C13.6053 33.3139 13.376 33.8524 13.376 34.3716Z" fill="white"/>
<path d="M16.3251 33.737C16.3251 33.3779 16.3185 33.0767 16.2988 32.8074H17.0067L17.046 33.2754H17.0657C17.2033 33.0318 17.5506 32.737 18.0815 32.737C18.6385 32.737 19.2152 33.0896 19.2152 34.0767V35.9294H18.4092V34.1665C18.4092 33.7178 18.2387 33.3779 17.7996 33.3779C17.4784 33.3779 17.2556 33.6024 17.1705 33.8395C17.1443 33.9101 17.1376 34.0063 17.1376 34.096V35.9294H16.3251L16.3251 33.737Z" fill="white"/>
<path d="M19.9558 31.3779H20.7683V35.9294H19.9558V31.3779Z" fill="white"/>
<path d="M22.3806 31.9356C22.3806 32.1728 22.2036 32.3587 21.9218 32.3587C21.653 32.3587 21.4761 32.1728 21.4761 31.9356C21.4761 31.692 21.6597 31.5061 21.9283 31.5061C22.2036 31.5061 22.374 31.692 22.3806 31.9356Z" fill="white"/>
<path d="M22.3346 32.8074H21.522V35.9295H22.3346V32.8074Z" fill="white"/>
<path d="M23.0819 33.737C23.0819 33.3779 23.0752 33.0767 23.0555 32.8074H23.7634L23.8028 33.2754H23.8224C23.9601 33.0318 24.3074 32.737 24.8383 32.737C25.3952 32.737 25.9719 33.0896 25.9719 34.0767V35.9294H25.1659V34.1665C25.1659 33.7178 24.9954 33.3779 24.5563 33.3779C24.2352 33.3779 24.0124 33.6024 23.9272 33.8395C23.901 33.9101 23.8944 34.0063 23.8944 34.096V35.9294H23.0818L23.0819 33.737Z" fill="white"/>
<path d="M27.2826 34.5896C27.3023 35.1537 27.7546 35.3974 28.2657 35.3974C28.6393 35.3974 28.908 35.3461 29.1505 35.2564L29.2685 35.8012C28.9932 35.9102 28.6131 35.9935 28.1543 35.9935C27.1188 35.9935 26.5093 35.3717 26.5093 34.4166C26.5093 33.551 27.0467 32.737 28.0692 32.737C29.1045 32.737 29.4453 33.5703 29.4453 34.2562C29.4453 34.4037 29.4323 34.5191 29.4191 34.5896H27.2826ZM28.6851 34.0383C28.6917 33.7498 28.5606 33.2754 28.0232 33.2754C27.5251 33.2754 27.3155 33.7178 27.2826 34.0383H28.6851Z" fill="white"/>
<path fill-rule="evenodd" clip-rule="evenodd" d="M16.2943 6C18.0189 6 19.4171 7.36779 19.4171 9.0545C19.4171 10.7409 18.0189 12.1093 16.2943 12.1093C14.5702 12.1093 13.1719 10.7409 13.1719 9.0545C13.1719 7.36779 14.5702 6 16.2943 6Z" fill="white"/>
<path d="M23.2831 19.5356C22.9896 19.5356 22.8432 19.7007 22.8432 20.0307V25.1213C22.8432 25.4524 22.9896 25.6175 23.2831 25.6175C23.5759 25.6175 23.7212 25.4524 23.7212 25.1213V20.0307C23.7212 19.7007 23.5759 19.5356 23.2831 19.5356Z" fill="white"/>
<path d="M15.3922 22.3598V25.1213C15.3922 25.4524 15.5403 25.6175 15.8324 25.6175C16.1268 25.6175 16.2733 25.4524 16.2733 25.1213V21.7838C15.6822 21.8886 15.3907 22.0808 15.3922 22.3598Z" fill="white"/>
<path d="M28.5834 14.401C28.6145 14.5292 28.6313 14.6629 28.6313 14.8006C28.6313 15.2712 28.4368 15.6969 28.1225 16.0041C27.8082 16.3114 27.3731 16.5021 26.8928 16.5021C26.4121 16.5021 25.9769 16.3114 25.6625 16.0041C25.3475 15.6966 25.1527 15.2709 25.1527 14.8006C25.1527 14.7633 25.1542 14.726 25.1567 14.6896C21.1145 15.5437 17.6582 17.7627 12 15.9107C12 19.6882 12 27.2439 12 27.2439H12.0021C12.0027 27.937 12.29 28.5666 12.7547 29.0197C13.2182 29.4737 13.8615 29.7558 14.5702 29.7561H27.4296C28.1388 29.7559 28.7806 29.4737 29.2455 29.0197C29.7091 28.5666 29.9976 27.937 29.9976 27.2436L30 14.5711C29.5122 14.4814 29.0411 14.4272 28.5834 14.401ZM17.7951 26.6644H16.2732V26.3694C16.1535 26.6356 15.7963 26.7689 15.1982 26.7689C14.3135 26.7689 13.8709 26.3848 13.8709 25.6175V22.6804C13.8709 22.3391 13.9744 22.0452 14.1769 21.7904C14.3819 21.5389 14.8222 21.2208 15.5004 20.8434C15.9725 20.6256 16.2305 20.4506 16.2732 20.3193V19.0505C16.2732 18.7185 16.1267 18.5531 15.8323 18.5531C15.5403 18.5531 15.3922 18.7185 15.3922 19.0505V20.4506H13.8709V19.0505C13.8709 18.6131 13.9893 18.2689 14.2258 18.0167C15.4468 18.2762 16.5641 18.33 17.6152 18.2573C17.7349 18.4745 17.7951 18.7389 17.7951 19.0505V26.6644ZM20.3372 26.6644H18.8155V18.121C19.3345 18.0391 19.8397 17.9322 20.3372 17.8114V26.6644ZM25.2428 25.1213C25.2428 25.775 25.0989 26.2069 24.8072 26.4163C24.5169 26.6236 24.1561 26.729 23.7274 26.729C23.3949 26.729 23.1012 26.6213 22.8432 26.4098V26.6644H21.3219V17.5545C21.8319 17.4139 22.3374 17.2662 22.8432 17.1241V18.7756C23.1553 18.5848 23.5617 18.489 24.0605 18.489C24.3665 18.489 24.64 18.5802 24.8828 18.7633C25.123 18.9468 25.2428 19.3685 25.2428 20.0307L25.2428 25.1213ZM27.7571 26.6644H26.2521V17.5059H27.7571V26.6644Z" fill="white"/>
<path d="M30 8.567V12.4829C21.731 11.957 19.8346 18.1769 12 14.6061V11.8775C19.7439 15.9657 21.8212 8.06671 30 8.567Z" fill="white"/>
<path fill-rule="evenodd" clip-rule="evenodd" d="M26.8921 13.5155C27.6172 13.5155 28.2051 14.0909 28.2051 14.8003C28.2051 15.5094 27.6172 16.0848 26.8921 16.0848C26.1671 16.0848 25.5791 15.5094 25.5791 14.8003C25.5791 14.0909 26.1671 13.5155 26.8921 13.5155Z" fill="white"/>
</svg>
