<svg width="110" height="37" viewBox="0 0 110 37" fill="none" xmlns="http://www.w3.org/2000/svg">
<path fill-rule="evenodd" clip-rule="evenodd" d="M103.215 0H6.71813C0.959114 0 0 2.00235 0 6.76447V30.278C0 35.0368 1.97241 37 6.71163 37H103.216C107.958 37 110 35.0336 110 30.2714V6.76447C110 2.00235 107.957 0 103.215 0Z" fill="black"/>
<path fill-rule="evenodd" clip-rule="evenodd" d="M28.9398 21.7987C28.3809 23.1405 28.113 23.7397 27.3934 24.9251C26.3884 26.5807 24.9733 28.6425 23.2192 28.6603C21.6608 28.6757 21.2605 27.5613 19.1455 27.5743C17.0305 27.5873 16.5887 28.6792 15.0292 28.6638C13.2751 28.6461 11.9343 26.7844 10.9293 25.1288C8.12098 20.4984 7.8268 15.065 9.55906 12.1766C10.7904 10.1243 12.7316 8.92229 14.5579 8.92229C16.417 8.92229 17.5861 10.026 19.1226 10.026C20.6131 10.026 21.5219 8.91992 23.6719 8.91992C25.297 8.91992 27.0183 9.87799 28.2442 11.5348C24.2264 13.921 24.8792 20.1372 28.9398 21.7987Z" fill="white"/>
<path fill-rule="evenodd" clip-rule="evenodd" d="M22.0414 7.07237C22.8222 5.98759 23.415 4.45398 23.2006 2.88721C21.9255 2.98195 20.4327 3.86067 19.5611 5.00703C18.7705 6.0468 18.1176 7.58989 18.3724 9.08916C19.7645 9.13534 21.2048 8.23531 22.0414 7.07237Z" fill="white"/>
<path fill-rule="evenodd" clip-rule="evenodd" d="M101.089 23.9729H95.4415C95.4633 24.8019 95.7367 25.5291 96.2617 26.0063C96.7363 26.435 97.352 26.6304 98.1077 26.6304C98.9453 26.6304 99.7043 26.4765 100.391 26.1828L100.687 27.5956C99.8891 27.9757 98.9399 28.1581 97.8452 28.1581C96.5351 28.1581 95.5038 27.7412 94.7547 26.9052C94.0056 26.0691 93.6283 24.9452 93.6283 23.5371C93.6283 22.1504 93.9782 21.0016 94.6738 20.0791C95.4087 19.0997 96.3962 18.6094 97.6374 18.6094C98.8611 18.6094 99.783 19.0985 100.409 20.0791C100.906 20.8619 101.158 21.8638 101.158 23.009C101.158 23.3702 101.134 23.7361 101.089 23.9729ZM93.0651 20.6085C92.9557 20.5718 92.6659 20.5564 92.4581 20.5564C91.7965 20.5564 91.2792 20.8264 90.9184 21.3664C90.6034 21.846 90.4405 22.4405 90.4405 23.1759V27.881H88.5813V21.7004C88.5813 20.6499 88.5409 19.7096 88.5081 18.7622H90.1452L90.2152 20.657H90.2666C90.4634 20.0649 90.7751 19.5261 91.2071 19.1649C91.6248 18.8345 92.0951 18.6544 92.5828 18.6544C92.7556 18.6544 92.9546 18.6426 93.064 18.6675V20.6085H93.0651ZM86.2607 26.8021C85.4799 27.7306 84.4464 28.196 83.1593 28.196C81.9137 28.196 80.9207 27.7495 80.1836 26.8566C79.4465 25.966 79.0802 24.8351 79.0802 23.4791C79.0802 22.0592 79.4597 20.8939 80.2208 19.9891C80.983 19.0796 82.0055 18.6331 83.2949 18.6331C84.5427 18.6331 85.5411 19.0749 86.2957 19.9725C87.0142 20.8358 87.374 21.9585 87.374 23.3287C87.3729 24.7403 87.0044 25.8938 86.2607 26.8021ZM78.5203 20.4202H76.5518V24.8007C76.5518 25.9317 76.8755 26.493 77.6082 26.493C77.945 26.493 78.1987 26.467 78.4218 26.4042L78.4645 27.9473C78.0916 28.0989 77.5994 28.1747 76.9958 28.1747C76.2565 28.1747 75.6507 27.9331 75.234 27.4381C74.8119 26.9502 74.5844 26.1247 74.5844 24.9677V20.4202H73.3814V18.7622H74.5844V17.1374L76.5529 16.5334V18.7622H78.5213V20.4202H78.5203ZM71.9051 27.0615C71.1363 27.8052 70.0711 28.1747 68.7052 28.1747C67.4388 28.1747 66.4262 27.9094 65.6617 27.3836L66.0992 25.6854C66.9238 26.2112 67.8293 26.4776 68.8135 26.4776C69.5254 26.4776 70.0755 26.3024 70.4714 25.9589C70.864 25.6143 71.0619 25.1525 71.0619 24.5663C71.0619 24.057 70.899 23.6236 70.5753 23.2683C70.2472 22.9166 69.7113 22.5921 68.9557 22.2877C66.9019 21.46 65.8728 20.2461 65.8728 18.6485C65.8728 17.6052 66.2315 16.7466 66.9588 16.0811C67.6849 15.4155 68.6462 15.0815 69.8437 15.0815C70.9121 15.0815 71.8012 15.2841 72.5109 15.6843L72.0363 17.3458C71.3747 16.9574 70.6212 16.7596 69.7824 16.7596C69.1186 16.7596 68.5991 16.942 68.224 17.2866C67.9113 17.6052 67.7538 17.9889 67.7538 18.4401C67.7538 18.9399 67.9342 19.3567 68.2929 19.6883C68.6079 19.9891 69.1766 20.3136 69.999 20.6653C71.0127 21.1023 71.7542 21.621 72.2321 22.2143C72.7067 22.8053 72.9462 23.5395 72.9462 24.4194C72.9473 25.503 72.5973 26.3865 71.9051 27.0615ZM61.0315 26.9904C60.3305 27.7922 59.4556 28.1948 58.4145 28.1948C57.2936 28.1948 56.539 27.7614 55.9922 26.8898V31.789H54.1331V21.8294C54.1331 20.8489 54.0981 19.9465 54.0532 18.7622H55.7046L55.8139 20.3017H55.8467C56.4788 19.2359 57.4281 18.6485 58.7054 18.6485C59.7049 18.6485 60.5383 19.0642 61.2064 19.9216C61.8757 20.7754 62.2093 21.8993 62.2093 23.2955C62.2082 24.8588 61.8167 26.0833 61.0315 26.9904ZM51.7271 26.9904C51.0272 27.7922 50.1546 28.1948 49.1156 28.1948C47.9914 28.1948 47.2434 27.7614 46.6966 26.8898V31.789H44.8375V21.8294C44.8375 20.8489 44.7948 19.9465 44.7467 18.7622H46.4024L46.5063 20.3017H46.5391C47.1701 19.2359 48.1205 18.6485 49.4 18.6485C50.3984 18.6485 51.2307 19.0642 51.9021 19.9216C52.5681 20.7754 52.9028 21.8993 52.9028 23.2955C52.9039 24.8588 52.5124 26.0833 51.7271 26.9904ZM41.6628 27.881L40.5659 24.2098H36.7482L35.7016 27.881H33.7517L37.5301 15.2094H39.8682L43.6684 27.881H41.6628ZM97.4985 20.0223C96.8839 20.0223 96.3852 20.3633 96.0003 20.9128C95.6875 21.3522 95.4994 21.8413 95.4426 22.5518H99.3631C99.3729 21.8413 99.2537 21.3735 98.9989 20.9306C98.672 20.3669 98.1711 20.0223 97.4985 20.0223ZM38.6477 16.9858H38.6149C38.4968 17.578 38.3131 18.3667 38.055 19.4242L37.0795 22.7887H40.2324L39.2437 19.4242C39.1366 19.0831 38.9364 18.1701 38.6477 16.9858ZM58.0952 20.2496C57.6293 20.2496 57.2126 20.4154 56.8331 20.7482C56.4559 21.0857 56.2011 21.5227 56.084 22.0639C56.0261 22.3174 55.9922 22.5234 55.9922 22.688V24.2145C55.9922 24.8825 56.1846 25.4473 56.5641 25.9068C56.9414 26.3616 57.4357 26.5925 58.0372 26.5925C58.7491 26.5925 59.3025 26.2988 59.6973 25.7055C60.0932 25.1134 60.2922 24.3341 60.2922 23.3631C60.2922 22.4725 60.1052 21.7359 59.7345 21.158C59.3255 20.5564 58.7787 20.2496 58.0952 20.2496ZM83.2249 20.1217C82.4714 20.1217 81.8962 20.4841 81.5036 21.2124C81.1635 21.8117 80.9962 22.5447 80.9962 23.4104C80.9962 24.2548 81.1635 24.9736 81.5036 25.5752C81.906 26.3024 82.4758 26.6648 83.2107 26.6648C83.9259 26.6648 84.4924 26.2976 84.897 25.5527C85.2481 24.944 85.423 24.2133 85.423 23.3761C85.423 22.5364 85.2546 21.8129 84.92 21.2136C84.5197 20.4841 83.9576 20.1217 83.2249 20.1217ZM48.7876 20.2496C48.3239 20.2496 47.905 20.4154 47.5256 20.7482C47.1472 21.0857 46.9 21.5227 46.783 22.0639C46.7261 22.3174 46.6955 22.5234 46.6955 22.688V24.2145C46.6955 24.8825 46.8825 25.4473 47.262 25.9068C47.6393 26.3616 48.1314 26.5925 48.734 26.5925C49.4415 26.5925 49.9971 26.2988 50.3919 25.7055C50.7867 25.1134 50.9824 24.3341 50.9824 23.3631C50.9824 22.4725 50.7987 21.7359 50.4269 21.158C50.0189 20.5564 49.4743 20.2496 48.7876 20.2496Z" fill="white"/>
<path d="M36.2309 10.2175L35.7092 12.078H34.5664L36.5097 5.51367H37.9216L39.8911 12.078H38.7035L38.1545 10.2175H36.2309ZM37.9675 9.31158L37.4907 7.69507C37.3737 7.29598 37.2752 6.84714 37.1845 6.46818H37.167C37.0773 6.84833 36.9865 7.30545 36.8794 7.69507L36.4113 9.31158H37.9675Z" fill="white"/>
<path d="M41.152 7.33447L41.8628 9.7397C41.9886 10.1589 42.0782 10.5379 42.1592 10.9275H42.1865C42.2674 10.5379 42.3669 10.1672 42.4829 9.7397L43.1751 7.33447H44.3442L42.671 12.0774H41.5828L39.9556 7.33447H41.152Z" fill="white"/>
<path d="M47.4305 12.0778L47.3583 11.552H47.331C47.0608 11.9226 46.6026 12.1855 46.0361 12.1855C45.1547 12.1855 44.6604 11.4939 44.6604 10.7727C44.6604 9.57425 45.6403 8.97028 47.2599 8.98093V8.90277C47.2599 8.59131 47.1429 8.07498 46.3697 8.07498C45.9377 8.07498 45.4883 8.22064 45.1919 8.42552L44.9764 7.64628C45.3002 7.43193 45.8666 7.22705 46.56 7.22705C47.9631 7.22705 48.3677 8.19104 48.3677 9.22371V10.9385C48.3677 11.3672 48.3852 11.7864 48.4311 12.0778H47.4305ZM47.2861 9.76018C46.5031 9.74123 45.7573 9.92597 45.7573 10.646C45.7573 11.1138 46.0361 11.3281 46.3872 11.3281C46.8279 11.3281 47.1516 11.0167 47.2511 10.6756C47.2785 10.588 47.2872 10.4909 47.2872 10.4127V9.76018H47.2861Z" fill="white"/>
<path d="M55.7701 12.0778L55.6979 11.552H55.6706C55.4004 11.9226 54.9422 12.1855 54.3757 12.1855C53.4943 12.1855 53 11.4939 53 10.7727C53 9.57425 53.9799 8.97028 55.5995 8.98093V8.90277C55.5995 8.59131 55.4825 8.07498 54.7093 8.07498C54.2773 8.07498 53.8279 8.22064 53.5315 8.42552L53.316 7.64628C53.6398 7.43193 54.2062 7.22705 54.8996 7.22705C56.3027 7.22705 56.7073 8.19104 56.7073 9.22371V10.9385C56.7073 11.3672 56.7248 11.7864 56.7707 12.0778H55.7701ZM55.6257 9.76018C54.8427 9.74123 54.0969 9.92597 54.0969 10.646C54.0969 11.1138 54.3757 11.3281 54.7268 11.3281C55.1675 11.3281 55.4912 11.0167 55.5907 10.6756C55.6181 10.588 55.6268 10.4909 55.6268 10.4127V9.76018H55.6257Z" fill="white"/>
<path d="M51 5.1626H52.1155V12.0775H51V5.1626Z" fill="white"/>
<path d="M50.2412 6.09393C50.2412 6.45394 49.9985 6.73698 49.6113 6.73698C49.2428 6.73698 49 6.45513 49 6.09393C49 5.72444 49.2515 5.44141 49.6201 5.44141C49.9974 5.44141 50.2314 5.72444 50.2412 6.09393ZM49.0623 12.1621V7.41911H50.1778V12.1621H49.0623Z" fill="white"/>
<path d="M58 12.0775C58.0175 11.7565 58.0361 11.2295 58.0361 10.7428V5.1626H59.1428V7.98705H59.1603C59.4304 7.52874 59.9072 7.22676 60.5634 7.22676C61.634 7.22676 62.3984 8.19074 62.3897 9.63198C62.3897 11.3361 61.3912 12.1841 60.4015 12.1841C59.835 12.1841 59.3309 11.9508 59.0159 11.3657H58.9984L58.9449 12.0763H58V12.0775ZM59.1417 10.1199C59.1417 10.217 59.1505 10.3153 59.169 10.4029C59.2861 10.8802 59.6732 11.2402 60.1489 11.2402C60.8411 11.2402 61.2644 10.6362 61.2644 9.68172C61.2644 8.84445 60.8958 8.16232 60.1576 8.16232C59.7082 8.16232 59.3036 8.51286 59.1778 9.03867C59.1603 9.1263 59.1417 9.23289 59.1417 9.35013V10.1199V10.1199Z" fill="white"/>
<path d="M63.2974 5.44141H64.4128V12.3563H63.2974V5.44141Z" fill="white"/>
<path d="M66.3923 10.042C66.4197 10.8994 67.0397 11.2689 67.7418 11.2689C68.2547 11.2689 68.6233 11.1908 68.9557 11.0546L69.1176 11.8824C68.7403 12.0482 68.2186 12.1749 67.5887 12.1749C66.1681 12.1749 65.3315 11.2298 65.3315 9.77912C65.3315 8.4646 66.0686 7.22705 67.4717 7.22705C68.8934 7.22705 69.3604 8.49302 69.3604 9.53517C69.3604 9.75899 69.3429 9.93426 69.3243 10.042H66.3923ZM68.3171 9.20476C68.3258 8.76658 68.1465 8.04537 67.4083 8.04537C66.7248 8.04537 66.4372 8.71685 66.3923 9.20476H68.3171V9.20476Z" fill="white"/>
<path d="M77.4433 9.66188C77.4433 11.4051 76.3103 12.1843 75.1948 12.1843C73.9536 12.1843 73 11.2594 73 9.74004C73 8.18156 73.9449 7.22705 75.267 7.22705C76.5706 7.22705 77.4433 8.22064 77.4433 9.66188ZM74.1417 9.71044C74.1417 10.6259 74.5551 11.3175 75.2298 11.3175C75.8598 11.3175 76.3005 10.646 76.3005 9.69149C76.3005 8.95133 75.9943 8.1034 75.2386 8.1034C74.4567 8.1034 74.1417 8.92172 74.1417 9.71044Z" fill="white"/>
<path d="M78.352 8.74617C78.352 8.20023 78.3433 7.74311 78.3159 7.33335H79.287L79.3406 8.04391H79.368C79.5572 7.67323 80.034 7.22559 80.7623 7.22559C81.5267 7.22559 82.3185 7.76087 82.3185 9.26132V12.0763H81.2118V9.39751C81.2118 8.71538 80.9777 8.19904 80.3752 8.19904C79.9344 8.19904 79.6282 8.54011 79.5112 8.90012C79.4751 9.00671 79.4664 9.15355 79.4664 9.28974V12.0751H78.3509V8.74617H78.352Z" fill="white"/>
<path d="M86.6274 5.97998V7.33477H87.6794V8.23125H86.6274V10.325C86.6274 10.8994 86.7717 11.2014 87.1939 11.2014C87.3831 11.2014 87.5263 11.1718 87.6258 11.1433L87.6433 12.0588C87.4815 12.1275 87.1939 12.176 86.8428 12.176C86.4382 12.176 86.0959 12.0303 85.8892 11.7864C85.6552 11.514 85.5469 11.0853 85.5469 10.4612V8.23007H84.917V7.33477H85.5469V6.26302L86.6274 5.97998Z" fill="white"/>
<path d="M88.5161 5.1626H89.6316V7.98705H89.6491C89.7836 7.76322 89.964 7.57848 90.1981 7.44111C90.4135 7.30492 90.6749 7.22676 90.9537 7.22676C91.7007 7.22676 92.4826 7.76204 92.4826 9.28144V12.0763H91.3759V9.41881C91.3759 8.72721 91.1418 8.21087 90.5305 8.21087C90.0985 8.21087 89.7934 8.52233 89.6764 8.88235C89.6403 8.97945 89.6316 9.10617 89.6316 9.24236V12.0763H88.5161V5.1626Z" fill="white"/>
<path d="M94.4434 10.042C94.4707 10.8994 95.0908 11.2689 95.7928 11.2689C96.3057 11.2689 96.6743 11.1908 97.0067 11.0546L97.1686 11.8824C96.7913 12.0482 96.2697 12.1749 95.6398 12.1749C94.2192 12.1749 93.3826 11.2298 93.3826 9.77912C93.3826 8.4646 94.1197 7.22705 95.5227 7.22705C96.9444 7.22705 97.4114 8.49302 97.4114 9.53517C97.4114 9.75899 97.3939 9.93426 97.3753 10.042H94.4434ZM96.3681 9.20476C96.3768 8.76658 96.1975 8.04537 95.4593 8.04537C94.7758 8.04537 94.4882 8.71685 94.4434 9.20476H96.3681V9.20476Z" fill="white"/>
</svg>
