<svg xmlns="http://www.w3.org/2000/svg" width="25.747" height="22.743" viewBox="0 0 25.747 22.743">
  <g id="Group_593" data-name="Group 593" transform="translate(69.895 -65.046)">
    <path id="Path_16" data-name="Path 16" d="M-44.3,68.92a.724.724,0,0,0-.576-.285h0l-19.073.032-.712-3.061a.726.726,0,0,0-.7-.56h-3.809a.723.723,0,0,0-.724.724.722.722,0,0,0,.724.724h3.235l.709,3.049.007.029,2.43,10.442a.724.724,0,0,0,.7.56h14.263a.723.723,0,0,0,.7-.527l2.951-10.492A.728.728,0,0,0-44.3,68.92Z" transform="translate(0)" fill="#fff"/>
    <circle id="Ellipse_1" data-name="Ellipse 1" cx="2.306" cy="2.306" r="2.306" transform="translate(-62.545 83.177)" fill="#fff"/>
    <circle id="Ellipse_2" data-name="Ellipse 2" cx="2.306" cy="2.306" r="2.306" transform="translate(-52.945 83.177)" fill="#fff"/>
  </g>
</svg>
