<svg xmlns="http://www.w3.org/2000/svg" width="57.251" height="48.468" viewBox="0 0 57.251 48.468">
  <g id="Group_975" data-name="Group 975" transform="translate(57.251 29.86) rotate(151)">
    <path id="Path_731" data-name="Path 731" d="M15.364,8.646a3.612,3.612,0,0,1,1.294.183,1.465,1.465,0,0,1,.267.131c.316.2.334.249.191.592a.347.347,0,0,0,.039.37,22.346,22.346,0,0,0,1.675,2.051c.7.783,1.441,1.526,2.2,2.247,1.086,1.028,2.23,1.989,3.412,2.9a51.057,51.057,0,0,0,4.395,3.03c1.1.682,2.231,1.317,3.379,1.917.977.511,1.968.994,2.978,1.437.189.083.2.123.1.294a61.815,61.815,0,0,1-4.208,5.9c-.029.036-.057.073-.085.111-.125.168-.117.212.07.321.621.36,1.006.579,1.625.942.14.082.215.065.3-.08.815-1.408,3.8-5.736,6.092-9.919.105-.182.093-.217-.1-.285-1.6-.552-3.166-1.2-4.7-1.91q-1.91-.878-3.755-1.886t-3.59-2.109c-.931-.591-1.847-1.2-2.737-1.854-.268-.2-.534-.4-.8-.59a.348.348,0,0,1-.146-.246,14.582,14.582,0,0,0-.443-2.022A7.87,7.87,0,0,0,21.811,8.1,12.015,12.015,0,0,0,20.1,6.08c-.515-.485-.93-1.057-1.418-1.564A7.4,7.4,0,0,0,16.03,2.66a7.45,7.45,0,0,0-2.295-.449,28.356,28.356,0,0,1-3.75-.48,25.182,25.182,0,0,1-3.81-1A9.073,9.073,0,0,1,4.645.057C4.49-.034,4.4-.025,4.3.148Q2.312,3.579.309,7c-.08.138-.154.28-.244.411a.24.24,0,0,0,.054.373A13.458,13.458,0,0,1,1.368,8.959,12.032,12.032,0,0,1,2.625,10.5,18.536,18.536,0,0,0,5.6,13.838,22.141,22.141,0,0,0,8.9,16.3c.13.08.093.141.023.234-.5.657-.986,1.32-1.487,1.974a.3.3,0,0,0,0,.421c9.49,10.154,13.684,11.762,19.3,14.739.159.084.265.033.366-.111q1.1-1.556,2.2-3.106,1.484-2.087,2.971-4.171c.5-.7,1.005-1.4,1.505-2.108.172-.242.168-.25-.1-.365a33.12,33.12,0,0,1-4.622-2.54c-1.242-.8-2.443-1.653-3.619-2.542q-2.337-1.766-4.555-3.681-1.874-1.611-3.684-3.291-1.294-1.2-2.55-2.438c-.189-.187-.2-.187-.359.022q-1.059,1.423-2.115,2.848c-.1.141-.186.173-.3.019-.063-.085-.137-.162-.207-.242-.221-.254-.221-.253-.051-.546.455-.78.913-1.559,1.364-2.342a.424.424,0,0,1,.319-.212A11.4,11.4,0,0,1,15.364,8.646Zm-.179,10.69a1.229,1.229,0,0,0,1.188-.68,1.987,1.987,0,0,0-.021-1.751,5.8,5.8,0,0,0-1.8-2.2c-.5-.4-1-.793-1.454-1.241-.093-.091-.114-.162-.024-.267s.155-.215.233-.323q.473-.654.946-1.308c.084-.116.139-.159.263-.015.306.358.633.7.959,1.04.969,1.013,1.984,1.98,3.022,2.922Q19.8,16.7,21.174,17.809q1.786,1.437,3.686,2.721a44.652,44.652,0,0,0,4.341,2.6c.79.411,1.592.8,2.411,1.145.138.059.188.119.084.263-.565.788-1.124,1.58-1.685,2.371q-1.682,2.373-3.361,4.75c-.091.129-.17.171-.309.1-.054-.026-.113-.04-.168-.063a33.715,33.715,0,0,1-4.637-2.429,51.41,51.41,0,0,1-4.831-3.41,60.871,60.871,0,0,1-5.413-4.821c-.7-.7-1.4-1.4-2.077-2.122-.107-.115-.138-.2-.034-.342.317-.426.624-.86.929-1.3.087-.125.166-.132.3-.055A23.218,23.218,0,0,0,13.813,19,4.643,4.643,0,0,0,15.185,19.336Z" transform="translate(5.645 3.558)"/>
    <path id="Path_732" data-name="Path 732" d="M8.766,2.676a.6.6,0,0,0-.331-.559q-1.754-1-3.51-2.006a.562.562,0,0,0-.859.229Q3,2.176,1.945,4.016,1.021,5.621.1,7.228a.584.584,0,0,0,.247.86q1.728.99,3.456,1.982a.593.593,0,0,0,.934-.247c.486-.831.96-1.669,1.44-2.5Q7.387,5.214,8.6,3.109A.843.843,0,0,0,8.766,2.676Z" transform="translate(0 0)"/>
  </g>
</svg>
