<svg width="24" height="24" viewBox="0 0 24 24" fill="none" xmlns="http://www.w3.org/2000/svg">
<g clip-path="url(#clip0)">
<path d="M23.94 11.97C23.94 5.36 18.58 0 11.97 0C5.36 0 0 5.36 0 11.97C0 17.86 4.28 22.87 10.1 23.79V15.43H7.06V11.97H10.1V9.33C10.1 6.33 11.89 4.67 14.62 4.67C15.52 4.68 16.41 4.76 17.3 4.9V7.84H15.79C14.84 7.71 13.97 8.38 13.85 9.33C13.83 9.46 13.83 9.58 13.84 9.71V11.96H17.16L16.63 15.42H13.84V23.78C19.65 22.87 23.94 17.86 23.94 11.97Z" fill="#4267B2"/>
</g>
<defs>
<clipPath id="clip0">
<rect width="23.94" height="23.79" fill="white"/>
</clipPath>
</defs>
</svg>
