<svg width="110" height="37" viewBox="0 0 110 37" fill="none" xmlns="http://www.w3.org/2000/svg">
<path fill-rule="evenodd" clip-rule="evenodd" d="M103.215 0H6.71813C0.959114 0 0 2.00235 0 6.76447V30.278C0 35.0368 1.97241 37 6.71163 37H103.216C107.958 37 110 35.0336 110 30.2714V6.76447C110 2.00235 107.957 0 103.215 0Z" fill="black"/>
<path d="M9.43403 7.35107C9.18694 7.43813 8.99512 7.66993 8.99512 7.96919V29.5478C8.99512 29.8449 9.18369 30.0745 9.42753 30.1637L20.8437 18.7547L9.43403 7.35107Z" fill="#00D6FF"/>
<path d="M24.0603 15.5402L9.9727 7.40125C9.79605 7.29896 9.60315 7.29134 9.43408 7.3512L20.8437 18.7548L24.0603 15.5402Z" fill="#00F076"/>
<path d="M9.97261 30.1147L24.0656 21.9725L20.8436 18.7524L9.42749 30.1637C9.59764 30.2246 9.7938 30.2181 9.97261 30.1147Z" fill="#FF3A44"/>
<path d="M24.0657 21.9737L28.6489 19.326C29.0845 19.0746 29.0845 18.4424 28.6489 18.191L24.0603 15.54L20.8438 18.7547L24.0657 21.9737Z" fill="#FFD000"/>
<path d="M54.0442 21.2216C52.0121 21.2216 50.4039 22.7516 50.4039 24.877C50.4039 26.9174 52.0121 28.5324 54.0442 28.5324C56.0762 28.5324 57.6845 27.0023 57.6845 24.877C57.6834 22.6668 56.0751 21.2216 54.0442 21.2216ZM54.0442 27.0012C52.9442 27.0012 52.0121 26.0664 52.0121 24.791C52.0121 23.5156 52.9431 22.5808 54.0442 22.5808C55.1442 22.5808 56.0762 23.4307 56.0762 24.791C56.0751 26.0664 55.1442 27.0012 54.0442 27.0012ZM46.1708 21.2216C44.1387 21.2216 42.5305 22.7516 42.5305 24.877C42.5305 26.9174 44.1387 28.5324 46.1708 28.5324C48.2028 28.5324 49.811 27.0023 49.811 24.877C49.811 22.6668 48.2028 21.2216 46.1708 21.2216ZM46.1708 27.0012C45.0708 27.0012 44.1387 26.0664 44.1387 24.791C44.1387 23.5156 45.0697 22.5808 46.1708 22.5808C47.2718 22.5808 48.2028 23.4307 48.2028 24.791C48.2028 26.0664 47.2718 27.0012 46.1708 27.0012ZM36.7747 22.3261V23.8562H40.415C40.3305 24.7061 39.9912 25.3863 39.5686 25.8107C39.0603 26.3211 38.2139 26.9152 36.7747 26.9152C34.4891 26.9152 32.7963 25.1305 32.7963 22.8354C32.7963 20.5404 34.5736 18.7556 36.7747 18.7556C37.9603 18.7556 38.8912 19.266 39.5686 19.8602L40.6686 18.7556C39.7376 17.9057 38.552 17.2256 36.8592 17.2256C33.8117 17.2256 31.188 19.7753 31.188 22.8354C31.188 25.8956 33.8128 28.4464 36.8603 28.4464C38.5531 28.4464 39.7387 27.936 40.7542 26.8314C41.7697 25.8118 42.1089 24.3666 42.1089 23.2609C42.1089 22.9214 42.1089 22.5808 42.0243 22.3261H36.7747ZM75.2064 23.5167C74.8683 22.6668 74.0208 21.2216 72.1589 21.2216C70.2971 21.2216 68.7733 22.6668 68.7733 24.877C68.7733 26.9174 70.2971 28.5324 72.3291 28.5324C73.9374 28.5324 74.9528 27.5127 75.292 26.9174L74.1064 26.0675C73.6827 26.6628 73.1755 27.0872 72.3291 27.0872C71.4827 27.0872 70.9744 26.7477 70.5517 25.9826L75.3755 23.9411L75.2064 23.5167ZM70.296 24.7061C70.296 23.3458 71.396 22.5808 72.1579 22.5808C72.7507 22.5808 73.3435 22.9203 73.5125 23.3458L70.296 24.7061ZM66.3176 28.1917H67.9258V17.5662H66.3176V28.1917ZM63.7783 21.9866C63.3546 21.5611 62.6783 21.1367 61.8319 21.1367C60.0546 21.1367 58.3618 22.7516 58.3618 24.7921C58.3618 26.8325 59.9701 28.3626 61.8319 28.3626C62.6783 28.3626 63.3557 27.9371 63.6938 27.5127H63.7783V28.0231C63.7783 29.3834 63.0165 30.1484 61.8319 30.1484C60.901 30.1484 60.2237 29.4682 60.0546 28.873L58.6999 29.4682C59.1237 30.403 60.1391 31.5936 61.9165 31.5936C63.7783 31.5936 65.3021 30.489 65.3021 27.8533V21.3935H63.7783V21.9866ZM61.9165 27.0012C60.8165 27.0012 59.8845 26.0664 59.8845 24.791C59.8845 23.5156 60.8154 22.5808 61.9165 22.5808C63.0176 22.5808 63.8629 23.5156 63.8629 24.791C63.8629 26.0664 63.0165 27.0012 61.9165 27.0012ZM82.5705 17.5662H78.7611V28.1917H80.3694V24.1968H82.5705C84.3478 24.1968 86.0406 22.9214 86.0406 20.8821C86.0406 18.8427 84.3478 17.5662 82.5705 17.5662ZM82.655 22.6668H80.3694V19.0114H82.655C83.8406 19.0114 84.5169 20.0311 84.5169 20.7961C84.4323 21.732 83.7561 22.6668 82.655 22.6668ZM92.3903 21.1367C91.2047 21.1367 90.0201 21.6471 89.5964 22.7516L91.0356 23.3469C91.3737 22.7516 91.882 22.5819 92.4748 22.5819C93.3212 22.5819 94.0831 23.0923 94.1676 23.9422V24.0271C93.914 23.8573 93.2367 23.6016 92.5593 23.6016C91.0356 23.6016 89.5119 24.4515 89.5119 25.9815C89.5119 27.4267 90.782 28.3615 92.1356 28.3615C93.2356 28.3615 93.7439 27.8511 94.1676 27.3418H94.2522V28.1917H95.7759V24.1119C95.6068 22.2413 94.1676 21.1367 92.3903 21.1367ZM92.2201 27.0012C91.7119 27.0012 90.95 26.7466 90.95 26.0664C90.95 25.2165 91.8809 24.9619 92.6428 24.9619C93.3201 24.9619 93.6583 25.1316 94.082 25.3014C93.914 26.3211 93.0665 27.0012 92.2201 27.0012ZM101.109 21.3914L99.3317 25.9815H99.2471L97.3852 21.3914H95.6924L98.4863 27.8511L96.8781 31.4216H98.4863L102.804 21.3914H101.109ZM86.8881 28.1917H88.4964V17.5662H86.8881V28.1917Z" fill="white"/>
<path d="M34.14 11.2558H36.7778C36.793 11.3157 36.8049 11.3897 36.8158 11.4746C36.8255 11.5605 36.8309 11.6454 36.8309 11.7314C36.8309 12.0785 36.7778 12.405 36.6727 12.7119C36.5676 13.0188 36.4018 13.293 36.1764 13.5346C35.9358 13.7914 35.6475 13.9895 35.3126 14.1309C34.9766 14.2713 34.5941 14.3421 34.1628 14.3421C33.7715 14.3421 33.4041 14.2713 33.0584 14.1309C32.7127 13.9906 32.4125 13.7936 32.1567 13.5422C31.901 13.2908 31.6983 12.9926 31.5477 12.6477C31.397 12.3027 31.3223 11.9273 31.3223 11.5192C31.3223 11.1111 31.397 10.7356 31.5477 10.3907C31.6983 10.0457 31.901 9.74861 32.1567 9.49614C32.4125 9.24476 32.7127 9.04888 33.0584 8.90741C33.4041 8.76702 33.7726 8.69629 34.1628 8.69629C34.5984 8.69629 34.9875 8.77138 35.331 8.92264C35.6746 9.07391 35.9683 9.28285 36.2143 9.54838L35.5153 10.2351C35.3397 10.049 35.1446 9.90641 34.929 9.80847C34.7133 9.71052 34.4554 9.66155 34.1552 9.66155C33.9092 9.66155 33.6772 9.70617 33.4562 9.79323C33.2362 9.88138 33.0433 10.0054 32.8774 10.1665C32.7116 10.3276 32.5805 10.5223 32.483 10.7509C32.3854 10.9794 32.3367 11.2351 32.3367 11.517C32.3367 11.7988 32.3854 12.0535 32.483 12.2831C32.5805 12.5116 32.7138 12.7064 32.8807 12.8675C33.0487 13.0286 33.2427 13.1526 33.4627 13.2408C33.6827 13.3289 33.9189 13.3724 34.1693 13.3724C34.4543 13.3724 34.696 13.3311 34.8943 13.2484C35.0926 13.1657 35.2617 13.059 35.4015 12.9273C35.5012 12.837 35.5879 12.7228 35.6605 12.5846C35.7331 12.4463 35.7895 12.2918 35.8296 12.121H34.1389V11.2558H34.14Z" fill="white"/>
<path d="M38.6863 9.78471V11.0373H40.8429V12.0036H38.6863V13.2562H41.0835V14.2214H37.6719V8.81836H41.0835V9.78362H38.6863V9.78471Z" fill="white"/>
<path d="M43.1567 14.2213V9.7846H41.6536V8.81934H45.6732V9.7846H44.17V14.2213H43.1567Z" fill="white"/>
<path d="M48.0488 8.81836H49.0632V14.2204H48.0488V8.81836Z" fill="white"/>
<path d="M51.2871 14.2213V9.7846H49.7839V8.81934H53.8035V9.7846H52.3015V14.2213H51.2871Z" fill="white"/>
<path d="M58.5751 14.3418C58.1742 14.3418 57.8024 14.2689 57.4589 14.1231C57.1153 13.9773 56.8184 13.777 56.5681 13.5235C56.3177 13.2699 56.1216 12.9706 55.9785 12.6257C55.8354 12.2807 55.7639 11.9129 55.7639 11.52C55.7639 11.1272 55.8354 10.7594 55.9785 10.4144C56.1216 10.0694 56.3177 9.77015 56.5681 9.51659C56.8184 9.26304 57.1153 9.0628 57.4589 8.91698C57.8024 8.77115 58.1742 8.69824 58.5751 8.69824C58.9761 8.69824 59.3479 8.77115 59.6914 8.91698C60.0349 9.0628 60.3308 9.26304 60.5822 9.51659C60.8326 9.77015 61.0298 10.0705 61.1718 10.4144C61.3149 10.7594 61.3864 11.1272 61.3864 11.52C61.3864 11.9129 61.3149 12.2807 61.1718 12.6257C61.0287 12.9706 60.8326 13.2699 60.5822 13.5235C60.3319 13.777 60.0349 13.9773 59.6914 14.1231C59.3479 14.2678 58.9761 14.3418 58.5751 14.3418ZM58.5751 13.3755C58.8255 13.3755 59.0596 13.3298 59.2774 13.2394C59.4952 13.1491 59.686 13.0229 59.8485 12.8618C60.0111 12.7008 60.139 12.506 60.2322 12.2774C60.3243 12.0489 60.3709 11.7954 60.3709 11.5189C60.3709 11.2425 60.3243 10.9901 60.2322 10.7604C60.139 10.5319 60.0122 10.3371 59.8485 10.1761C59.686 10.015 59.4952 9.88986 59.2774 9.79845C59.0596 9.70704 58.8255 9.66242 58.5751 9.66242C58.3248 9.66242 58.0907 9.70812 57.8729 9.79845C57.6551 9.88877 57.4643 10.015 57.3017 10.1761C57.1392 10.3371 57.0113 10.5319 56.9181 10.7604C56.8249 10.989 56.7794 11.2425 56.7794 11.5189C56.7794 11.7954 56.826 12.0489 56.9181 12.2774C57.0102 12.506 57.1381 12.7008 57.3017 12.8618C57.4643 13.0229 57.6551 13.148 57.8729 13.2394C58.0907 13.3309 58.3248 13.3755 58.5751 13.3755Z" fill="white"/>
<path d="M62.2046 8.81836H63.3848L65.549 12.44H65.6086L65.549 11.3986V8.81836H66.5558V14.2204H65.4883L63.2038 10.3952H63.1442L63.2038 11.4367V14.2204H62.2046V8.81836Z" fill="white"/>
</svg>
