<svg xmlns="http://www.w3.org/2000/svg" width="124.783" height="25.409" viewBox="0 0 124.783 25.409">
  <g id="Group_201" data-name="Group 201" transform="translate(-156.345 -286.236)">
    <path id="Path_66" data-name="Path 66" d="M60.135,270.678h1.81v15.99H60.1v-2.511c-.48.443-.96.886-1.477,1.292A7.039,7.039,0,0,1,54,287.038a7.858,7.858,0,0,1-8.162-8.309,8.951,8.951,0,0,1,1.957-5.613,8.349,8.349,0,0,1,6.168-2.77c2.733,0,4.173,1.182,6.168,2.918v-2.586ZM51.05,284.489a6.336,6.336,0,0,0,2.991.7,6.26,6.26,0,0,0,4.69-1.995,7.467,7.467,0,0,0,1.514-4.726,5.771,5.771,0,0,0-3.139-5.466,7.041,7.041,0,0,0-3.176-.739,6.306,6.306,0,0,0-2.733.591c-2.88,1.367-3.36,4.543-3.434,5.577a6.023,6.023,0,0,0,3.287,6.055Z" transform="translate(124.249 20.55)" fill="#fff" fill-rule="evenodd"/>
    <path id="Path_67" data-name="Path 67" d="M111.445,270.774v1.663c.219-.222.438-.407.657-.629a4.568,4.568,0,0,1,3.248-1.292,4.736,4.736,0,0,1,3.066,1.108,11.193,11.193,0,0,1,1.2,1.4,10.457,10.457,0,0,1,1.022-1.256,5.6,5.6,0,0,1,3.576-1.292,4.529,4.529,0,0,1,1.642.258A5.268,5.268,0,0,1,129,273.729a7.707,7.707,0,0,1,.438,2.844v10.192h-1.825v-9.711c0-.37,0-.739-.036-1.108a3.9,3.9,0,0,0-1.533-2.992,3.051,3.051,0,0,0-1.788-.554,3.923,3.923,0,0,0-2.117.665c-1.5,1-1.605,2.475-1.679,4.247v9.453H118.6V276.9c-.037-1.625-.11-2.991-1.5-3.877a3.41,3.41,0,0,0-1.971-.591,3.624,3.624,0,0,0-2.773,1.366c-.657.775-.84,1.477-.912,3.508v9.416h-1.934V270.774Z" transform="translate(78.495 20.454)" fill="#fff" fill-rule="evenodd"/>
    <path id="Path_68" data-name="Path 68" d="M199.836,285.84v-2.579a5.2,5.2,0,0,1-.739.972,6.839,6.839,0,0,1-4.912,1.944,7.675,7.675,0,0,1-3.4-.785c-3.915-1.943-4.174-6.429-4.174-7.586a9.711,9.711,0,0,1,1.736-5.532,7.31,7.31,0,0,1,5.946-3.027,7.175,7.175,0,0,1,4.728,1.831,8.109,8.109,0,0,1,.812.785v-2.317h2.918V285.84Zm-3.286-2.654c2.511-.784,3.47-2.99,3.47-5.493a6.9,6.9,0,0,0-.332-2.317,5.071,5.071,0,0,0-6.98-2.99c-1.219.56-3.029,2.093-3.029,5.382,0,3.026,1.662,5.456,4.875,5.681a5.1,5.1,0,0,0,2-.262Z" transform="translate(23.085 21.341)" fill="#fff" fill-rule="evenodd"/>
    <path id="Path_69" data-name="Path 69" d="M253.7,270.774v1.663c.218-.222.437-.407.656-.629a4.572,4.572,0,0,1,3.248-1.292,4.732,4.732,0,0,1,3.065,1.108,11.114,11.114,0,0,1,1.2,1.4,10.484,10.484,0,0,1,1.022-1.256,5.6,5.6,0,0,1,3.576-1.292,4.527,4.527,0,0,1,1.642.258,5.266,5.266,0,0,1,3.139,2.991,7.712,7.712,0,0,1,.438,2.844v10.192h-1.824v-9.711a11.052,11.052,0,0,0-.037-1.108,3.9,3.9,0,0,0-1.532-2.992,3.052,3.052,0,0,0-1.788-.554,3.925,3.925,0,0,0-2.117.665c-1.5,1-1.606,2.475-1.678,4.247v9.453h-1.861V276.9c-.036-1.625-.109-2.991-1.5-3.877a3.409,3.409,0,0,0-1.97-.591,3.623,3.623,0,0,0-2.773,1.366c-.657.775-.84,1.477-.912,3.508v9.416h-1.934V270.774Z" transform="translate(-23.736 20.454)" fill="#fff" fill-rule="evenodd"/>
    <path id="Path_70" data-name="Path 70" d="M341.459,270.678h1.784v15.99h-1.82v-2.511c-.473.443-.946.886-1.456,1.292a6.881,6.881,0,0,1-4.55,1.588,8.381,8.381,0,0,1-5.352-1.884,8.562,8.562,0,0,1-2.694-6.425,9.032,9.032,0,0,1,1.93-5.613,8.183,8.183,0,0,1,6.079-2.77c2.694,0,4.113,1.182,6.079,2.918v-2.586ZM332.5,284.489a6.422,6.422,0,0,0,7.572-1.293,7.54,7.54,0,0,0,1.493-4.726,5.794,5.794,0,0,0-3.095-5.466,6.859,6.859,0,0,0-3.131-.739,6.138,6.138,0,0,0-2.694.591c-2.84,1.367-3.312,4.543-3.386,5.577a6.051,6.051,0,0,0,3.241,6.055Z" transform="translate(-78.07 20.55)" fill="#fff" fill-rule="evenodd"/>
    <path id="Path_71" data-name="Path 71" d="M13.769,253.786c-.142.327-10.78,25.266-10.842,25.408H.948l3.743-8.537-7.709-16.87h1.907L5.635,268.3s6.056-14.375,6.117-14.517Z" transform="translate(159.363 32.451)" fill="#fff" fill-rule="evenodd"/>
    <path id="Path_72" data-name="Path 72" d="M397.611,253.786c-.143.327-10.78,25.267-10.842,25.409h-1.98l3.742-8.538s-7.557-16.541-7.708-16.871h1.907l6.746,14.519s6.056-14.377,6.118-14.519Z" transform="translate(-116.483 32.451)" fill="#fff" fill-rule="evenodd"/>
  </g>
</svg>
