<svg xmlns="http://www.w3.org/2000/svg" width="104.733" height="19.486" viewBox="0 0 104.733 19.486">
  <g id="Group_200" data-name="Group 200" transform="translate(-17.241 -206.695)">
    <g id="Group_66" data-name="Group 66" transform="translate(17.241 206.695)">
      <g id="Group_65" data-name="Group 65" transform="translate(0 0)">
        <g id="Group_64" data-name="Group 64">
          <path id="Path_63" data-name="Path 63" d="M112.742,206.7h-1.13l-7.362,15.563-.035-15.548h-1.56l.025,16.357L89.614,206.73l-1.255.01.04,19.311h1.559l-.03-16.4,13.127,16.372,1.129-.01,7.983-16.859,8.052,16.834,1.755,0Zm-30.071.04-26.512.045-.01,1.969A8.958,8.958,0,0,0,50.4,206.78a8.856,8.856,0,0,0-6.2,2.386c-1.274-1.547-3.453-2.356-6.3-2.346l-6.9,0L31,208.548a6.69,6.69,0,0,0-1.379-.854,5.9,5.9,0,0,0-.57-.221,11.506,11.506,0,0,0-3.4-.613l-.905-.01c-3.144.005-5.438.844-6.623,2.416a3.257,3.257,0,0,0-.319.487,4.49,4.49,0,0,0-.56,2.256l.005.04a4.6,4.6,0,0,0,2.954,4.356c.185.08.38.16.58.231a11.915,11.915,0,0,0,3.779.613H25a9.984,9.984,0,0,1,3.659.588,4.358,4.358,0,0,1,.49.221,3.109,3.109,0,0,1,1.854,2.9l.005.045a3.118,3.118,0,0,1-.29,1.376,2.2,2.2,0,0,1-.235.392c-.859,1.241-2.789,1.939-5.423,1.944h-.25a9.87,9.87,0,0,1-3.6-.578c-.169-.071-.33-.141-.494-.226a3.133,3.133,0,0,1-1.869-2.9l-.005-.533-1.58.01-.009.508a4.606,4.606,0,0,0,2.968,4.346,4.634,4.634,0,0,0,.575.236,11.623,11.623,0,0,0,3.71.608h.609a9.169,9.169,0,0,0,5.913-1.678v1.648l1.59-.01-.02-7.174,5.209-.01a11.053,11.053,0,0,0,3.518-.512,9.168,9.168,0,0,0,9.108,7.686,8.995,8.995,0,0,0,5.758-1.989v1.979h1.6l-.01-3.652a10.089,10.089,0,0,0,1.624-3.552l3.59-.005c.229,0,.465,0,.7-.025l5.468,7.184,1.964-.01L65.5,218.666a8.27,8.27,0,0,0,1.595-.5,5.74,5.74,0,0,0,.585-.276,5.445,5.445,0,0,0,2.919-5.074v-.045a5.878,5.878,0,0,0-.565-2.6c-.085-.191-.2-.377-.294-.558a5.818,5.818,0,0,0-1.2-1.306l6.808,0,.03,17.758h1.595L76.934,208.3l5.743-.01Zm-53.034,9.9c-.189-.085-.37-.156-.564-.236a12.054,12.054,0,0,0-3.8-.613h-.429a10.008,10.008,0,0,1-3.649-.583,2.641,2.641,0,0,1-.494-.231,3.1,3.1,0,0,1-1.87-2.9l.005-.04a3.175,3.175,0,0,1,.29-1.371,2.487,2.487,0,0,1,.235-.382c.854-1.266,2.8-1.949,5.444-1.959h.164a10.073,10.073,0,0,1,3.68.583c.165.071.33.141.485.221A3.165,3.165,0,0,1,31,212.029l.015,5.456A6.064,6.064,0,0,0,29.637,216.631Zm12.3-.186a3.239,3.239,0,0,1-.485.266,8.507,8.507,0,0,1-3.634.7l-5.219.015-.02-9.058,5.264,0c2.639-.01,4.559.8,5.438,2.3a2.585,2.585,0,0,1,.22.482,4.02,4.02,0,0,1,.329,1.688v.06A3.91,3.91,0,0,1,41.939,216.445Zm16.181.04a9.011,9.011,0,0,1-.1,1.326c-.02.161-.049.327-.085.492a8.322,8.322,0,0,1-1.095,2.763,6.893,6.893,0,0,1-.539.753,7.337,7.337,0,0,1-5.848,2.778,7.819,7.819,0,0,1-7.633-6.842,5.438,5.438,0,0,0,2.6-4.893v-.05a6.118,6.118,0,0,0-.41-2.271,7.555,7.555,0,0,1,11.262.6,7.1,7.1,0,0,1,.544.759,8.637,8.637,0,0,1,1.3,4.536Zm10.556-5.38A4.466,4.466,0,0,1,69,212.8v.05a3.919,3.919,0,0,1-1.874,3.557c-.166.085-.335.181-.506.261a8.573,8.573,0,0,1-3.629.7H59.649c.02-.3.045-.608.045-.9v-.05a10.23,10.23,0,0,0-1.934-6l-.005-2.085,5.269-.005c2.629-.01,4.558.8,5.428,2.3A2.762,2.762,0,0,1,68.675,211.105Zm16.045-4.36.05,19.306H86.35l-.035-19.311Z" transform="translate(-17.241 -206.695)" fill="#fff"/>
        </g>
      </g>
    </g>
  </g>
</svg>
