<svg id="Group_94" data-name="Group 94" xmlns="http://www.w3.org/2000/svg" width="248.094" height="44.516" viewBox="0 0 248.094 44.516">
  <path id="Path_113" data-name="Path 113" d="M153.88,126.923l.084,36.045c-.418,1.842,2.878,1.539,1.842,3.476-1.33,1.644-3.988.837-6.061,1.141-1.853-.283-4.731.638-5.254-1.539-.19-1.623,1.873-1.529,1.642-3.078l-.031-17.75c-.294,1.224-.2,2.993-1.518,3.579a2.376,2.376,0,0,1-2.165-.806c-.5-.617-.315-2.052-1.037-2.146-2.449.4-3.654,3.078-4.292,5.035-.7,4.008-.283,8.719-.3,13.052.324,1.11,2.365.921,1.455,2.448a3.485,3.485,0,0,1-1.32,1.016s-1.768.115-4.511.136c-2.868,0-4.323-.125-4.323-.125a1.554,1.554,0,0,1-1.025-1.236c-.429-.6.209-1.2.617-1.443.387,0,.879-.692,1.016-1.11l-.022-17.752c-.125-1.527-2.574-1.234-2-2.763,2.177-1.946,5.233-1.946,7.641-3.517.6.106,1.308-.083,1.81.314.838,1.121.115,2.973.618,4.293h.323c1.434-1.823,3.172-4.627,5.946-4.511.733.094,2.586-.01,3.088,1.214.021-3.675.4-8.614-1.9-10.57.043-2.555,5.558-2.252,7.327-4.324.691-.3,2.25-.314,2.345.922" transform="translate(-23.499 -123.61)" fill="#fff" fill-rule="evenodd"/>
  <path id="Path_114" data-name="Path 114" d="M200.955,125.934l.241,5.044.147,31c.408.607,1.329.219,1.539.922.324,1.548-.817,2.05-1.948,2.573-2.365.838-4.5,1.948-7.086,2.052-1.13-.292.3-1.423-.816-1.937-1.13,1.33-2.868,2.775-4.636,2.043-3.486-.294-5.454-3.246-6.343-6.113-1.361-6.991-.785-14.8,3.234-20.263a6.37,6.37,0,0,1,4.312-2.041,8.648,8.648,0,0,1,3.087,1.424l.294-.535.1-8.205c-.742-1-3.024-1.423-1.968-3.161.7-.42,1.33-.116,2.355-.5,2.084-.941,4.208-1.884,6.27-2.909a.993.993,0,0,1,1.214.607m-10.111,17.992c-.333-.513-.816-.094-1.14.324-1.873,4.941-2.638,12.226.67,16.747.5.5,1.224.189,1.633-.418,1.517-3.727,1.5-8.227.785-12.329-.409-1.561-.618-3.183-1.948-4.324" transform="translate(-7.546 -123.772)" fill="#fff" fill-rule="evenodd"/>
  <path id="Path_115" data-name="Path 115" d="M73.224,126.438,75.515,136.6a2.094,2.094,0,0,1-1.339,2.365,2.69,2.69,0,0,1-2.574-.71c-1.549-2.345-1.832-5.432-4.324-7.276-.7-.093-1.318,0-1.4.723l.137,32.132a2.913,2.913,0,0,0,2.156,1.937,2.392,2.392,0,0,0,1.644-1.623l-.032-17.772c-.1-1-2.982-1.318-2.167-2.46,2.669-1.224,5.442-2.166,7.986-3.517.744-.115,1.873,0,2.074.828l.136,22.9c-.094,1.224,1.56,1.026,1.851,2.146.4-.932,1.549-1.119,1.633-2.146l-.041-17.458c0-1.443-2.763-1.644-1.926-2.785,2.449-1.108,4.919-2.259,7.368-3.391.828-.408,2.168-.418,2.449.608a3.874,3.874,0,0,0,.219,1.851c1.152.514,1.152-1.015,1.885-1.455,1.507-1.527,4.186-1.527,6.039-.816,1.527.189,1.623,2.345,3.087,2.261.691-.932,1.11-1.968,2.25-2.386,1.842-.2,3.779-.3,5.234.816,3.286,3.287,3.3,8,3.8,12.414.429,3.809.754,7.4,1.172,11.3.2.585.5.271,1.015.585v-.816l-.062-31.5c0-2.156-2.041-2.156-1.728-3.6,1.947-2.354,5.433-2.03,7.683-3.9a1.955,1.955,0,0,1,1.946,1.016l.043,14.065c.806.828,1.225-.5,2.166-.816a5.611,5.611,0,0,1,5.725,1.842c2.691,2.869,3.192,6.563,3.82,10.236h.115c.6-4.5,1.507-10.047,6.332-11.8a7.168,7.168,0,0,1,6.763.6c2.878,2.471,4.877,6.762,3.935,10.676-3.5,1.654-6.878,2.994-9.745,4.312.294,1.759.817,3.706,2.48,4.741,1.141.492,2.764,1.2,3.81.094.482-.932.19-2.574,1.424-2.679.922,0,1.937.1,2.355,1.025,1.141,2.135.429,4.605-.9,6.447-2.271,2.471-6.27,2.7-9.441,1.885-4.868-1.527-6.091-6.741-6.909-11.073-.219,4.521-1.015,9.732-5.631,11.4-2.784.723-6.458.115-7.692-1.632-.409-.523-.325-1.414-1.246-1.414-1.549,0-1.32,2.848-3.308,3.078-.91.3-1.5-.524-1.841-1.037-.179.513-.367.639-1.214.807.1.021-7.809.146-8.511-.063-.742-.084-.742-.524-.921-.816-.523-1.445,1.32-.733,1.445-1.948a89.741,89.741,0,0,0-.984-16.432,3.238,3.238,0,0,0-1.633-2.679c-.826-.377-1.653.732-1.748,1.256l-.062,17.145c-.115,1.622,2.574,1.214,1.4,2.95-2.218,1.152-6.028.524-8.812.545a5.994,5.994,0,0,1-1.016-.209c-.5-.1-.732-1.318-.314-1.529,1.131-.115,1.529-1.234,1.738-2.155.1-5.256.062-16.737-.231-17.553a1.486,1.486,0,0,0-1.831-.828,2.135,2.135,0,0,0-1.769,1.957l.146,16.945c-.3,1.33,2.25,1.11,1.318,2.639l-.8.648a47.23,47.23,0,0,1-9.357.094c-.513-.3-1.214-.7-1.234-1.518a1.815,1.815,0,0,1-.9,1.32,50.553,50.553,0,0,1-9.67.125c-.188-.209-.607-.292-.816-.628-1.539,1.256-3.9.733-5.966.848-2.753,0-4.816.418-7.1-.5a1.232,1.232,0,0,1-.4-1.33,2.884,2.884,0,0,0,1.946-1.947l-.041-31.839c-.115-.921-.733-.817-.931-1.109a2.524,2.524,0,0,0-2.252,1.632c-1.841,2.157-1.318,7.2-5.411,6.468-.523-.408-1.077-.711-1.276-1.34A104.416,104.416,0,0,1,48.9,126.383c.315-.312.6-.921,1.215-.8a1.566,1.566,0,0,1,1.538.8c5.558.2,12.435.189,18.473-.041.618-1.131,2.91-1.644,3.1.1m68.4,17.029c-.806-.5-1.925.544-2.155,1.141-.378,2.438-.587,5.734.638,8.111a12.749,12.749,0,0,0,2.982-1.34c1.225-1.318,1.32-2.972.2-5.159Zm-17.437.449c-.733,0-1.842,3.38-2.24,5.233-.408,4.218-.607,8.928,1.769,12.319.6.608,1.109-.417,1.392-.7,2.377-4.124,1.937-9.672.733-14.173-.314-1.057-.44-2.689-1.654-2.679" transform="translate(-46.744 -123.762)" fill="#fff" fill-rule="evenodd"/>
  <path id="Path_116" data-name="Path 116" d="M187.7,140.229c2.062,4.427,2.386,9.66,2.784,14.706.221,2.228-.461,6.049,1.78,7.377a1.3,1.3,0,0,1-.094,1.434l-.817.42c-2.868.2-5.966.513-9.159-.3a1.171,1.171,0,0,1-.312-1.34c2.585-1.2,1.351-5.349,1.549-7.567-.744-4.228-1.258-8.563-3.2-12.31a1.058,1.058,0,0,0-1.152-.429l-.7.7.231,17.469c.085.817.314,1.832,1.34,1.937a1.407,1.407,0,0,1-.1,1.539,26.567,26.567,0,0,1-9.127.544,2.066,2.066,0,0,1-1.34-1.119,4.174,4.174,0,0,1-2.952,1.224c-2.281.116-3.516-1.119-4.95-2.146a20.73,20.73,0,0,1-2.973,1.842c-2.145,1.152-4.835.44-6.793-.586-2.773-1.549-3.2-4.5-3.276-7.389-.241-4.208,3.56-7.19,6.94-8.845,1.035-.407,3.087-.5,3.485-1.747.094-1.675.1-4.019-1.548-5.233-1.026,0-2.136-.418-3.181,0-.807,1.15,1.025.921,1.348,1.925a4.054,4.054,0,0,1-.617,2.9c-1.035,1.224-2.866.932-4.3.732a4.682,4.682,0,0,1-1.654-2.05c-.219-1.561-.219-3.183.742-4.3,2.617-3.119,7.253-2.785,10.938-2.4a5.243,5.243,0,0,1,4.532,3.392c1.675,5.809,1.779,11.984,2.1,18.254.514,2.156,1.633-.408,2.156,1.644l.324,1.841c1.006,0,1.215-1,1.518-1.632l-.147-17.772c-.187-1.424-2.636-1.414-1.82-2.951,2.03-1.549,4.7-2.072,6.971-3.424.912-.2,1.832,0,2.019.828.314.314-.187,1.025.42,1.234.953-1.14,1.737-2.176,3.171-2.376,2.806-.1,4.753,1.738,5.872,3.978m-28.824,9.305a4.4,4.4,0,0,0-2.764,2.385c-.6,2.367-.91,7.37,1.246,8.008a1.849,1.849,0,0,0,2.167-.533,37.364,37.364,0,0,0-.334-9.461Z" transform="translate(-17.146 -120.578)" fill="#fff" fill-rule="evenodd"/>
  <path id="Path_117" data-name="Path 117" d="M243.83,151.175a19.09,19.09,0,0,1-5.128,5.233c-9.955-.283-19.405-2.847-29.275-3.224l-.828-.921c11.617-2.691,23.624,1.381,35.231-1.088" transform="translate(0.375 -116.232)" fill="#fff" fill-rule="evenodd"/>
  <path id="Path_118" data-name="Path 118" d="M231.669,156.238l5.421.387c-5.86,4.345-15.815,4.449-22.168.879a30.746,30.746,0,0,1-5.034-3.913c7.588.189,14.476,1.946,21.781,2.647" transform="translate(0.75 -115.528)" fill="#fff" fill-rule="evenodd"/>
  <path id="Path_119" data-name="Path 119" d="M226.156,124.18c1.246,2.05,2.177,4.323,3.423,6.332l.89-.093a39.244,39.244,0,0,0-2.439-6.135c3.066-1.046,2.857,2.953,4.29,4.4,1.56-.314,3-1.56,4.533-2.156.48,0,.722.492.994.713l-4.093,3.5a9.378,9.378,0,0,0,1.162,3.58l4.605-6.155c.523.084.826.7,1.256.922a31.309,31.309,0,0,0-2.084,3.181l.315.189c2.041.638,5.735-1.32,6.385,1.841l-4.616.42-2.041,3.474c2.847.42,5-1.486,7.463-2.324l1.025,1.811a40.589,40.589,0,0,1-9.545,3.108c-.5.733-.826,1.529-1.32,2.262,3.8-.816,7.7-1.864,11.576-2.89a22.223,22.223,0,0,1-2.114,17.249l-1.224.722c-12.006,2.376-23.707-1.5-35.628.89-4.093-5.651-5.485-14.36-2.586-20.933l4.7-.23-.009-.408c-.367-1.645-4.115-3.277-1.518-5.015a43.208,43.208,0,0,1,4.616,4.9,3.9,3.9,0,0,0,1.653-.1l-5.149-5.934c.377-.91,1.434-1.434,2.146-2.167l4.333.921a23.856,23.856,0,0,0,.1-3.694,18.211,18.211,0,0,1,2.857-1.246l2.46,4.919,3.183-5.85Zm.031,4.206-2.041,4.511a11.466,11.466,0,0,0,1.225,4.312c2.355-.618,1.758-3.39,2.355-5.128Zm-6.8.209c.22.828-.7,2.973,1.046,2.461Zm-5.725,2.764,3.286,3.391c.125-.806.125-1.622.209-2.449-1.13-.292-2.271-.732-3.5-.941m17.049,1.738.178.292c.209-.189.533-.408.554-.711a.982.982,0,0,0-.732.42m-11.1.312v3.81l1.675-3.286a3.841,3.841,0,0,0-1.675-.524m18.7,1.4a12.552,12.552,0,0,1-1.351.208l-2.115,3.3c.377,0,1.1.116,1.4.116Zm-8.844,2.722.23,4.081c1.109-1.947,4.3-3.6,2.972-6.364a15.816,15.816,0,0,0-3.2,2.283m-5.935,3.474-1.025-4-.828,1.935Zm3.392-2.261c-1.434-.2-1.35,2.46-.116,2.574Zm-12.32.544-1.863,2.241,3.087,1.338,3.287-2.354c-.523-2.156-3.087-.828-4.511-1.225m-7.1.418,1.841.9c1.037.733,1.132-.5,1.675-1a32.722,32.722,0,0,0-3.516.1m14.694,3.56-1.265-1.215c-1.926,1.006-3.56,3.591-5.726,4.312h-2.533a6.431,6.431,0,0,0,1.2-1.842,9.264,9.264,0,0,0-2.658-.9,19.924,19.924,0,0,1-2.177,2.741h-1.33c.01,2.367.136,5.15,1.256,7.2,5.118.084,10.894.806,16.233,1.423l-.041-8.017-1.016-1.56a6.2,6.2,0,0,1-2.972.931,28.181,28.181,0,0,1-4.417,0Zm-14.286-1.193-.219,2.448a5.405,5.405,0,0,0,1.267-1.946Zm38.611,1.779a4.58,4.58,0,0,0-.293-.723c-.523.2-1.256.3-2.041.5l1.6,3.087-2.647-.084c-.189-.334-.325-.722-.607-1.256-.106-.2-.639-1.214-.535-1.214a28.561,28.561,0,0,1-3.371.711c.2.713.409,1.141.608,1.738l-2.125.021a12.327,12.327,0,0,1-.837-1.32c-2.491.713-4.8,1.424-7.315,2.137a41.854,41.854,0,0,0,.857,8.226,74.86,74.86,0,0,0,13.774,1.109,17.449,17.449,0,0,0,2.931-12.936m-11.816-2.68a7.166,7.166,0,0,0-1.33.022l-1.737,2.888a6.111,6.111,0,0,0,1.632-.42Z" transform="translate(-0.718 -124.111)" fill="#fff" fill-rule="evenodd"/>
</svg>
