<?xml version="1.0" encoding="utf-8"?>
<!-- Generator: Adobe Illustrator 23.0.3, SVG Export Plug-In . SVG Version: 6.00 Build 0)  -->
<svg version="1.1" id="Layer_1" xmlns="http://www.w3.org/2000/svg" xmlns:xlink="http://www.w3.org/1999/xlink" x="0px" y="0px"
	 viewBox="0 0 24.5 22.5" style="enable-background:new 0 0 24.5 22.5;" xml:space="preserve">
<g id="Path_17">
	<path d="M12.2,22.5c-0.1,0-0.3,0-0.4-0.1c-2.1-1.2-4.1-2.5-5.9-4.1c-3.9-3.5-6-7.3-6-11C0,3.5,3,0.2,6.9,0c2.1,0,4,0.9,5.3,2.4
		C13.6,0.9,15.5,0,17.5,0l0,0c3.9,0.2,6.9,3.4,6.9,7.4c0,3.7-2.1,7.5-6,11c-1.8,1.6-3.8,3-5.8,4.1C12.5,22.5,12.4,22.5,12.2,22.5z
		 M7,1C3.6,1.2,1,4,1,7.4c0,3.4,1.9,6.9,5.6,10.2c1.7,1.5,3.6,2.8,5.6,3.9c2-1.1,3.9-2.4,5.6-3.9c3.7-3.3,5.6-6.8,5.6-10.2
		c0-3.4-2.6-6.2-6-6.4c-1.9,0-3.8,1-4.9,2.5l-0.4,0.6l-0.4-0.6C10.7,2,8.9,1,7,1z"/>
</g>
</svg>
