<svg xmlns="http://www.w3.org/2000/svg" width="11.768" height="15.877" viewBox="0 0 11.768 15.877">
  <g id="Group_903" data-name="Group 903" transform="translate(-434.737 -90.535)">
    <path id="Path_658" data-name="Path 658" d="M13.905,228.691a2.041,2.041,0,1,1-2.041,2.041A2.042,2.042,0,0,1,13.905,228.691Z" transform="translate(423.64 -138.156)" fill="#fff" fill-rule="evenodd"/>
    <g id="Group_902" data-name="Group 902" transform="translate(434.737 96.149)">
      <path id="Path_641" data-name="Path 641" d="M56.772,292.533q-.288,0-.288.331v3.4q0,.332.288.332c.191,0,.286-.111.286-.332v-3.4C57.058,292.643,56.963,292.533,56.772,292.533Z" transform="translate(-49.395 -289.101)" fill="#fff"/>
      <path id="Path_642" data-name="Path 642" d="M22.107,303.522v1.846c0,.221.1.332.288.332s.288-.111.288-.332v-2.23C22.3,303.207,22.106,303.335,22.107,303.522Z" transform="translate(-19.889 -298.203)" fill="#fff"/>
      <path id="Path_643" data-name="Path 643" d="M17.3,268.315a1.158,1.158,0,0,1,.031.267,1.136,1.136,0,0,1-1.137,1.137h0a1.137,1.137,0,0,1-1.137-1.137c0-.025,0-.05,0-.074-2.643.571-4.9,2.054-8.6.816V276.9h0a1.68,1.68,0,0,0,1.679,1.679h8.407a1.68,1.68,0,0,0,1.679-1.679l0-8.469A7.326,7.326,0,0,0,17.3,268.315Zm-7.053,8.2h-1v-.2c-.078.178-.312.267-.7.267q-.868,0-.868-.769v-1.963a.938.938,0,0,1,.2-.595,3.2,3.2,0,0,1,.865-.633q.463-.218.505-.35v-.848q0-.333-.288-.332c-.191,0-.288.111-.288.332v.936H7.68v-.936a.983.983,0,0,1,.232-.691,7.741,7.741,0,0,0,2.216.161,1.1,1.1,0,0,1,.118.53Zm1.662,0h-.995V270.8c.339-.055.67-.126.995-.207Zm3.207-1.031a1.031,1.031,0,0,1-.285.866,1.167,1.167,0,0,1-.706.209.874.874,0,0,1-.578-.213v.17h-.995v-6.088c.333-.094.664-.193.995-.288v1.1a1.486,1.486,0,0,1,.8-.191.855.855,0,0,1,.538.184q.236.184.235.847Zm1.644,1.031h-.984V270.39h.984Z" transform="translate(-6.457 -268.315)" fill="#fff"/>
    </g>
    <path id="Path_659" data-name="Path 659" d="M18.225,240.705v2.617c-5.406-.352-6.646,3.805-11.768,1.419v-1.824C11.52,245.65,12.878,240.371,18.225,240.705Z" transform="translate(428.28 -148.455)" fill="#fff"/>
    <path id="Path_660" data-name="Path 660" d="M69.964,264.138a.859.859,0,1,1-.858.859A.859.859,0,0,1,69.964,264.138Z" transform="translate(374.509 -168.581)" fill="#fff" fill-rule="evenodd"/>
  </g>
</svg>
