<svg width="16" height="16" viewBox="0 0 16 16" fill="none" xmlns="http://www.w3.org/2000/svg">
<path d="M8 16C3.58545 16 0 12.4145 0 8C0 3.58545 3.58545 0 8 0C12.4145 0 16 3.58545 16 8C16 12.4145 12.4145 16 8 16ZM8 1.45455C4.39273 1.45455 1.45455 4.39273 1.45455 8C1.45455 11.6073 4.39273 14.5455 8 14.5455C11.6073 14.5455 14.5455 11.6073 14.5455 8C14.5455 4.39273 11.6073 1.45455 8 1.45455Z" fill="black"/>
<path d="M7.99998 11.6363C7.59998 11.6363 7.27271 11.3091 7.27271 10.9091V7.99998C7.27271 7.59998 7.59998 7.27271 7.99998 7.27271C8.39998 7.27271 8.72725 7.59998 8.72725 7.99998V10.9091C8.72725 11.3091 8.39998 11.6363 7.99998 11.6363Z" fill="black"/>
<path d="M7.99998 5.81836C7.90543 5.81836 7.81089 5.79654 7.72361 5.76018C7.62907 5.72381 7.55634 5.6729 7.48361 5.60745C7.35271 5.46927 7.27271 5.28018 7.27271 5.09109C7.27271 5.04745 7.27998 4.99654 7.28725 4.9529C7.29452 4.902 7.30907 4.85836 7.33089 4.81472C7.34543 4.77109 7.36725 4.72745 7.39634 4.68381C7.41816 4.64745 7.45452 4.61109 7.48361 4.57472C7.55634 4.50927 7.62907 4.45836 7.72361 4.42199C7.99271 4.30563 8.31271 4.37836 8.51634 4.57472C8.54543 4.61109 8.5818 4.64745 8.60361 4.68381C8.63271 4.72745 8.65452 4.77109 8.66907 4.81472C8.69089 4.85836 8.70543 4.902 8.7127 4.9529C8.71998 4.99654 8.72725 5.04745 8.72725 5.09109C8.72725 5.28018 8.64725 5.46927 8.51634 5.60745C8.47998 5.63654 8.44361 5.66563 8.40725 5.69472C8.36361 5.72381 8.31998 5.74563 8.27634 5.76018C8.23271 5.78199 8.18907 5.79654 8.14543 5.80381C8.09452 5.81109 8.04361 5.81836 7.99998 5.81836Z" fill="black"/>
</svg>
