<svg width="53" height="29" viewBox="0 0 53 29" fill="none" xmlns="http://www.w3.org/2000/svg">
<path d="M22.7894 27.7599C23.2659 27.1956 30.3254 23.8272 31.3228 22.2367L49.642 22.2367C51.5039 22.2367 53 20.8411 53 19.1274V3.10924C53 1.3853 51.4928 1.38493e-06 49.642 1.30937e-06L17.5696 0C15.7077 -7.60106e-08 14.2116 1.39556 14.2116 3.10923L14.2116 10.0871L16.8492 9.79973C16.9379 9.70738 16.9933 9.64581 17.0819 9.55346V6.47501C17.5252 6.57762 18.0129 6.60841 18.5116 6.52631C19.8969 6.30056 21.0162 5.28467 21.2711 4.00199C21.3708 3.52996 21.3376 3.06819 21.2268 2.64747L46.1954 2.64747C46.1622 2.83218 46.14 3.02714 46.14 3.22211C46.14 4.96657 47.6694 6.37239 49.5423 6.37239C49.7418 6.37239 49.9413 6.35187 50.1407 6.32108V15.8848C49.9413 15.854 49.7418 15.8335 49.5423 15.8335C47.6583 15.8335 46.14 17.2393 46.14 18.9838C46.14 19.1787 46.1622 19.3737 46.1954 19.5584L14.8211 19.5584C15.6856 18.4707 18.3897 17.2598 18.3897 17.2598C18.3897 17.2598 25.5821 16.6647 25.5821 13.2886C25.5821 13.1963 25.5821 13.1142 25.5711 13.0218C25.5711 13.0218 25.3383 10.4667 17.4477 12.5806L8.68148 13.5247C8.68148 13.5247 5.21981 14.5816 1.92834 17.4959H0.953088C0.432215 17.4959 4.85352e-07 17.8858 4.62299e-07 18.3783L0 25.3485C-2.11311e-08 25.8 0.36572 26.1694 0.842263 26.2207C4.25564 26.5594 15.6523 27.8728 17.5806 28.6424C17.891 28.7656 18.2013 28.8682 18.5337 28.9092C19.6198 29.0837 21.6146 29.1452 22.7894 27.7599Z" fill="black"/>
<path d="M42.0616 11.4621C42.0616 12.5049 42.9745 13.3502 44.1007 13.3502C45.2269 13.3502 46.1399 12.5049 46.1399 11.4621C46.1399 10.4193 45.2269 9.57401 44.1007 9.57401C42.9745 9.57401 42.0616 10.4193 42.0616 11.4621Z" fill="black"/>
<path d="M33.3732 4.2996C29.8601 4.2996 26.9232 6.57765 26.1807 9.62532C26.3691 9.71767 26.5353 9.81002 26.7127 9.9229C28.2974 10.9285 28.5856 12.2933 28.6299 12.7551C28.6521 12.9398 28.6632 13.1245 28.6632 13.3092C28.6632 13.9659 28.5302 14.8587 27.9982 15.7822C29.3392 17.106 31.2564 17.9371 33.3732 17.9371C37.4404 17.9371 40.743 14.8792 40.743 11.1132C40.743 7.34726 37.4404 4.2996 33.3732 4.2996Z" fill="black"/>
</svg>
