<svg width="38" height="35" viewBox="0 0 38 35" fill="none" xmlns="http://www.w3.org/2000/svg">
<path d="M16.8341 26.9004C17.501 27.0379 17.8705 27.6846 17.685 28.2955C17.4794 28.9159 16.852 29.1903 16.2909 29.0264C15.6487 28.8201 15.3804 28.1968 15.5466 27.6583C15.7329 27.0869 16.285 26.7994 16.8341 26.9004Z" fill="black"/>
<path d="M16.3973 24.3705C17.3845 24.5519 18.0886 23.4962 17.5447 22.6848C17.1871 22.1654 16.4539 22.022 15.907 22.4456C15.176 23.0499 15.4778 24.1832 16.3973 24.3705Z" fill="black"/>
<path d="M16.834 17.5358C17.506 17.6741 17.8712 18.3303 17.6849 18.9302C17.4859 19.5433 16.86 19.8279 16.2908 19.6618C15.6545 19.4577 15.3795 18.8432 15.5464 18.293C15.7379 17.7172 16.2893 17.4356 16.834 17.5358Z" fill="black"/>
<path d="M12.9163 28.2955C13.1034 27.6795 12.7278 27.0364 12.0654 26.9004C11.5163 26.7994 10.9642 27.0869 10.7779 27.6583C10.6117 28.1968 10.88 28.8201 11.5223 29.0264C12.0833 29.1903 12.7107 28.9159 12.9163 28.2955Z" fill="black"/>
<path d="M12.7761 22.6848C13.3208 23.4977 12.6145 24.5519 11.6287 24.3705C10.7093 24.1832 10.4075 23.0499 11.1384 22.4456C11.6816 22.0249 12.4155 22.161 12.7761 22.6848Z" fill="black"/>
<path d="M12.9163 18.9302C13.1033 18.3281 12.7337 17.6733 12.0654 17.5358C11.5185 17.4356 10.9686 17.7202 10.7778 18.293C10.6087 18.8505 10.8956 19.4643 11.5229 19.6618C12.0691 19.825 12.7121 19.5594 12.9163 18.9302Z" fill="black"/>
<path d="M7.2968 26.9004C7.95919 27.0364 8.33472 27.6795 8.1477 28.2955C7.93908 28.9247 7.30798 29.1881 6.75363 29.0264C6.11136 28.8201 5.84312 28.1953 6.00928 27.6583C6.19332 27.0928 6.74171 26.7987 7.2968 26.9004Z" fill="black"/>
<path d="M7.6045 24.2622C8.18791 23.9498 8.37419 23.2321 8.0076 22.6848C7.454 21.8808 6.18734 22.1149 5.98244 23.0799C5.81032 23.982 6.7469 24.6924 7.6045 24.2622Z" fill="black"/>
<path d="M7.29666 17.5358C7.96726 17.6741 8.33385 18.3296 8.14757 18.9302C7.95086 19.5367 7.32796 19.8294 6.75349 19.6618C6.1127 19.4563 5.84371 18.8395 6.00912 18.293C6.19913 17.7231 6.74603 17.4348 7.29666 17.5358Z" fill="black"/>
<path fill-rule="evenodd" clip-rule="evenodd" d="M33.2314 29.1471V17.4414C33.2314 16.8356 32.7307 16.344 32.1137 16.344L22.5765 16.344C21.9595 16.344 21.4588 16.8356 21.4588 17.4414V29.1471C21.4588 29.7529 21.9595 30.2445 22.5765 30.2445L32.1137 30.2445C32.7307 30.2445 33.2314 29.7529 33.2314 29.1471ZM23.6941 28.0497V18.5388L30.9961 18.5388V28.0497H23.6941Z" fill="black"/>
<path fill-rule="evenodd" clip-rule="evenodd" d="M21.3098 3.29224V11.6617L34.6471 11.6617C36.4956 11.6617 38 13.1388 38 14.9539V31.7078C38 33.5229 36.4956 35 34.6471 35L3.35294 35C1.50435 35 0 33.5229 0 31.7078V14.9539C0 13.1388 1.50435 11.6617 3.35294 11.6617H4.76863V3.29223C4.76863 1.47712 6.27298 0 8.12157 0H17.9569C19.8055 0 21.3098 1.47712 21.3098 3.29224ZM3.35294 13.8565C2.73675 13.8565 2.23529 14.3489 2.23529 14.9539L2.23529 31.7078C2.23529 32.3128 2.73675 32.8052 3.35294 32.8052H34.6471C35.2633 32.8052 35.7647 32.3128 35.7647 31.7078V14.9539C35.7647 14.3489 35.2633 13.8565 34.6471 13.8565L3.35294 13.8565ZM16.625 2.33333H14.25V11.6667H16.625V2.33333Z" fill="black"/>
</svg>
