<svg width="24" height="24" viewBox="0 0 24 24" fill="none" xmlns="http://www.w3.org/2000/svg">
<g clip-path="url(#clip0)">
<path d="M11.9 0C8.67 0 8.26 0.01 7 0.07C6.01 0.09 5.03 0.28 4.1 0.62C3.31 0.93 2.59 1.39 2 2C1.39 2.59 0.92 3.31 0.62 4.1C0.28 5.03 0.09 6 0.07 6.99C0.01 8.26 0 8.66 0 11.9C0 15.14 0.01 15.54 0.07 16.8C0.09 17.79 0.28 18.76 0.62 19.69C0.92 20.49 1.39 21.21 2 21.8C2.59 22.4 3.31 22.87 4.1 23.17C5.02 23.52 6 23.7 6.99 23.72C8.26 23.78 8.66 23.79 11.89 23.79C15.12 23.79 15.53 23.78 16.79 23.72C17.78 23.7 18.75 23.51 19.68 23.17C21.28 22.55 22.54 21.29 23.16 19.69C23.51 18.77 23.69 17.79 23.71 16.8C23.77 15.53 23.78 15.13 23.78 11.9C23.78 8.67 23.76 8.26 23.71 7C23.69 6.01 23.51 5.03 23.17 4.1C22.87 3.31 22.4 2.59 21.8 2C21.21 1.39 20.48 0.92 19.69 0.62C18.77 0.27 17.79 0.09 16.8 0.07C15.53 0.01 15.13 0 11.9 0ZM11.9 2.14C15.08 2.14 15.45 2.16 16.71 2.21C17.46 2.22 18.21 2.36 18.92 2.62C19.96 3.02 20.78 3.84 21.17 4.88C21.43 5.59 21.57 6.33 21.58 7.09C21.64 8.35 21.65 8.72 21.65 11.9C21.65 15.08 21.64 15.45 21.58 16.71C21.57 17.46 21.43 18.21 21.16 18.92C20.97 19.44 20.66 19.9 20.27 20.29C19.89 20.68 19.42 20.99 18.9 21.18C18.19 21.44 17.44 21.58 16.68 21.59C15.42 21.65 15.04 21.66 11.86 21.66C8.68 21.66 8.3 21.65 7.04 21.59C6.28 21.58 5.53 21.44 4.82 21.17C4.3 20.98 3.84 20.67 3.45 20.28C3.05 19.9 2.75 19.43 2.56 18.91C2.3 18.2 2.16 17.45 2.14 16.69C2.09 15.44 2.08 15.05 2.08 11.89C2.08 8.73 2.1 8.33 2.14 7.07C2.15 6.31 2.29 5.56 2.56 4.86C2.75 4.34 3.05 3.87 3.45 3.49C3.83 3.09 4.3 2.79 4.82 2.6C5.52 2.34 6.27 2.2 7.02 2.18C8.28 2.13 8.66 2.12 11.84 2.12L11.9 2.14ZM11.9 5.79C8.53 5.79 5.79 8.52 5.78 11.89C5.78 15.26 8.51 18 11.88 18.01C15.25 18.01 17.99 15.28 18 11.91C18 8.53 15.27 5.79 11.9 5.79ZM11.9 15.86C9.71 15.86 7.93 14.09 7.93 11.9C7.93 9.71 9.7 7.93 11.89 7.93C14.08 7.93 15.86 9.7 15.86 11.89C15.86 11.89 15.86 11.89 15.86 11.9C15.86 14.09 14.09 15.86 11.9 15.86ZM19.67 5.55C19.67 6.34 19.03 6.98 18.24 6.98C17.45 6.98 16.81 6.34 16.81 5.55C16.81 4.76 17.45 4.12 18.24 4.12C19.03 4.12 19.67 4.76 19.67 5.55Z" fill="#8A3AB9"/>
</g>
<defs>
<clipPath id="clip0">
<rect width="23.78" height="23.79" fill="white"/>
</clipPath>
</defs>
</svg>
