<svg xmlns="http://www.w3.org/2000/svg" width="15.484" height="15.014" viewBox="0 0 15.484 15.014">
  <g id="Group_928" data-name="Group 928" transform="translate(-55.174 -91.675)">
    <path id="Icon_ionic-ios-arrow-down" data-name="Icon ionic-ios-arrow-down" d="M12.364,16.178l3.669-3.673a.879.879,0,0,1,1.246,0,.89.89,0,0,1,0,1.25l-4.29,4.294a.881.881,0,0,1-1.217.026L7.445,13.759a.883.883,0,1,1,1.246-1.25Z" transform="translate(73.481 86.813) rotate(90)"/>
    <path id="Icon_ionic-ios-arrow-down-2" data-name="Icon ionic-ios-arrow-down" d="M12.364,16.178,20.739,7.8a.879.879,0,0,1,1.246,0,.89.89,0,0,1,0,1.25l-9,9a.881.881,0,0,1-1.217.026C11.759,18.1,12.364,16.178,12.364,16.178Z" transform="translate(60.265 78.017) rotate(45)"/>
  </g>
</svg>
