<svg xmlns="http://www.w3.org/2000/svg" width="14.226" height="14.226" viewBox="0 0 14.226 14.226">
  <path id="Icon_ionic-md-exit" data-name="Icon ionic-md-exit" d="M10.111,14.458l1.106,1.106,3.952-3.952L11.218,7.661,10.111,8.768l2.055,2.055H4.5V12.4h7.626ZM17.145,4.5H6.081A1.585,1.585,0,0,0,4.5,6.081V9.242H6.081V6.081H17.145V17.145H6.081V13.984H4.5v3.161a1.585,1.585,0,0,0,1.581,1.581H17.145a1.585,1.585,0,0,0,1.581-1.581V6.081A1.585,1.585,0,0,0,17.145,4.5Z" transform="translate(-4.5 -4.5)"/>
</svg>
