<?xml version="1.0" encoding="utf-8"?>
<!-- Generator: Adobe Illustrator 22.0.0, SVG Export Plug-In . SVG Version: 6.00 Build 0)  -->
<svg version="1.1" id="Layer_1" xmlns="http://www.w3.org/2000/svg" xmlns:xlink="http://www.w3.org/1999/xlink" x="0px" y="0px"
	 viewBox="0 0 185.8 79.8" style="enable-background:new 0 0 185.8 79.8;" xml:space="preserve">
<style type="text/css">
	.st0{fill-rule:evenodd;clip-rule:evenodd;fill:#EC1C24;}
	.st1{fill:#EC1C24;}
	.st2{fill:#FFFFFF;}
	.st3{fill:#F9A51A;}
	.st4{fill-rule:evenodd;clip-rule:evenodd;fill:#F9A51A;}
</style>
<g>
	<path class="st0" d="M14.1,0c5.7,0,10.3,4.6,10.3,10.3c0,5.7-4.6,10.3-10.3,10.3c-5.7,0-10.3-4.6-10.3-10.3C3.8,4.6,8.4,0,14.1,0z"
		/>
	<path class="st1" d="M59.1,71.3c0,2.3-0.9,4.4-2.5,6c-1.5,1.5-3.6,2.5-6,2.5H8.4c-2.3,0-4.4-0.9-6-2.5C1,75.8,0,73.7,0,71.3h0
		c0,0,0-25.4,0-38.1c18.6,6.2,29.9-1.2,43.2-4.1c0,0.1,0,0.2,0,0.4h0v0l0,0h0c0,1.6,0.6,3,1.7,4c1,1,2.5,1.7,4,1.7v0l0,0l0,0v0
		c1.6,0,3-0.6,4-1.7c1-1,1.7-2.5,1.7-4h0l0,0v0h0c0-0.5-0.1-0.9-0.2-1.3c1.5,0.1,3.1,0.3,4.7,0.6L59.1,71.3z"/>
	<path class="st2" d="M19,69.4h-5v-1c-0.4,0.9-1.6,1.3-3.5,1.3c-2.9,0-4.4-1.3-4.4-3.9V56c0-1.1,0.3-2.1,1-3
		c0.7-0.8,2.1-1.9,4.3-3.2c1.6-0.7,2.4-1.3,2.5-1.8v-4.3c0-1.1-0.5-1.7-1.4-1.7c-1,0-1.4,0.6-1.4,1.7v4.7h-5v-4.7
		c0-1.5,0.4-2.6,1.2-3.5c4,0.9,7.7,1.1,11.1,0.8c0.4,0.7,0.6,1.6,0.6,2.7V69.4L19,69.4z M14,64.2V53c-1.9,0.4-2.9,1-2.9,1.9v9.3
		c0,1.1,0.5,1.7,1.4,1.7C13.6,65.9,14,65.3,14,64.2L14,64.2z M27.4,69.4h-5V40.7c1.7-0.3,3.4-0.6,5-1V69.4L27.4,69.4z M35.6,68.5
		v0.9h-5V38.8c1.7-0.5,3.3-1,5-1.4v5.5c1-0.6,2.4-1,4-1c1,0,1.9,0.3,2.7,0.9c0.8,0.6,1.2,2,1.2,4.3v17.1c0,2.2-0.5,3.6-1.4,4.3
		c-1,0.7-2.1,1.1-3.5,1.1C37.4,69.6,36.5,69.2,35.6,68.5L35.6,68.5z M38.5,64.2V47.1c0-1.1-0.5-1.7-1.4-1.7c-1,0-1.4,0.6-1.4,1.7
		v17.1c0,1.1,0.5,1.7,1.4,1.7C38,65.9,38.5,65.3,38.5,64.2L38.5,64.2z M51.8,69.4h-4.9V38.6h4.9V69.4z"/>
	<path class="st3" d="M59.1,8.6v13.1C32,20,25.7,40.9,0,28.9v-9.2C25.4,33.5,32.3,6.9,59.1,8.6z"/>
	<path class="st4" d="M48.9,25.2c2.4,0,4.3,1.9,4.3,4.3c0,2.4-1.9,4.3-4.3,4.3c-2.4,0-4.3-1.9-4.3-4.3
		C44.6,27.2,46.5,25.2,48.9,25.2z"/>
	<path class="st3" d="M162.3,62.1h-5.1c-1.4,0-2.4-1.1-2.2-2.5l2.9-18.4c0.2-1.4-0.8-2.5-2.2-2.5h-3.2c-1.4,0-2.8,1.1-3,2.5
		l-4.1,25.8c-0.2,1.4,0.8,2.5,2.2,2.5h13.4c1.4,0,2.8-1.1,3-2.5l0.4-2.3C164.7,63.2,163.7,62.1,162.3,62.1z M106.4,38.6h-4
		c-1.4,0-3,1.1-3.6,2.4c0,0-6.1,13.8-6.2,14.4c-0.1-0.9-2.3-14.3-2.3-14.3c-0.2-1.4-1.6-2.5-3-2.5h-4c-1.4,0-2.9,1.1-3.3,2.5L72,67
		c-0.4,1.4,0.4,2.5,1.8,2.5h2.9c1.4,0,2.9-1.1,3.3-2.5c0,0,4.5-16.2,4.6-17.1c0.1,0.8,3.2,17.1,3.2,17.1c0.3,1.4,1.6,2.5,3,2.5
		c1.4,0,3-1,3.6-2.3c0,0,7.6-16.2,7.9-17.3c-0.1,0.8-0.1,17-0.1,17c0,1.4,1.2,2.6,2.6,2.6h2.5c1.4,0,2.5-1.2,2.5-2.6L109,41.1
		C109,39.7,107.8,38.6,106.4,38.6z M183.6,62.1h-5.1c-1.4,0-2.4-1.1-2.2-2.5l2.9-18.4c0.2-1.4-0.8-2.5-2.2-2.5H174
		c-1.4,0-2.8,1.1-3,2.5l-4.1,25.8c-0.2,1.4,0.8,2.5,2.2,2.5h13.4c1.4,0,2.8-1.1,3-2.5l0.4-2.3C186,63.2,185,62.1,183.6,62.1z
		 M137.4,41.1c-0.3-1.4-1.7-2.5-3.1-2.5h-5.2c-1.4,0-3.1,1-3.7,2.3l-13.2,26.3c-0.6,1.3,0,2.3,1.4,2.3h3.8c1.4,0,3.1-1,3.7-2.3
		l0.6-1.2c0.6-1.3,2.3-2.3,3.7-2.3h5.7c1.4,0,2.8,1.1,3.1,2.5l0.2,0.8c0.3,1.4,1.7,2.5,3.1,2.5h3.2c1.4,0,2.3-1.1,2-2.5L137.4,41.1z
		 M130.4,56.8h-2.1c-1.6,0-1.7-1.2-1-2.7l2.3-5.4c0.6-1.5,1.4-1.4,1.7,0.2l0.9,5C132.4,55.5,132,56.8,130.4,56.8z"/>
</g>
</svg>
