<svg xmlns="http://www.w3.org/2000/svg" width="11.934" height="11.415" viewBox="0 0 11.934 11.415">
  <path id="Icon_map-convenience-store" data-name="Icon map-convenience-store" d="M11.558,5.85h-.071a.51.51,0,0,0-.069-.095L8.423,2.547a.982.982,0,0,0,.021-.2.87.87,0,0,0-.825-.908H6.675a.87.87,0,0,0-.825.908,1,1,0,0,0,.021.2L2.877,5.756a.535.535,0,0,0-.069.095H1.44V7.666h.519v3.891a1.3,1.3,0,0,0,1.3,1.3h8.3a1.3,1.3,0,0,0,1.3-1.3V7.666h.519V5.85H11.558ZM6.676,3.256h.944l.042,0,2.425,2.6H4.208l2.426-2.6.042,0ZM4.294,11.3a.519.519,0,0,1-1.038,0V8.185a.519.519,0,1,1,1.038,0Zm2.335,0a.519.519,0,0,1-1.038,0V8.185a.519.519,0,1,1,1.038,0Zm2.594,0a.519.519,0,0,1-1.038,0V8.185a.519.519,0,1,1,1.038,0Zm2.335,0a.519.519,0,0,1-1.038,0V8.185a.519.519,0,1,1,1.038,0Z" transform="translate(-1.44 -1.44)" fill="#fff"/>
</svg>
