<svg xmlns="http://www.w3.org/2000/svg" width="19.843" height="18.98" viewBox="0 0 19.843 18.98">
  <path id="Icon_map-convenience-store" data-name="Icon map-convenience-store" d="M18.263,8.773h-.117a.848.848,0,0,0-.115-.157l-4.98-5.335a1.633,1.633,0,0,0,.035-.331,1.446,1.446,0,0,0-1.373-1.51H10.145A1.446,1.446,0,0,0,8.773,2.95a1.665,1.665,0,0,0,.035.331L3.829,8.616a.889.889,0,0,0-.115.157H1.44v3.02H2.3v6.471A2.157,2.157,0,0,0,4.46,20.42h13.8a2.157,2.157,0,0,0,2.157-2.157V11.793h.863V8.773h-3.02ZM10.146,4.46h1.569l.07-.008,4.033,4.321H6.042l4.033-4.321.07.008ZM6.185,17.832a.863.863,0,1,1-1.725,0V12.656a.863.863,0,1,1,1.725,0Zm3.882,0a.863.863,0,0,1-1.725,0V12.656a.863.863,0,1,1,1.725,0Zm4.314,0a.863.863,0,1,1-1.725,0V12.656a.863.863,0,1,1,1.725,0Zm3.882,0a.863.863,0,0,1-1.725,0V12.656a.863.863,0,1,1,1.725,0Z" transform="translate(-1.44 -1.44)" fill="#fca700"/>
</svg>
