<svg width="30" height="19" viewBox="0 0 30 19" fill="none" xmlns="http://www.w3.org/2000/svg">
<path d="M20.1955 2.14462L21.0484 1.2729C21.4007 0.912812 21.9755 0.893842 22.3278 1.25393C22.3278 1.25393 22.3278 1.25395 22.3463 1.2729L29.7258 8.83476C30.0781 9.19484 30.0966 9.78236 29.7443 10.1425C29.7443 10.1425 29.7443 10.1425 29.7258 10.1614L22.3278 17.7233C21.9755 18.0834 21.4007 18.1023 21.0484 17.7423C21.0484 17.7423 21.0484 17.7422 21.0299 17.7233L20.177 16.8514C19.8247 16.4914 19.8247 15.8849 20.1955 15.5248L24.7938 11.0521L0.912446 11.0521C0.411828 11.0521 0.00390709 10.6352 0.00390705 10.1235L0.00390694 8.8727C0.00390689 8.36099 0.411828 7.94395 0.912446 7.94395L24.8123 7.94395L20.2141 3.49026C19.8432 3.13017 19.8247 2.54265 20.177 2.18256C20.177 2.16361 20.1955 2.14462 20.1955 2.14462Z" fill="black"/>
</svg>
