<svg xmlns="http://www.w3.org/2000/svg" width="166.03" height="34.86" viewBox="0 0 166.03 34.86">
  <g id="Group_927" data-name="Group 927" transform="translate(-22.631 -202.516)">
    <path id="Path_377" data-name="Path 377" d="M442.041,219.32h-7.717c-3.474-.329-4.706-3.318-4.706-6.319,0-2.77,1.24-5.39,4.706-5.767h9.822v-2.5h-9.59a7.37,7.37,0,0,0-7.462,7.195,9.412,9.412,0,0,0,0,2.55c.452,4.281,3.169,7.342,7.462,7.342H441.7c.6,0,.57,1.025.036,1.025H427.81v2.493l14.291.013c3.3,0,3.392-6.031-.06-6.031" transform="translate(-255.94 -1.404)" fill="#1a1818"/>
    <rect id="Rectangle_219" data-name="Rectangle 219" width="2.573" height="20.599" transform="translate(158.311 203.331)" fill="#1a1818"/>
    <path id="Path_378" data-name="Path 378" d="M315.915,222.692c-4.873,0-8.774-3.528-8.774-8.342s3.9-8.33,8.774-8.33,8.821,3.526,8.821,8.33-3.951,8.342-8.821,8.342m0-19.223a10.9,10.9,0,1,0,11.4,10.882,11.15,11.15,0,0,0-11.4-10.882" transform="translate(-178.411 -0.603)" fill="#1a1818"/>
    <path id="Path_379" data-name="Path 379" d="M244.9,225.333v-20.6h17.139v2.552H247.523v12.034h5.592v2.5h-5.592v3.512Z" transform="translate(-140.677 -1.404)" fill="#1a1818"/>
    <path id="Path_380" data-name="Path 380" d="M32.453,219.354H25.211l0-12.067h7.247c3.466.377,4.706,3,4.706,5.768,0,3-1.231,5.97-4.706,6.3m7.23-7.373a7.37,7.37,0,0,0-7.462-7.195h-9.59v20.58h2.575v-3.512h7.015c4.294,0,7.01-3.043,7.462-7.324a9.38,9.38,0,0,0,0-2.55" transform="translate(0 -1.437)" fill="#1a1818"/>
    <path id="Path_381" data-name="Path 381" d="M177.695,218.79a7.442,7.442,0,0,1-2.476.531h-6.463V207.254h6.551l.156.01,0,0s2.779-.028,4.168,1.887c.007.01.011.02.018.03a5.764,5.764,0,0,1,1.091,3.708v1.322a4.722,4.722,0,0,1-3.048,4.581m1.807,2.091c2.6-1.722,3.819-3.414,3.819-7.691a9,9,0,0,0-2.065-6.3,5.989,5.989,0,0,0-1.564-1.179l-.1-.053c-.124-.065-.253-.126-.382-.186l-.1-.044c-.07-.031-.142-.059-.214-.09a8.929,8.929,0,0,0-3.06-.608h-9.663v20.6h2.575v-3.512c.413-.011,2.858-.016,3.243-.013,5.125.035,7.787,1.3,9.521,3.525h2.909a12.5,12.5,0,0,0-4.928-4.453" transform="translate(-90.857 -1.404)" fill="#1a1818"/>
    <path id="Path_382" data-name="Path 382" d="M91.336,217.917l4.875-10.559,4.853,10.559Zm4.875-15.4L86.018,223.929h2.575l1.588-3.512h12.033l1.615,3.512H106.4Z" transform="translate(-40.119 0)" fill="#1a1818"/>
    <path id="Path_383" data-name="Path 383" d="M218.727,289.355c.9,0,1.554-.507,1.554-1.287v-.013c0-.7-.468-1.067-1.482-1.288s-1.236-.456-1.236-.885v-.013c0-.41.377-.735.969-.735a2,2,0,0,1,1.314.494l.3-.4a2.374,2.374,0,0,0-1.6-.559,1.343,1.343,0,0,0-1.5,1.241v.013c0,.748.48,1.086,1.528,1.314.956.2,1.184.442,1.184.865v.013c0,.449-.4.774-1.015.774a2.165,2.165,0,0,1-1.56-.644l-.319.377a2.663,2.663,0,0,0,1.86.728m-9.039-.065h3.322v-.467H210.2v-1.594h2.484v-.467H210.2v-1.555h2.777v-.468h-3.29Zm-4.968,0h.513v-4.551h-.513Zm-7.356-2.23v-1.847h1.405c.735,0,1.164.338,1.164.9v.013c0,.586-.488.937-1.171.937Zm-.513,2.23h.513v-1.768h1.3l1.32,1.768h.63l-1.4-1.86a1.331,1.331,0,0,0,1.235-1.326v-.013a1.26,1.26,0,0,0-.351-.9,1.8,1.8,0,0,0-1.294-.454h-1.957Zm-6.523-.4a1.81,1.81,0,0,1-1.8-1.88V287a1.789,1.789,0,0,1,1.782-1.867,1.81,1.81,0,0,1,1.8,1.88v.013a1.789,1.789,0,0,1-1.782,1.867m-.013.474a2.305,2.305,0,0,0,2.328-2.354V287a2.321,2.321,0,1,0-4.642.013v.013a2.284,2.284,0,0,0,2.314,2.341m-7.836-.013c.9,0,1.554-.507,1.554-1.287v-.013c0-.7-.468-1.067-1.482-1.288s-1.236-.456-1.236-.885v-.013c0-.41.377-.735.969-.735a2,2,0,0,1,1.314.494l.3-.4a2.374,2.374,0,0,0-1.6-.559,1.343,1.343,0,0,0-1.5,1.241v.013c0,.748.48,1.086,1.528,1.314.956.2,1.184.442,1.184.865v.013c0,.449-.4.774-1.015.774a2.166,2.166,0,0,1-1.56-.644l-.319.377a2.663,2.663,0,0,0,1.86.728m-7.219,0c.9,0,1.554-.507,1.554-1.287v-.013c0-.7-.467-1.067-1.482-1.288s-1.236-.456-1.236-.885v-.013c0-.41.377-.735.969-.735a2,2,0,0,1,1.314.494l.3-.4a2.375,2.375,0,0,0-1.6-.559,1.343,1.343,0,0,0-1.5,1.241v.013c0,.748.48,1.086,1.528,1.314.956.2,1.184.442,1.184.865v.013c0,.449-.4.774-1.015.774a2.166,2.166,0,0,1-1.56-.644l-.319.377a2.663,2.663,0,0,0,1.86.728m-9.039-.065h3.322v-.467h-2.81v-1.594h2.484v-.467h-2.484v-1.555h2.777v-.468h-3.29Zm-5.84.078a2.372,2.372,0,0,0,1.821-.8l-.338-.332a1.976,1.976,0,0,1-1.47.657,1.8,1.8,0,0,1-1.762-1.88V287a1.785,1.785,0,0,1,1.762-1.867,1.978,1.978,0,0,1,1.431.624l.351-.377a2.371,2.371,0,0,0-1.776-.721,2.292,2.292,0,0,0-2.3,2.354v.013a2.269,2.269,0,0,0,2.282,2.341m-7.791,0a2.371,2.371,0,0,0,1.821-.8l-.338-.332a1.976,1.976,0,0,1-1.47.657,1.8,1.8,0,0,1-1.762-1.88V287a1.785,1.785,0,0,1,1.762-1.867,1.978,1.978,0,0,1,1.43.624l.351-.377a2.37,2.37,0,0,0-1.776-.721,2.292,2.292,0,0,0-2.3,2.354v.013a2.269,2.269,0,0,0,2.282,2.341m-9.194-1.748,1.04-2.316,1.034,2.316Zm-1.268,1.67h.526l.54-1.2h2.477l.533,1.2h.552l-2.074-4.584H144.2Z" transform="translate(-75.634 -51.991)" fill="#1a1818"/>
  </g>
</svg>
