<svg xmlns="http://www.w3.org/2000/svg" width="47.045" height="46.303" viewBox="0 0 47.045 46.303">
  <g id="Group_570" data-name="Group 570" transform="translate(-52.831 844.007)">
    <g id="Group_563" data-name="Group 563" transform="translate(69.163 -833.787)">
      <g id="Group_562" data-name="Group 562" transform="translate(0 0)">
        <path id="Path_471" data-name="Path 471" d="M197.583-753.984a4.832,4.832,0,0,0-4.826,4.826v3.407a4.832,4.832,0,0,0,4.826,4.826,4.832,4.832,0,0,0,4.826-4.826v-3.407A4.832,4.832,0,0,0,197.583-753.984Zm0,7.949a3.126,3.126,0,0,1-3.123-3.123,3.126,3.126,0,0,1,3.123-3.123,3.126,3.126,0,0,1,3.123,3.123A3.126,3.126,0,0,1,197.583-746.035Z" transform="translate(-192.757 753.984)"/>
      </g>
    </g>
    <g id="Group_565" data-name="Group 565" transform="translate(73.137 -830.948)">
      <g id="Group_564" data-name="Group 564" transform="translate(0 0)">
        <path id="Path_472" data-name="Path 472" d="M228.618-728.975a.852.852,0,0,0-.852.852v2.271a.852.852,0,0,0,.852.852.852.852,0,0,0,.852-.852v-2.271A.852.852,0,0,0,228.618-728.975Z" transform="translate(-227.766 728.975)"/>
      </g>
    </g>
    <g id="Group_567" data-name="Group 567" transform="translate(81.654 -844.007)">
      <g id="Group_566" data-name="Group 566" transform="translate(0 0)">
        <path id="Path_473" data-name="Path 473" d="M310.449-844.007a7.674,7.674,0,0,0-7.665,7.665v3.407a7.674,7.674,0,0,0,7.665,7.665,7.673,7.673,0,0,0,7.665-7.651s0-.009,0-.014v-3.407A7.674,7.674,0,0,0,310.449-844.007Zm0,13.627a5.969,5.969,0,0,1-5.962-5.962,5.968,5.968,0,0,1,5.962-5.962,5.968,5.968,0,0,1,5.962,5.962A5.968,5.968,0,0,1,310.449-830.38Z" transform="translate(-302.784 844.007)"/>
      </g>
    </g>
    <g id="Group_569" data-name="Group 569" transform="translate(88.467 -839.465)">
      <g id="Group_568" data-name="Group 568">
        <path id="Path_474" data-name="Path 474" d="M363.65-804h0a.851.851,0,0,0-.852.851v4.543a.852.852,0,0,0,.852.852h0a.852.852,0,0,0,.852-.851v-4.543A.852.852,0,0,0,363.65-804Z" transform="translate(-362.797 803.997)"/>
      </g>
    </g>
    <path id="Union_2" data-name="Union 2" d="M-16692.951-4147.47v.821h-2.863v1.551h-8.855v-19.259h8.855v1.551h2.863v1.421c4.988-.872,7.629.222,13.168,2.52,1.686.7,3.592,1.488,5.914,2.369a1.878,1.878,0,0,1,.939,2.272,1.741,1.741,0,0,1-1.986,1.492c-1.414-.314-9.711-1.651-10.062-1.71a.749.749,0,0,0-.8.729.84.84,0,0,0,.611.96c.09.013,8.615,1.388,9.99,1.694a2.7,2.7,0,0,0,.621.071,3.331,3.331,0,0,0,3-2.746,4.4,4.4,0,0,0,.051-1.924c3.521-1.79,9.621-5.211,9.662-5.232a.419.419,0,0,1,.043-.025,1.975,1.975,0,0,1,2.934.935c.684,1.409-.385,2.96-.908,3.593-3.561,3.408-13.4,12.158-16.707,12.158C-16680.148-4144.229-16690.437-4146.824-16692.951-4147.47Z" transform="translate(16758 3346.025)" stroke="rgba(0,0,0,0)" stroke-miterlimit="10" stroke-width="1"/>
  </g>
</svg>
