<svg xmlns="http://www.w3.org/2000/svg" width="48.35" height="22.449" viewBox="0 0 48.35 22.449">
  <g id="Group_560" data-name="Group 560" transform="translate(48.35 -132.225) rotate(90)">
    <path id="Path_464" data-name="Path 464" d="M151.555,11.165H149.62V1.028A1.028,1.028,0,0,0,148.592,0H138.308a1.028,1.028,0,0,0-1.028,1.028V11.165h-1.935a3.123,3.123,0,0,0-3.119,3.119V45.231a3.123,3.123,0,0,0,3.119,3.119h16.211a3.123,3.123,0,0,0,3.119-3.119V14.285A3.123,3.123,0,0,0,151.555,11.165Zm-3.015,6.07v6.894H138.359V17.235Zm-.977-15.178V15.138h-8.227V2.057Z" transform="translate(0)"/>
    <path id="Path_465" data-name="Path 465" d="M179.235,299.735h-4.608a1.028,1.028,0,0,0,0,2.057h4.608a1.028,1.028,0,1,0,0-2.057Z" transform="translate(-37.321 -270.378)" fill="#fff"/>
    <path id="Path_466" data-name="Path 466" d="M257.651,299.735h-4.608a1.028,1.028,0,1,0,0,2.057h4.608a1.028,1.028,0,0,0,0-2.057Z" transform="translate(-108.057 -270.378)" fill="#fff"/>
    <path id="Path_467" data-name="Path 467" d="M179.235,354.175h-4.608a1.028,1.028,0,0,0,0,2.057h4.608a1.028,1.028,0,1,0,0-2.057Z" transform="translate(-37.321 -319.486)" fill="#fff"/>
    <path id="Path_468" data-name="Path 468" d="M257.651,354.175h-4.608a1.028,1.028,0,1,0,0,2.057h4.608a1.028,1.028,0,0,0,0-2.057Z" transform="translate(-108.057 -319.486)" fill="#fff"/>
    <path id="Path_469" data-name="Path 469" d="M179.235,409.683h-4.608a1.028,1.028,0,1,0,0,2.057h4.608a1.028,1.028,0,1,0,0-2.057Z" transform="translate(-37.321 -369.558)" fill="#fff"/>
    <path id="Path_470" data-name="Path 470" d="M257.651,409.683h-4.608a1.028,1.028,0,1,0,0,2.057h4.608a1.028,1.028,0,1,0,0-2.057Z" transform="translate(-108.057 -369.558)" fill="#fff"/>
  </g>
</svg>
