<?xml version="1.0" encoding="utf-8"?>
<!-- Generator: Adobe Illustrator 22.1.0, SVG Export Plug-In . SVG Version: 6.00 Build 0)  -->
<svg version="1.1" id="Layer_1" xmlns="http://www.w3.org/2000/svg" xmlns:xlink="http://www.w3.org/1999/xlink" x="0px" y="0px"
	 viewBox="0 0 16.2 9" style="enable-background:new 0 0 16.2 9;" xml:space="preserve">
<style type="text/css">
	.st0{fill:#FCA700;}
</style>
<g id="Group_573" transform="translate(156.188 534.966) rotate(180)">
	<path id="Icon_awesome-arrow-right" class="st0" d="M145.3,534.4l-0.5,0.5c-0.2,0.2-0.5,0.2-0.7,0c0,0,0,0,0,0l-4-4
		c-0.2-0.2-0.2-0.5,0-0.7c0,0,0,0,0,0l4-4c0.2-0.2,0.5-0.2,0.7,0c0,0,0,0,0,0l0.5,0.5c0.2,0.2,0.2,0.5,0,0.7c0,0,0,0,0,0l-2.5,2.4
		h12.9c0.3,0,0.5,0.2,0.5,0.5c0,0,0,0,0,0v0.7c0,0.3-0.2,0.5-0.5,0.5c0,0,0,0,0,0h-12.9l2.5,2.4
		C145.5,533.8,145.5,534.2,145.3,534.4C145.3,534.4,145.3,534.4,145.3,534.4z"/>
</g>
</svg>
