<?xml version="1.0" encoding="utf-8"?>
<!-- Generator: Adobe Illustrator 23.0.3, SVG Export Plug-In . SVG Version: 6.00 Build 0)  -->
<svg version="1.1" id="Layer_1" xmlns="http://www.w3.org/2000/svg" xmlns:xlink="http://www.w3.org/1999/xlink" x="0px" y="0px"
	 viewBox="0 0 25.8 23.5" style="enable-background:new 0 0 25.8 23.5;" xml:space="preserve">
<g>
	<path d="M25.5,4c-0.2-0.3-0.6-0.5-1-0.5c0,0,0,0,0,0L5.4,3.7C5,1.6,4.7,0,4.7,0H0.5C0.2,0,0,0.2,0,0.5S0.2,1,0.5,1h3.4l2.5,14.4
		c0.1,0.6,0.6,0.9,1.2,0.9c0,0,0,0,0,0h14.1c0,0,0,0,0,0c0.5,0,1-0.4,1.2-0.9l2.9-10.4C25.8,4.7,25.8,4.3,25.5,4z M21.9,15.2
		c0,0.1-0.1,0.2-0.2,0.2h0H7.5h0c-0.1,0-0.2-0.1-0.2-0.1L5.5,4.7l19.1-0.1c0,0,0,0,0,0c0.1,0,0.1,0,0.2,0.1c0,0.1,0.1,0.1,0,0.2
		L21.9,15.2z"/>
	<path d="M9.4,18c-1.5,0-2.8,1.2-2.8,2.8s1.2,2.8,2.8,2.8s2.8-1.2,2.8-2.8S10.9,18,9.4,18z M9.4,22.5c-1,0-1.8-0.8-1.8-1.8
		S8.4,19,9.4,19c1,0,1.8,0.8,1.8,1.8S10.3,22.5,9.4,22.5z"/>
	<path d="M18.9,18c-1.5,0-2.8,1.2-2.8,2.8s1.2,2.8,2.8,2.8s2.8-1.2,2.8-2.8S20.4,18,18.9,18z M18.9,22.5c-1,0-1.8-0.8-1.8-1.8
		s0.8-1.8,1.8-1.8s1.8,0.8,1.8,1.8S19.8,22.5,18.9,22.5z"/>
</g>
</svg>
