<svg xmlns="http://www.w3.org/2000/svg" width="17.79" height="15.714" viewBox="0 0 17.79 15.714">
  <g id="Group_874" data-name="Group 874" transform="translate(-1327.21 -32)">
    <circle id="Ellipse_1" data-name="Ellipse 1" cx="1.593" cy="1.593" r="1.593" transform="translate(1332.289 44.527)"/>
    <g id="Group_873" data-name="Group 873">
      <path id="Path_16" data-name="Path 16" d="M-52.207,67.723a.5.5,0,0,0-.4-.2h0l-13.178.022-.492-2.115a.5.5,0,0,0-.487-.387h-2.632a.5.5,0,0,0-.5.5.5.5,0,0,0,.5.5h2.235l.49,2.107,0,.02,1.679,7.215a.5.5,0,0,0,.487.387h9.855a.5.5,0,0,0,.481-.364l2.039-7.249A.5.5,0,0,0-52.207,67.723Z" transform="translate(1397.105 -33.046)"/>
      <circle id="Ellipse_2" data-name="Ellipse 2" cx="1.593" cy="1.593" r="1.593" transform="translate(1338.922 44.527)"/>
    </g>
  </g>
</svg>
