<svg xmlns="http://www.w3.org/2000/svg" width="20.91" height="16.983" viewBox="0 0 20.91 16.983">
  <path id="Icon_awesome-twitter" data-name="Icon awesome-twitter" d="M18.76,7.613c.013.186.013.372.013.557A12.109,12.109,0,0,1,6.581,20.363,12.11,12.11,0,0,1,0,18.44a8.865,8.865,0,0,0,1.035.053,8.582,8.582,0,0,0,5.32-1.831A4.293,4.293,0,0,1,2.348,13.69a5.4,5.4,0,0,0,.809.066,4.532,4.532,0,0,0,1.128-.146A4.286,4.286,0,0,1,.849,9.4V9.351A4.316,4.316,0,0,0,2.786,9.9,4.292,4.292,0,0,1,1.459,4.164,12.181,12.181,0,0,0,10.3,8.648a4.838,4.838,0,0,1-.106-.982,4.29,4.29,0,0,1,7.417-2.932A8.437,8.437,0,0,0,20.326,3.7a4.274,4.274,0,0,1-1.884,2.362A8.591,8.591,0,0,0,20.91,5.4,9.212,9.212,0,0,1,18.76,7.613Z" transform="translate(0 -3.381)"/>
</svg>
