<?xml version="1.0" encoding="utf-8"?>
<!-- Generator: Adobe Illustrator 23.0.3, SVG Export Plug-In . SVG Version: 6.00 Build 0)  -->
<svg version="1.1" id="Layer_1" xmlns="http://www.w3.org/2000/svg" xmlns:xlink="http://www.w3.org/1999/xlink" x="0px" y="0px"
	 viewBox="0 0 19.6 23.5" style="enable-background:new 0 0 19.6 23.5;" xml:space="preserve">
<g>
	<path d="M9.8,10.7c1.4,0,2.8-0.6,3.8-1.6c1-1,1.6-2.4,1.6-3.8c0-1.4-0.6-2.8-1.6-3.8c-1-1-2.4-1.6-3.8-1.6c0,0,0,0,0,0
		C8.4,0,7,0.6,6,1.6c-1,1-1.6,2.4-1.6,3.8v0C4.5,8.3,6.9,10.7,9.8,10.7z M6.7,2.3C7.6,1.5,8.6,1,9.8,1c0,0,0,0,0,0
		c1.2,0,2.3,0.5,3.1,1.3s1.3,1.9,1.3,3.1c0,1.2-0.5,2.3-1.3,3.1C12.1,9.3,11,9.7,9.8,9.7c-2.4,0-4.4-2-4.4-4.4
		C5.5,4.2,5.9,3.1,6.7,2.3z"/>
	<path d="M19.6,20.1c-0.7-4.1-4-7.3-8.1-8.1c-2.6-0.5-5.2,0.1-7.4,1.7c-2.2,1.5-3.6,3.8-4.1,6.4L0,20.4l0.3,0.2
		c2.9,2,6.2,2.9,9.5,2.9c3.3,0,6.7-1,9.5-2.9l0.3-0.2L19.6,20.1z M1.1,19.9c0.5-2.2,1.7-4.1,3.6-5.4c1.9-1.4,4.3-1.9,6.6-1.5
		c3.6,0.6,6.4,3.4,7.2,6.9C13.3,23.4,6.3,23.4,1.1,19.9z"/>
</g>
</svg>
