<svg id="Group_550" data-name="Group 550" xmlns="http://www.w3.org/2000/svg" width="41.049" height="26.603" viewBox="0 0 41.049 26.603">
  <g id="Group_547" data-name="Group 547" transform="translate(0 0)">
    <g id="Group_546" data-name="Group 546">
      <path id="Path_457" data-name="Path 457" d="M276.4,153.521H237.465a1.056,1.056,0,0,0-1.057,1.057v24.489a1.056,1.056,0,0,0,1.057,1.057H276.4a1.056,1.056,0,0,0,1.057-1.057V154.578A1.056,1.056,0,0,0,276.4,153.521Zm-36.814,8.039h4.381a1.137,1.137,0,0,1,1.231.842l.953,4.582c-.936-2.4-3.192-4.391-6.6-5.217Zm5.3,10.451-2.531-8.646a11.1,11.1,0,0,1,3.915,4.3l.3,1.068,2.768-7.071h2.994l-4.45,10.35Zm9.642.007H251.7l1.767-10.37H256.3Zm4.917.156a8.946,8.946,0,0,1-3.148-.554l.4-2.321.364.165a5.922,5.922,0,0,0,2.661.544c.812,0,1.682-.318,1.69-1.012.005-.454-.364-.778-1.464-1.287-1.073-.5-2.493-1.327-2.475-2.816.015-2.015,1.983-3.422,4.777-3.422a7.294,7.294,0,0,1,2.531.435l-.382,2.248-.255-.12a5.214,5.214,0,0,0-2.115-.4c-1.106,0-1.619.461-1.619.892-.006.486.6.805,1.587,1.286,1.63.74,2.384,1.637,2.374,2.817C264.347,170.785,262.419,172.174,259.447,172.174Zm12.246-.151s-.258-1.192-.344-1.554l-3.619,0c-.11.28-.594,1.558-.594,1.558h-2.968l4.2-9.5a1.407,1.407,0,0,1,1.48-.861h2.183l2.287,10.363Z" transform="translate(-236.408 -153.521)"/>
    </g>
  </g>
  <g id="Group_549" data-name="Group 549" transform="translate(32.134 10.935)">
    <g id="Group_548" data-name="Group 548">
      <path id="Path_458" data-name="Path 458" d="M282.314,169.461l-.19-.894c-.144.39-.392,1.018-.376.99,0,0-.893,2.3-1.126,2.9h2.347C282.855,171.936,282.314,169.461,282.314,169.461Z" transform="translate(-280.622 -168.567)"/>
    </g>
  </g>
</svg>
