<svg xmlns="http://www.w3.org/2000/svg" width="24.573" height="18.433" viewBox="0 0 24.573 18.433">
  <path id="Icon_ionic-logo-youtube" data-name="Icon ionic-logo-youtube" d="M24.413,8.57a3.731,3.731,0,0,0-3.552-3.9C18.2,4.548,15.49,4.5,12.72,4.5h-.864c-2.765,0-5.482.048-8.141.173A3.739,3.739,0,0,0,.168,8.58C.048,10.289,0,12,0,13.707s.048,3.418.163,5.131A3.744,3.744,0,0,0,3.71,22.75c2.794.13,5.659.187,8.573.182s5.775-.048,8.573-.182a3.744,3.744,0,0,0,3.552-3.912c.115-1.714.168-3.422.163-5.136S24.528,10.284,24.413,8.57ZM9.936,18.415V8.983L16.9,13.7Z" transform="translate(0 -4.5)"/>
</svg>
