<?xml version="1.0" encoding="UTF-8"?><svg id="a" xmlns="http://www.w3.org/2000/svg" viewBox="0 0 612 168.09"><defs><style>.b{fill:#231f20;}</style></defs><path class="b" d="M567.07,126.53l-31.04-84.5-.16-.48h-9.78l-31.21,84.99h10.22l9.51-26.6h32.61l9.64,26.6h10.21Zm-22.84-35.2h-26.71l10.81-29.32c.94-2.56,2.01-6.37,2.67-8.72,.62,2.35,1.72,6.16,2.62,8.71l10.61,29.33Zm-105.93-28.27c0-6.73,6.31-13.66,16.86-13.66s17.75,6.84,17.81,6.92l.66,.64,4.79-8.15-.39-.39c-.34-.35-8.24-8.3-22.87-8.3s-26.74,10.18-26.74,23.16c0,14.12,12.16,19.36,22.92,24,9.65,4.16,18.78,8.1,18.78,17.6,0,8.12-6.55,13.79-15.91,13.79-12.71,0-21.26-8.85-21.35-8.94l-.57-.6-5.74,7.43,.39,.46c.38,.44,9.79,10.92,27.05,10.92,15.32,0,26.02-9.56,26.02-23.27,0-15.33-12.67-20.69-23.81-25.39-9.61-4.05-17.89-7.57-17.89-16.23m-46.72,63.47h9.65V41.53h-9.65V126.53Zm-23.88-59.07c0-15.49-10.64-25.92-26.49-25.92h-29.6V126.53h9.63v-32.79h19.97c15.85,0,26.49-10.55,26.49-26.27m-9.86,0c0,10.78-6.77,17.47-17.7,17.47h-18.9V50.35h19.02c10.84,0,17.58,6.57,17.58,17.11m-89.1,24.36c-.76-1.3-1.34-2.23-1.73-2.76,9.44-3.02,15.5-11.95,15.5-23.03,0-10.28-4.89-18.57-13.04-22.14-3.32-1.45-7.16-2.34-15.96-2.34h-25.43V126.53h9.63v-35.17h19.89l18.91,35.17h11.02l-18.77-34.71Zm-11.92-9.26h-19.12V50.35h16.16c6.54,0,9.28,.75,11.54,1.93,4.67,2.52,7.23,7.48,7.23,13.98,0,10.06-6.04,16.3-15.8,16.3m-59.8,43.97h10.21l-31.01-84.5-.18-.48h-9.78l-31.21,84.99h10.22l9.51-26.6h32.62l9.62,26.6Zm-12.64-35.2h-26.7l10.8-29.32c.93-2.56,2.01-6.37,2.65-8.72,.65,2.35,1.75,6.16,2.66,8.71l10.59,29.33Zm-129.48-7.94c0-19.5,14.16-34.22,32.92-34.22,15.19,0,24.84,8.97,24.94,9.08l.6,.54,5.21-7.2-.4-.42c-.43-.45-10.55-11.04-30.6-11.04-24.32,0-42.66,18.65-42.66,43.38s18.49,44.43,43.03,44.43c20.64,0,32.38-13.06,32.51-13.18l.41-.46-5.66-6.94-.57,.62c-.11,.1-10.21,10.95-26.57,10.95-18.9,0-33.16-15.28-33.16-35.54"/></svg>