<svg id="Layer_1" data-name="Layer 1" fill="#000" xmlns="http://www.w3.org/2000/svg" viewBox="0 0 824.45 287.37"><defs><style>.cls-1{fill:#010101;}.cls-2{fill:#eb2227;}</style></defs><path class="cls-1" d="M561.61,190.52a30.32,30.32,0,1,1,30.32-30.32,30.32,30.32,0,0,1-30.32,30.32m0-79.92a49.6,49.6,0,1,0,49.59,49.6,49.6,49.6,0,0,0-49.59-49.6"/><path class="cls-1" d="M290.28,129.88a30.34,30.34,0,0,1,28.36,19.59H261.91a30.34,30.34,0,0,1,28.37-19.59M315.53,177a30.31,30.31,0,0,1-54.71-9.57h78.53a51.42,51.42,0,0,0,.52-7.18A49.57,49.57,0,1,0,337,177Z"/><path class="cls-1" d="M179.75,177.36a30.33,30.33,0,1,1,1.11-32.56h21a49.57,49.57,0,1,0-.59,32.56Z"/><rect class="cls-1" x="383.15" y="77.59" width="21.16" height="131.44"/><polygon class="cls-2" fill="#eb2227" points="674.3 105.04 674.3 77.59 688.87 77.59 688.87 105.04 714.83 96.52 719.29 110.3 693.32 118.82 709.38 140.92 697.59 149.45 681.53 127.34 665.57 149.45 653.78 140.92 669.64 118.82 643.87 110.3 648.33 96.52 674.3 105.04"/><rect class="cls-1" x="447.58" y="77.57" width="21.16" height="21.16"/><rect class="cls-1" x="447.58" y="114.63" width="21.16" height="94.39"/></svg>