<?xml version="1.0" encoding="utf-8"?>
<!-- Generator: Adobe Illustrator 24.0.1, SVG Export Plug-In . SVG Version: 6.00 Build 0)  -->
<svg version="1.1" fill="#010101" id="Layer_1" xmlns="http://www.w3.org/2000/svg" xmlns:xlink="http://www.w3.org/1999/xlink" x="0px" y="0px"
	 width="686.6px" height="177.6px" viewBox="0 0 686.6 177.6" style="enable-background:new 0 0 686.6 177.6;" xml:space="preserve"
	>
<style type="text/css">
	.st0{fill-rule:evenodd;clip-rule:evenodd;fill:#010101;}
</style>
<path fill="#010101" class="st0" d="M272.6,40.8c0-7.2,0.2-14.3-0.1-21.5c-0.1-3.3,1.2-4.9,4-6.2c8.1-3.7,16.4-6.5,25.1-8.5
	c14.5-3.3,29.2-4.6,44-4.6c1.8,0,3.6,0,5.5,0.1c13.6,0.3,27.1,1.7,40.4,4.9c8.2,2,16.2,4.6,23.7,8.3c0.7,0.3,1.4,0.7,2.1,1.2
	c1,0.7,1.6,1.7,1.6,3c0,8.1,0,16.2,0,24.4c0,2-0.6,2.4-2.6,1.8c-7-2.2-14.2-4.1-21.4-5.5c-3.4-0.7-6.8-1.3-10.2-1.5
	c-2.7-0.2-3,0.1-3,2.9c0,9.9,0,19.8,0,29.6c0,0.5,0,1,0,1.5c-0.1,2.1-0.5,2.7-2.5,3.2c-3.1,0.8-6.3,1.5-9.4,2
	c-8.9,1.5-17.8,2.6-26.8,2.3c-10.1-0.4-20.1-1.7-29.9-4.2c-2.6-0.7-2.9-1.1-3-3.8c0-5.1,0-10.2,0-15.4c0,0,0,0,0,0
	c0-4.9,0-9.8,0-14.7c0-0.4,0-0.9,0-1.3c-0.1-2-0.6-2.4-2.6-2.3c-4.3,0.3-8.5,1.1-12.8,2c-6.4,1.3-12.7,3-18.8,5
	c-0.3,0.1-0.7,0.2-1.1,0.3c-1.3,0.3-1.8-0.1-1.9-1.4C272.5,41.9,272.6,41.3,272.6,40.8z M244.1,167.1c0-14.6,0-29.3,0-43.9
	c0-1.9,0.3-2-2-2c-3.8,0-7.6,0.1-11.4,0c-1.4,0-2.4,0.4-3.4,1.5c-6.3,7.2-12.7,14.3-19.1,21.5c-0.4,0.5-0.7,1.1-1.5,1.3
	c-0.5-0.5-1-1-1.5-1.6c-6.2-7.1-12.5-14.1-18.7-21.2c-0.6-0.7-1.1-1.5-2.3-1.4c-4.5,0.1-8.9,0-13.4,0c-0.8,0-1.2,0.3-1.2,1.1
	c0,0.5,0,1,0,1.5c0,13,0,25.9,0,38.8c0,4,0,8.1,0,12.1c0,1.2,0.4,1.5,1.5,1.5c3.3-0.1,6.6-0.1,9.9,0c1.1,0,1.7-0.3,1.5-1.5
	c-0.1-0.4,0-0.9,0-1.3c0-11.2,0-22.4,0-33.6c0-0.8-0.2-1.6,0.3-2.6c8.1,9.1,16,17.9,24,26.9c8.2-9.1,16.1-18,24.1-26.9
	c0.1,0.1,0.3,0.1,0.4,0.2c0,0.7,0,1.4,0,2.1c0,11.6,0,23.1,0,34.7c0,1.9,0,1.9,1.9,1.9c3.2,0,6.3,0,9.4,0c1.2,0,1.5-0.4,1.5-1.5
	C244.1,172.2,244.1,169.6,244.1,167.1z M686.6,175.8c-0.6,0.6-1.2,0.4-1.8,0.4c-3.9,0-7.8,0-11.6,0c-1.2,0-1.9-0.4-2.6-1.3
	c-3.8-5-7.7-9.9-11.5-15c-0.8-1-1.6-1.5-2.9-1.5c-6.9,0.1-13.8,0-20.6,0c-1.9,0-1.9,0-1.9,1.9c0,4.6,0,9.2,0,13.8
	c0,1.8,0,1.9-1.7,1.9c-3.4,0-6.7,0-10.1,0c-1.7,0-1.7,0-1.7-1.7c0-3,0-6,0-9c0-13.8,0-27.5,0-41.3c0-0.4,0-0.7,0-1.1
	c0-1.9,0-1.9,1.9-1.9c13.8,0,27.7,0,41.5,0c3.3,0,6.6,0.4,9.7,1.6c8,3.2,12.5,10.9,11.6,19.4c-0.5,4.9-2.3,9.2-6.3,12.3
	c-1.6,1.3-3.5,2-5.6,3C677.5,163.7,682.1,169.8,686.6,175.8z M668,133.5c-1.6-1-3.4-1.5-5.2-1.5c-9.2,0-18.4,0-27.6-0.1
	c-1.2,0-1.5,0.5-1.5,1.5c0,4.2,0,8.3,0,12.5c0,1.7,0,1.7,1.7,1.7c4.6,0,9.2,0,13.8,0c4.2,0,8.5,0,12.7,0c0.7,0,1.5,0,2.2-0.1
	c3.7-0.4,6.4-2.7,7.1-6.1C671.9,138.4,670.6,135.2,668,133.5z M154.8,147.3c0.5,9.8-3.6,17.6-11.6,23.2c-5.5,3.8-11.6,5.8-18.1,6.7
	c-2,0.3-4.1,0.5-6.2,0.5h-0.1c-0.2,0-0.4,0-0.5,0c-9.5-0.2-18.4-2.4-26.1-8.2c-13.3-9.8-12.4-26.3-6.6-35.3c3.4-5.2,8.2-8.7,13.9-11
	c7.7-3.1,15.7-4,23.9-3.2c5.4,0.5,10.5,1.6,15.4,3.9C148.6,128.5,154.2,136.2,154.8,147.3z M129.8,132.8c-3.3-1.3-6.8-1.8-11.6-2.1
	c-3.8-0.1-8.6,0.6-13.2,3c-7.3,3.8-10.4,10.7-8.7,19c1.3,6.3,5.5,10,11.3,12.1c7,2.5,14.2,2.5,21.3,0.1c6.5-2.2,10.4-6.6,11.3-13.5
	C141.4,143.3,138.1,136.1,129.8,132.8z M603.8,157.6c-2.3,6.7-7,11.3-13.1,14.7c-6.5,3.5-13.8,5.3-23.8,5.3
	c-7.6-0.2-16.5-2.4-24.2-8.1c-13.4-9.9-12.4-26.9-6.2-35.9c3.4-4.9,8-8.2,13.5-10.4c7.7-3.1,15.7-4,23.9-3.2
	c5.4,0.5,10.7,1.6,15.6,4C604.9,131.2,607.6,146.6,603.8,157.6z M579,132.3c-6.5-2.1-13.1-2.2-19.6-0.1c-3.6,1.1-6.7,2.9-9.2,5.7
	c-5.7,6.4-5.6,19.5,4.2,25.1c4.5,2.6,9.4,3.5,13.4,3.5c4.8,0,8.4-0.5,11.9-1.8c4.3-1.6,7.7-4.2,9.6-8.4
	C594,146.5,589.3,135.7,579,132.3z M418.4,174.7c0.2,0.4,0.5,0.7,0.4,1.5c-4.3,0-8.6,0-12.9,0c-1,0-1.2-0.6-1.5-1.3
	c-1.8-3.3-3.7-6.6-5.4-10c-0.7-1.3-1.5-1.7-2.9-1.7c-10,0.1-20,0.1-30.1,0c-1.6,0-2.3,0.6-3,1.9c-1.7,3.3-3.6,6.5-5.3,9.8
	c-0.4,0.8-0.9,1.3-2,1.3c-4.1-0.1-8.2,0-12.2,0c-0.4-0.6,0-1,0.3-1.4c9.6-17.4,19.2-34.9,28.7-52.3c0.5-1,1.1-1.5,2.4-1.5
	c4.2,0.1,8.3,0.1,12.5,0c1.2,0,1.8,0.4,2.4,1.5C399.2,139.9,408.8,157.3,418.4,174.7z M392,152.4l-11-20.1l-10.7,20.1H392z
	 M344.8,132.1c0-3.3,0-6.6,0-9.9c0-0.8-0.3-1.1-1-1c-0.5,0-1,0-1.5,0c-11.2,0-22.4,0-33.6,0c-3.2,0-6.4,0-9.6,0
	c-8.3,0-16.5,0-24.8,0c-1.5,0-1.6,0-1.6,1.6c0,2.8,0,5.7,0,8.6c0,2.1,0.1,1.9,2,1.9c8.5,0,17.1,0,25.7,0c2,0,1.9-0.1,1.9,1.9
	c0,6,0,12,0,18c0,7.1,0,14.2,0,21.3c0,1.8,0,1.8,1.8,1.8c2.9,0,5.9,0,8.8,0c2.9,0,2.5,0.3,2.5-2.6c0-12.8,0-25.6,0-38.4
	c0-2.2-0.1-2,2-2c4.8,0,9.6,0,14.5,0c3.9,0,7.8,0,11.6,0C344.2,133.2,344.8,133.2,344.8,132.1z M70.4,121.2c-0.4,0-0.9,0-1.3,0
	c-11,0-22,0-32.9,0c-2.8,0-5.7,0-8.6,0c-8.6,0-17.1,0-25.7,0c-1.9,0-1.9,0-1.9,1.9c0,1.4,0,2.8,0,4.2v0.1c0,1.4,0,2.7,0,4
	c0,1.7,0,1.7,1.7,1.7c4.8,0,9.5,0,14.3,0c4,0,7.9,0,11.9,0c1.9,0,1.9,0,1.9,2c0,1.5,0,3.1,0,4.6c0,11.4,0,22.8,0,34.2
	c0,2.4,0,2.2,2.1,2.2c2.7,0,5.4,0,8.1,0c3.1,0,2.8,0.5,2.8-2.8c0-12.7,0-25.3,0-38c0-2.2-0.3-2.2,2.1-2.2c3.4,0,6.7,0,10.1,0
	c5.3,0,10.5,0,15.8,0c1.7,0,1.7,0,1.7-1.7c0-2.8,0-5.6,0-8.3C72.3,121.2,72.3,121.2,70.4,121.2z M524.6,166.8c0-1.9,0-1.9-1.9-1.9
	c-0.4,0-0.7,0-1.1,0c-11.9,0-23.9,0-35.8,0c-0.4,0-0.7,0-1.1,0c-2.1,0-2.1,0.2-2.1-2c0-0.4,0-0.7,0-1.1c0-12.7,0-25.3,0-38
	c0-0.5,0-1,0-1.5c0.1-0.8-0.3-1.2-1.1-1.2c-3.6,0-7.2,0-10.8,0c-0.8,0-1.2,0.3-1.2,1.2c0,0.5,0,1,0,1.5c0,8.4,0,16.7,0,25
	c0,8.3,0,16.7,0,25c0,2.7,0,2.3,2.4,2.3c16.8,0,33.5,0,50.3,0c0.4,0,0.7,0,1.1,0c1,0.1,1.3-0.4,1.3-1.3
	C524.6,172.2,524.6,169.5,524.6,166.8z M448.3,173.5c0-8.3,0-16.5,0-24.8c0-8.6,0-17.2,0-25.9c0-1.5,0-1.6-1.6-1.6
	c-3.4,0-6.7,0-10.1,0c-2.7,0-2.3-0.1-2.3,2.4c0,16.7,0,33.5,0,50.2c0,0.4,0,0.9,0,1.3c0,0.7,0.3,1.1,1,1c1.1,0,2.2,0,3.3,0
	c2.8,0,5.5,0,8.3,0c1.1,0,1.5-0.4,1.4-1.4C448.3,174.4,448.3,173.9,448.3,173.5z"/>
</svg>
