<?xml version="1.0" encoding="utf-8"?>
<!-- Generator: Adobe Illustrator 24.0.1, SVG Export Plug-In . SVG Version: 6.00 Build 0)  -->
<svg version="1.1" id="Layer_1" xmlns="http://www.w3.org/2000/svg" xmlns:xlink="http://www.w3.org/1999/xlink" x="0px" y="0px"
	 width="597.9px" height="99.7px" viewBox="0 0 597.9 99.7" fill="#010101" style="enable-background:new 0 0 597.9 99.7;" xml:space="preserve">
<style type="text/css">
	.st0{fill:#010101;}
</style>
<g id="g2995">
	<path id="path2997" class="st0" d="M60.6,48.1l9.2,14.5l18.3-29.4l0.1,65h15.9L104,3.6H87.8L60.6,48.1z"/>
</g>
<g id="g2999">
	<path id="path3001" class="st0" d="M16,3.7L0,3.7l0.1,94.6H16l-0.1-65L52.2,91l9.2-14.8L16,3.7z"/>
</g>
<g id="g3003">
	<path id="path3005" class="st0" d="M199.5,68.6l14.7,29.3l19.2-0.1L185.2,3.4H168l0,0l24.1,50.1l-32,0.1l8.3-16.3l-8.7-17.7
		l-40.3,78.6h17.9l15-29.4L199.5,68.6z"/>
</g>
<g id="g3007">
	<path id="path3009" class="st0" d="M339.1,3.1h-15.9l0,45.9l16,16L339.1,3.1z"/>
</g>
<g id="g3011">
	<path id="path3013" class="st0" d="M262.4,3.2h-16.2l0.2,94.6h15.9l-0.1-70.6l65.3,70.6h11.8V86.2L262.4,3.2z"/>
</g>
<g id="g3017">
	<g id="g3023">
		<path id="path3025" class="st0" d="M450.4,29.2c-7.7-7.8-19.3-12.9-32.4-12.8c-21,0-38.2,12.9-40.9,29.6l-17.5,0.1
			c2.2-25.9,28.7-45,58.6-45c17.8,0,33.8,6.6,44.6,17.2L450.4,29.2z"/>
	</g>
	<g id="g3027">
		<path id="path3029" class="st0" d="M416.6,84.4c-17.4,0-32.3-9.5-37.9-22.6h-17.9c5.9,22.9,29.2,38,56.8,38
			c6.7,0,13.4-0.7,19.9-2.2c13.8-3.5,28.9-12.4,28.8-26.6V45.8l-49.9,0.1v15.8l34-0.1v7.2c0,7.9-11.9,12.5-19.1,14.1
			c-4.3,0.9-8.6,1.4-13,1.4L416.6,84.4z"/>
	</g>
	<g id="g3031">
		<path id="path3033" class="st0" d="M597.9,50c-0.1-28.2-25.7-50-57.2-50c-30.5,0.1-57.1,21-57.1,48.7c0,26.1,21.1,47,49.4,50.3
			V83.2c-18.5-3-32.5-16.8-32.5-33.4c0-18.9,17.9-34.2,40.1-34.3s40.2,15.3,40.3,34.1c0,16.5-13.7,30.3-32.1,33.5l0.1,15.8
			C576,95.6,597.9,75.4,597.9,50"/>
	</g>
</g>
</svg>
