<?xml version="1.0" encoding="utf-8"?>
<!-- Generator: Adobe Illustrator 26.1.0, SVG Export Plug-In . SVG Version: 6.00 Build 0)  -->
<svg version="1.0" id="a" xmlns="http://www.w3.org/2000/svg" xmlns:xlink="http://www.w3.org/1999/xlink" x="0px" y="0px"
	 viewBox="0 0 169.8 47.5" enable-background="new 0 0 169.8 47.5" xml:space="preserve">
<g>
	<path fill="#020000" stroke="#000000" stroke-miterlimit="10" d="M71.9,6.2c-9.6,0-17.5,7.5-17.5,17.6s7.9,17.5,17.5,17.5v0
		c9.6,0,17.5-7.5,17.5-17.5S81.6,6.2,71.9,6.2z M71.9,32.9c-5,0-8.6-4.2-8.6-9.2s3.6-9.2,8.6-9.2c5,0,8.6,4.2,8.6,9.2
		C80.5,28.8,77,32.9,71.9,32.9z"/>
	<path fill="#020000" stroke="#000000" stroke-miterlimit="10" d="M102.4,16.6c0-1.3,1.7-2.3,4.2-2.3c3.3,0,5.2,1.7,5.2,1.7l4.8-6.5
		c0,0-4.2-3.3-10.9-3.3c-6.3,0-11.7,4.6-11.7,10.4c0,10,15,10.5,15,14.2c0,1.3-1.3,2.3-3.3,2.3c-4.6,0-7.5-3.1-7.5-3.1l-5,6.7
		c0,0,4.2,4.6,12.5,4.6c6.7,0,12.5-4.2,12.5-10.4C118.3,20.8,102.4,20,102.4,16.6z"/>
	<path fill="#020000" stroke="#000000" stroke-miterlimit="10" d="M45.2,22.1L45.2,22.1c1.5-1.9,2.1-3.7,2.1-5.8
		c0-5.1-4.1-9.2-9.2-9.2H22.2v33.4h17.3c5.7,0,10.2-4.6,10.2-10.2C49.8,26.7,48.1,23.8,45.2,22.1z M30.8,14.4H36
		c1.6,0,2.9,1.3,2.9,2.9c0,1.6-1.3,2.9-2.9,2.9h-5.2V14.4z M37.7,32.9h-6.9v-6.3h6.9c1.7,0,3.1,1.4,3.1,3.1
		C40.8,31.5,39.4,32.9,37.7,32.9z"/>
	<path fill="#020000" stroke="#000000" stroke-miterlimit="10" d="M131.7,16.6c0-1.3,1.7-2.3,4.2-2.3c3.3,0,5.2,1.7,5.2,1.7l4.8-6.5
		c0,0-4.2-3.3-10.9-3.3c-6.3,0-11.7,4.6-11.7,10.4c0,10,15,10.5,15,14.2c0,1.3-1.3,2.3-3.3,2.3c-4.6,0-7.5-3.1-7.5-3.1l-5,6.7
		c0,0,4.2,4.6,12.5,4.6c6.7,0,12.5-4.2,12.5-10.4C147.6,20.8,131.7,20,131.7,16.6z"/>
</g>
</svg>
