<svg id="Layer_1" fill="#1e4384" data-name="Layer 1" xmlns="http://www.w3.org/2000/svg" viewBox="0 0 824.45 287.37"><defs><style>.cls-1{fill:#1e4384;}</style></defs><path class="cls-1" d="M695.56,105.49a9.31,9.31,0,0,0-9.32,9.31v86.41a9.28,9.28,0,1,0,18.56,0V114.8a9.3,9.3,0,0,0-9.24-9.31"/><path class="cls-1" d="M695.59,95.42a9.28,9.28,0,1,0-9.31-9.27,9.28,9.28,0,0,0,9.31,9.27"/><path class="cls-1" d="M518.68,105.49a9.3,9.3,0,0,0-9.29,9.31v86.41a9.29,9.29,0,1,0,18.57,0V114.8a9.31,9.31,0,0,0-9.28-9.31"/><path class="cls-1" d="M518.71,95.42a9.28,9.28,0,1,0-9.28-9.27,9.3,9.3,0,0,0,9.28,9.27"/><path class="cls-1" d="M357.46,192.88l-58.93-38.47,57.78-29.67a9.2,9.2,0,0,0-4.6-17.19,9.12,9.12,0,0,0-4.58,1.23l-68.35,35.74V114.85a9.23,9.23,0,0,0-18.45,0v86a9.23,9.23,0,0,0,18.45,0V175.18a6.36,6.36,0,0,1,6.28-6.28,6,6,0,0,1,2.5.53l0,0,60.65,39.38a8.88,8.88,0,0,0,4.58,1.25,9.1,9.1,0,0,0,7.95-4.58,9.18,9.18,0,0,0-3.32-12.58"/><path class="cls-1" d="M223.65,177.77A14.22,14.22,0,0,1,209.43,192H152.18A14.16,14.16,0,0,1,138,177.77V138.08a14.18,14.18,0,0,1,14.18-14.19h57.25a14.24,14.24,0,0,1,14.22,14.19Zm-11.78-72h-62.1a30.19,30.19,0,0,0-30.16,30.14v44A30.18,30.18,0,0,0,149.77,210h62.1A30.15,30.15,0,0,0,242,179.93v-44a30.16,30.16,0,0,0-30.11-30.14"/><path class="cls-1" d="M635.81,191.83H579.05a13.54,13.54,0,0,1-13.51-13.48V139.28a13.57,13.57,0,0,1,13.51-13.53h70.21v52.6a13.48,13.48,0,0,1-13.45,13.48m22.7-115a9.26,9.26,0,0,0-9.25,9.23v21.47h-72.6a29.65,29.65,0,0,0-29.58,29.62v43.26A29.63,29.63,0,0,0,576.66,210h61.49a29.61,29.61,0,0,0,29.6-29.61V86.08a9.27,9.27,0,0,0-9.24-9.23"/><path class="cls-1" d="M472.18,178.34a13.52,13.52,0,0,1-13.48,13.48H401.48c-7.4,0-12.58-5.18-12.58-12.59v-2.81c0-7.42,5.18-12.58,12.58-12.58h70.76Zm-11.11-70.79H392.16a9.07,9.07,0,0,0-7.73,4.33,9.1,9.1,0,0,0,7.73,13.9l66.54,0a13.55,13.55,0,0,1,13.48,13.52v6.34H400a28.46,28.46,0,0,0-9.91,1.71c-12.17,4.33-19.7,14.63-19.7,27v7c0,16.1,13,28.71,29.61,28.71h61a29.66,29.66,0,0,0,29.66-29.62V137.16a29.68,29.68,0,0,0-29.66-29.61"/></svg>