<?xml version="1.0" encoding="utf-8"?>
<!-- Generator: Adobe Illustrator 25.2.1, SVG Export Plug-In . SVG Version: 6.00 Build 0)  -->
<svg version="1.1" id="Layer_1" xmlns="http://www.w3.org/2000/svg" xmlns:xlink="http://www.w3.org/1999/xlink" x="0px" y="0px"
	 viewBox="0 0 2267.72 978.29" style="enable-background:new 0 0 2267.72 978.29;" xml:space="preserve" fill="#003764">
<style type="text/css">
	.st0{fill:#003764;}
</style>
<g>
	<path class="st0" d="M1198.5,199.28c2.04-1.46,4.3-2.02,6.72-1.69c2.32,0.35,7.54,2.19,11.99,5.43l6.72,5.05l13.42,11.23l4.9,4.49
		l6.09,5.62l-45.56-47.51l-6.09,19.08L1198.5,199.28z"/>
	<polygon class="st0" points="1164.23,320.09 1144.72,356 1245.81,248.46 	"/>
	<polygon class="st0" points="1020.46,248.46 1120.91,356.55 1102.01,320.09 	"/>
	<polygon class="st0" points="1250.66,238.37 1209.2,238.37 1176.85,292.79 1211.64,246.21 1222,253.52 1165.47,311.13 	"/>
	<polygon class="st0" points="1100.17,311.67 1044.23,253.52 1054.62,246.21 1089.39,292.79 1057.06,238.38 1015.59,238.38 	"/>
	<polygon class="st0" points="1168.32,240.05 1168.32,299.52 1201.25,238.92 1171.96,238.92 1192.71,244.53 1173.21,274.83 	"/>
	<polygon class="st0" points="1064.98,238.92 1097.74,299.33 1097.94,240.05 1093.07,274.83 1073.52,244.53 1093.67,239.5 	"/>
	<polygon class="st0" points="1163.43,247.9 1139.24,359.93 1161.83,313.36 	"/>
	<polygon class="st0" points="1104.45,313.36 1127.01,359.93 1102.81,247.9 	"/>
	<polygon class="st0" points="1159.75,247.9 1134.35,298.22 1133.73,363.86 1141.67,299.33 	"/>
	<polygon class="st0" points="1106.49,247.9 1124.57,299.33 1132.52,363.86 1131.9,298.22 	"/>
	<polygon class="st0" points="1157.32,240.05 1136.18,239.67 1144.72,247.52 1133.13,286.99 	"/>
	<polygon class="st0" points="1129.46,240.23 1108.71,240.23 1133.11,286.99 1121.52,247.52 	"/>
	<polygon class="st0" points="1247.04,233.87 1196.38,207.51 1214.09,228.27 1184.18,233.32 	"/>
	<polygon class="st0" points="1179.3,235.56 1199.01,181.89 1172.17,181.89 1188.04,189.74 	"/>
	<polygon class="st0" points="1141.67,209.93 1142.16,210.29 1141.67,211.06 1142.35,210.43 1173.81,233.87 1181.93,208.81 
		1171.56,221.73 1142.54,210.27 1163.64,190.87 1181.93,207.7 1164.86,183 1159.97,181.89 1142.24,210.15 	"/>
	<polygon class="st0" points="1137.38,210.5 1155.09,181.89 1134.35,181.89 1144.72,190.31 	"/>
	<polygon class="st0" points="1016.79,233.87 1080.26,233.87 1049.75,228.27 1068.44,207.7 	"/>
	<path class="st0" d="M1026.56,219.29l13.42-11.23l6.7-5.05c4.46-3.24,9.68-5.08,11.99-5.43c2.43-0.33,4.68,0.23,6.72,1.69
		l1.84,1.69l-6.13-19.08l-45.54,47.51l6.09-5.62L1026.56,219.29z"/>
	<polygon class="st0" points="1075.77,189.74 1092.86,181.89 1066.02,181.89 1085.72,235.56 	"/>
	<polygon class="st0" points="1100.77,191.43 1122.47,210.26 1092.88,221.15 1082.51,209.39 1090.02,233.88 1122.67,210.43 
		1122.76,210.5 1122.69,210.41 1123.36,209.93 1122.57,210.22 1103.82,181.89 1099.56,182.45 1082.51,207.14 	"/>
	<polygon class="st0" points="1119.69,190.85 1129.46,181.89 1109.95,181.89 1127.01,211.06 	"/>
	<polygon class="st0" points="1122.76,221.73 1128.26,227.91 1116.65,234.07 1147.14,234.07 1136.78,227.91 1141.67,221.17 
		1167.09,232.19 1132.52,209.39 1097.74,232.4 	"/>
	<rect x="79.26" y="762.56" class="st0" width="402.2" height="6.23"/>
	<rect x="1755.71" y="763.68" class="st0" width="430.76" height="6.23"/>
	<path class="st0" d="M675.35,780.7l-0.48,0.26l-0.26,0.48c-1.82,3.43-6.67,9.18-18.65,9.18c-13.42,0-26.97-6.6-26.97-21.33
		c0-14.57,13.23-19.76,25.62-19.76c10.22,0,16.31,3.05,18.12,9.07l0.19,0.63l0.56,0.36c1.28,0.8,3.73,0.79,4.86-0.4l0.61-0.65
		l-0.15-0.88c-0.74-4.28-1.25-8.69-1.33-10.22l-0.1-1.83l-1.82,0.15c-0.52,0.04-0.96-0.04-1.76-0.17l-0.44-0.08
		c-4.86-1-12.37-1.76-17.49-1.76c-10.48,0-19.82,2.17-27.02,6.26c-8.32,4.75-13.1,12.16-13.1,20.34c0,8.81,5.23,16.3,14.74,21.11
		c6.78,3.32,14.92,4.93,24.89,4.93c6.39,0,13.51-1.11,15.77-1.69c0.99-0.27,2.04-0.55,3.12-0.68l0.57-0.06l0.42-0.39
		c1.8-1.65,4.46-6.68,5.2-10.7l0.14-0.79l-0.5-0.64C679.1,780.17,676.69,780,675.35,780.7"/>
	<path class="st0" d="M765.48,743.76c-20.66,0-36.23,11.54-36.23,26.83c0,12.83,12.45,25.82,36.23,25.82
		c20.16,0,35.37-11.41,35.37-26.53C800.85,757.3,789.78,743.76,765.48,743.76 M763.84,749.53c17.53,0,23.77,11.64,23.77,22.53
		c0,13.71-11.24,18.56-20.87,18.56c-19.15,0-24.26-14.03-24.26-22.32C742.48,754.45,753.99,749.53,763.84,749.53"/>
	<path class="st0" d="M903.69,781.91c-0.87-0.5-2.81-0.83-3.99-0.12l-0.43,0.25l-0.23,0.44c-1.83,3.43-4.1,5.6-5.5,6.22
		c-1.28,0.53-3.27,0.78-11.13,0.78c-7.69,0-8.96-0.91-9.45-1.25c-1.01-0.79-1.34-1.81-1.34-6.26V757.3c0-6.89,0-6.89,4.23-7.17
		l2.32-0.14l0.68-0.17c0.89-0.44,1.41-1.39,1.35-2.51c-0.07-1.19-0.75-2.18-1.74-2.53l-0.31-0.11l-0.33,0.01
		c-4.82,0.14-8.1,0.21-11.85,0.21c-3.85,0-7.13-0.07-12.55-0.21l-0.35-0.01l-0.33,0.12c-0.96,0.37-1.63,1.38-1.68,2.58
		c-0.04,1.1,0.48,2.04,1.36,2.46l3.08,0.3c4.62,0.28,4.62,0.28,4.62,7.17v25.53c0,6.77,0,6.77-4.16,7.08l-3.4,0.26l-0.41,0.3
		c-0.79,0.56-1.2,1.57-1.06,2.63c0.13,1.05,0.78,1.91,1.66,2.24l0.33,0.12l0.35-0.01c5.42-0.14,8.49-0.21,12.55-0.21h8.91
		c10.59,0,19.35,0.08,24.03,0.21l0.95,0.03l0.55-0.77c1.35-1.9,4.41-9.5,4.41-10.97l-0.23-1.31L903.69,781.91z"/>
	<path class="st0" d="M1003.13,781.91c-0.87-0.49-2.79-0.83-3.99-0.13l-0.44,0.26l-0.23,0.45c-1.8,3.41-4.06,5.59-5.47,6.21
		c-1.29,0.53-3.29,0.78-11.13,0.78c-7.7,0-8.97-0.91-9.45-1.25c-1.02-0.79-1.35-1.81-1.35-6.26V757.3c0-6.9,0-6.9,4.22-7.17
		l2.32-0.14l0.64-0.17c0.91-0.43,1.44-1.38,1.39-2.5c-0.06-1.19-0.73-2.19-1.72-2.55l-0.31-0.11l-0.34,0.01
		c-4.82,0.14-8.1,0.21-11.86,0.21c-3.85,0-7.13-0.07-12.53-0.21l-0.33-0.01l-0.31,0.11c-0.99,0.35-1.67,1.35-1.74,2.54
		c-0.06,1.11,0.45,2.07,1.35,2.5l3.1,0.31c4.63,0.28,4.63,0.28,4.63,7.17v25.53c0,6.77,0,6.77-4.17,7.08l-3.41,0.26l-0.41,0.3
		c-0.8,0.58-1.2,1.61-1.05,2.67c0.16,1.04,0.81,1.9,1.71,2.21l0.31,0.11l0.33-0.01c5.4-0.14,8.48-0.21,12.53-0.21h8.91
		c10.59,0,19.35,0.08,24.04,0.21l0.95,0.03l0.55-0.77c1.35-1.9,4.39-9.49,4.39-10.97l-0.23-1.31L1003.13,781.91z"/>
	<path class="st0" d="M1100.72,781.75l-0.64,0.57c-2.44,3.6-4.81,5.73-6.03,6.22c-1.95,0.72-4.8,0.95-11.75,0.95
		c-7.89,0-9.84-0.69-10.61-1.26c-0.95-0.73-1.14-2.92-1.14-5.97v-9.99v-0.11c0.42-0.02,0.99-0.02,1.39-0.02h5.62
		c3.34,0,5.83,0.05,7.11,0.31c1.08,0.21,1.38,0.62,1.64,1.49l1.03,3.25l0.38,0.33c0.95,0.81,2.44,0.72,2.87,0.7
		c0.98-0.09,1.71-0.43,2.18-1l0.4-0.49v-0.63c0-0.72-0.08-1.68-0.17-2.75c-0.1-1.24-0.21-2.67-0.21-4.06c0-1.46,0.12-2.94,0.21-4.25
		c0.09-1.12,0.17-2.13,0.17-2.92v-0.62l-0.38-0.49c-0.45-0.57-1.2-0.93-2.17-1.03c-0.43-0.04-1.93-0.12-2.9,0.69l-0.42,0.36
		l-0.92,3.46c-0.28,1.03-0.4,1.05-1.03,1.22c-0.36,0.09-1.98,0.36-7.8,0.36h-5.62c-0.51,0-1.02,0-1.39-0.02v-0.17v-14.2
		c0-0.35,0-0.72,0.01-1.02c0.36-0.02,0.83-0.02,1.11-0.02h6.97c3.64,0,7.06,0.02,9.06,0.38c3.88,0.71,4.54,2.24,5.86,5.27l0.66,1.06
		c1.18,1.03,3.81,0.86,4.87-0.27l0.57-0.61l-0.22-1.8c-0.55-4.49-0.99-7.76-1.59-9.01l-0.59-1.23l-1.34,0.24
		c-1,0.18-7.25,0.18-12.76,0.18h-18.19c-3.94,0-7.23-0.07-11.37-0.21l-0.35-0.01l-0.33,0.12c-1.12,0.41-1.66,1.59-1.7,2.58
		c-0.04,1.1,0.49,2.04,1.39,2.46l2.13,0.29c4.28,0.39,4.28,0.39,4.28,7.17v25.53c0,6.8-0.08,6.81-4.34,7.08l-3.7,0.26l-0.41,0.3
		c-0.8,0.57-1.21,1.59-1.07,2.65c0.15,1.05,0.8,1.91,1.7,2.23l0.31,0.11l0.33-0.01c5.69-0.14,8.96-0.21,13.12-0.21h8.71
		c8.61,0,17.22,0.07,25.9,0.21l0.98,0.02l0.54-0.82c1.38-2.08,3.88-7.7,4.61-10.36l0.21-0.77l-0.45-0.67
		C1104.5,781.37,1102.08,781.01,1100.72,781.75"/>
	<path class="st0" d="M1212.96,780.71l-0.47,0.26l-0.24,0.47c-1.84,3.43-6.69,9.18-18.68,9.18c-13.41,0-26.95-6.6-26.95-21.33
		c0-14.57,13.22-19.76,25.6-19.76c10.36,0,16.29,2.97,18.12,9.07l0.2,0.64l0.57,0.36c1.27,0.79,3.67,0.79,4.84-0.38l0.64-0.66
		l-0.16-0.89c-0.72-4.13-1.22-8.55-1.33-10.23l-0.12-1.81l-1.81,0.15c-0.44,0.04-0.88-0.02-1.73-0.17l-0.48-0.08
		c-4.84-1-12.35-1.76-17.47-1.76c-10.5,0-19.83,2.17-27.02,6.26c-8.32,4.74-13.1,12.15-13.1,20.34c0,8.81,5.23,16.3,14.74,21.11
		c6.77,3.32,14.91,4.93,24.89,4.93c6.38,0,13.51-1.11,15.76-1.69c0.98-0.27,2.05-0.55,3.12-0.68l0.57-0.07l0.42-0.38
		c1.81-1.66,4.47-6.7,5.2-10.7l0.14-0.79l-0.5-0.64C1216.73,780.21,1214.28,780.01,1212.96,780.71"/>
	<path class="st0" d="M1324.88,742.98l-0.54,0.16l-0.35,0.44c-0.9,1.13-1.04,1.31-6.16,1.31h-39.61c-2.66,0.07-5.88,0.01-6.11-0.87
		l-0.15-0.56l-0.45-0.37c-1.02-0.83-3.1-0.52-3.73-0.21l-0.74,0.37l-0.2,0.81c-0.68,2.78-2.08,7.16-3.55,10.2l-0.46,0.94l0.59,0.85
		c0.95,1.37,3.36,1.88,4.87,1.04l0.41-0.23l0.24-0.4c1-1.65,1.79-2.97,3.84-4.34c2.12-1.44,8.28-1.44,10.91-1.44h5.3
		c0.34,0,0.77,0,1.11,0.01v0.45v31.71c0,6.8-0.07,6.81-4.31,7.08l-3.49,0.23l-0.61,0.16c-1,0.44-1.61,1.47-1.56,2.61
		c0.05,1.14,0.71,2.1,1.7,2.44l0.3,0.1l3.56-0.07c4.23-0.09,7.03-0.14,10.17-0.14c3.33,0,6.24,0.06,10.54,0.16l2.44,0.06l0.31-0.12
		c0.97-0.35,1.65-1.35,1.71-2.54c0.05-1.1-0.46-2.06-1.35-2.49l-3.76-0.4c-4.15-0.32-4.15-0.32-4.15-7.08v-31.79v-0.37
		c0.33-0.01,0.72-0.01,1.02-0.01h6.87c5.06,0,8.45,0.5,10.37,1.55c0.38,0.2,1.13,1.44,1.51,3.89l0.1,0.63l0.47,0.43
		c0.8,0.71,2.07,0.84,3,0.72c0.99-0.13,1.75-0.54,2.19-1.2l0.37-0.56l-0.09-0.67c-0.23-1.72,0.35-7.17,1.35-9.95l0.31-0.86
		l-0.52-0.76C1327.63,742.51,1325.39,742.82,1324.88,742.98"/>
	<path class="st0" d="M1400.35,750.14l2.42-0.12l0.73-0.2c0.87-0.45,1.37-1.42,1.3-2.52c-0.07-1.17-0.74-2.16-1.7-2.51l-0.32-0.12
		l-0.34,0.01c-4.82,0.14-8.09,0.21-11.96,0.21c-4.05,0-7.32-0.07-12.13-0.21l-0.33-0.01l-0.32,0.11c-0.97,0.35-1.66,1.33-1.73,2.52
		c-0.07,1.11,0.44,2.09,1.34,2.53l3.1,0.3c4.22,0.27,4.22,0.27,4.22,7.31v25.24c0,6.87,0,6.87-4.25,7.24l-2.92,0.25l-0.4,0.3
		c-0.81,0.59-1.21,1.63-1.05,2.69c0.15,1.04,0.8,1.89,1.7,2.2l0.32,0.11l0.33-0.01c4.81-0.14,8.07-0.21,12.13-0.21
		c3.87,0,7.14,0.07,11.96,0.21l0.34,0.01l0.32-0.12c0.96-0.35,1.63-1.33,1.7-2.5c0.07-1.1-0.43-2.07-1.3-2.52l-3.08-0.4
		c-4.27-0.37-4.27-0.37-4.27-7.24v-25.24C1396.14,750.41,1396.14,750.41,1400.35,750.14"/>
	<path class="st0" d="M1491.57,743.76c-20.66,0-36.23,11.54-36.23,26.83c0,12.83,12.45,25.82,36.23,25.82
		c20.17,0,35.38-11.41,35.38-26.53C1526.96,757.3,1515.88,743.76,1491.57,743.76 M1489.93,749.53c17.55,0,23.78,12.14,23.78,22.53
		c0,13.71-11.25,18.56-20.88,18.56c-19.16,0-24.26-14.03-24.26-22.32C1468.57,754.45,1480.08,749.53,1489.93,749.53"/>
	<path class="st0" d="M1648.84,744.86l-0.38-0.17l-0.43,0.01c-3.26,0.12-5.78,0.19-9.92,0.19c-3.65,0-6.93-0.07-11.34-0.19
		l-0.48,0.05c-1.02,0.25-1.81,1.11-1.99,2.18c-0.19,1.11,0.29,2.22,1.22,2.81l2.47,0.4c3.92,0.37,4.73,0.77,4.8,0.82
		c0.16,0.18,1.52,2.07,1.52,13.52v15.01c-3.82-2.93-8.05-6.37-13.62-11.06l-10.63-8.76c-3.65-3.04-13.31-11.1-14.85-14.02
		l-0.56-1.05l-1.18,0.11c-1.24,0.12-2.83,0.18-4.3,0.18c-1.74,0-6.83,0-10.86-0.19l-0.36-0.01l-0.34,0.12
		c-0.93,0.34-1.59,1.13-1.74,2.12c-0.17,1.03,0.24,2.09,1.04,2.71l0.43,0.34l2.15,0.16c3.23,0.31,4.61,1,5.06,1.34
		c1.41,1.12,1.45,1.9,1.45,3.71v21.19c0.01,3.03,0.02,11.07-0.93,12.9c-0.15,0.14-0.96,0.52-2.94,0.64l-3.14,0.27l-0.41,0.3
		c-0.74,0.56-1.14,1.46-1.07,2.43c0.08,1,0.64,1.88,1.51,2.34l0.43,0.23l0.49-0.02c3.36-0.14,5.94-0.21,9.99-0.21
		c3.56,0,6.94,0.07,11.25,0.21l0.46,0.01l0.42-0.22c0.83-0.43,1.37-1.19,1.51-2.08c0.14-0.91-0.18-1.84-0.87-2.53l-0.46-0.46
		l-3.68-0.28c-3.23-0.19-3.67-0.7-3.63-0.63c-0.69-0.96-1.38-5.92-1.38-13.6v-15.47c0-0.5,0-0.96,0.02-1.37
		c1.52,1.29,3.44,2.96,5.19,4.47c1.49,1.29,2.85,2.47,3.76,3.24l22.45,18.71c7.32,6.1,10.97,9.26,12.24,10.59l0.52,0.55h0.77
		c1.68,0,2.98-0.69,3.48-1.84l0.2-0.48l-0.09-0.51c-0.09-0.64-0.27-3.08-0.27-12.16V763.6c-0.02-2.68-0.04-10.85,0.96-12.5
		c0-0.01,0.83-0.55,4.31-0.96l1.83-0.17l0.4-0.29c0.81-0.59,1.25-1.58,1.14-2.58C1650.36,746.11,1649.76,745.27,1648.84,744.86"/>
	<path class="st0" d="M106.18,607.95c17.11,12.84,39.6,19.92,63.34,19.92c23.81,0,46.24-7.07,63.17-19.94
		c17.6-13.51,27.3-31.5,27.3-50.65c0-19.37-9.7-37.37-27.29-50.65c-16.85-12.99-39.28-20.15-63.17-20.15
		c-23.81,0-46.31,7.15-63.35,20.14c-17.61,13.3-27.31,31.29-27.31,50.66C78.86,576.43,88.55,594.43,106.18,607.95 M94.43,557.28
		c0-30.45,33.68-55.22,75.08-55.22c41.4,0,75.08,24.78,75.08,55.22c0,30.33-33.68,55.01-75.08,55.01
		C128.12,612.3,94.43,587.62,94.43,557.28"/>
	<path class="st0" d="M450.28,620.53c0-4.3-3.49-7.8-7.79-7.8H291.29V501.28c0-4.3-3.5-7.8-7.8-7.8c-4.29,0-7.78,3.5-7.78,7.8
		v126.84h166.78C446.79,628.12,450.28,624.71,450.28,620.53"/>
	<path class="st0" d="M481.46,493.69c-4.26,0-7.59,3.43-7.59,7.8v119.25c0,4.19,3.4,7.59,7.59,7.59c4.37,0,7.79-3.33,7.79-7.59
		V501.49C489.25,497.04,485.9,493.69,481.46,493.69"/>
	<path class="st0" d="M678.9,491.07c-3.64-2.24-8.35-1.24-10.76,2.25l-72.88,109.52l-73.09-109.56c-2.45-3.52-7.06-4.46-10.85-2.14
		c-3.48,2.41-4.45,7.14-2.17,10.81l86.12,128.99l85.95-129.05c2.23-3.62,1.26-8.34-2.21-10.75L678.9,491.07z"/>
	<path class="st0" d="M871.11,619.98c0-4.23-3.56-7.8-7.78-7.8h-151.2v-44.03h151.2c4.22,0,7.78-3.57,7.78-7.8
		c0-4.23-3.56-7.8-7.78-7.8h-151.2v-44.03h151.2c4.22,0,7.78-3.57,7.78-7.8c0-4.22-3.56-7.78-7.78-7.78H696.54v134.83h166.79
		C867.54,627.78,871.11,624.21,871.11,619.98"/>
	<path class="st0" d="M1054.68,626.65c1.6,1.19,3.68,1.68,5.73,1.26c2.1-0.4,3.95-1.66,4.94-3.3c1.19-1.6,1.65-3.62,1.29-5.67
		c-0.37-2.1-1.54-3.94-3.23-5.06l-38.82-25.82c23.71-2.65,42.2-22.83,42.2-47.25c0-26.22-21.32-47.55-47.53-47.55H892.21v127.03
		c0,4.23,3.57,7.8,7.8,7.8c4.22,0,7.8-3.57,7.8-7.8v-31.94h89.3L1054.68,626.65z M907.8,508.83h111.46
		c17.62,0,31.95,14.34,31.95,31.97c0,17.62-14.34,31.95-31.95,31.95H907.8V508.83z"/>
	<path class="st0" d="M1410.96,491.16c-3.96-1.68-8.57,0.08-10.25,3.93l-46.35,104.2l-59.12-118.41l-59.32,118.42l-46.35-104.17
		c-1.66-3.92-6.06-5.66-10.08-3.97c-1.93,0.83-3.47,2.45-4.22,4.46c-0.72,1.97-0.61,4.08,0.27,5.85l59.56,134.31l60.12-120.09
		l59.94,120.09l59.78-134.34c0.82-1.94,0.84-4.18,0.04-6.14C1414.24,493.4,1412.79,491.93,1410.96,491.16"/>
	<path class="st0" d="M1595.84,627.78c4.23,0,7.8-3.57,7.8-7.8"/>
	<path class="st0" d="M1603.64,619.98c0-4.23-3.56-7.8-7.8-7.8h-151.2v-44.03h151.2c4.23,0,7.8-3.57,7.8-7.8
		c0-4.23-3.56-7.8-7.8-7.8h-151.2v-44.03h151.2c4.23,0,7.8-3.57,7.8-7.8c0-4.22-3.56-7.78-7.8-7.78h-166.77v134.83h166.77"/>
	<path class="st0" d="M1798.01,590.7c0-11.72-5.49-22.65-14.84-29.81c9.35-7.14,14.84-18.07,14.84-29.81
		c0-20.73-16.77-37.59-37.4-37.59h-136.97v134.83h136.97C1781.24,628.31,1798.01,611.43,1798.01,590.7 M1639.04,553.09v-44.03
		h121.58c12.04,0,21.82,9.88,21.82,22.02s-9.78,22.02-21.82,22.02H1639.04z M1782.44,590.7c0,12.14-9.78,22.02-21.82,22.02h-121.58
		v-44.03h121.58C1772.65,568.68,1782.44,578.56,1782.44,590.7"/>
	<path class="st0" d="M1991.15,619.95c0-4.23-3.56-7.8-7.8-7.8h-151.21v-44.03h151.21c4.23,0,7.8-3.57,7.8-7.8
		c0-4.23-3.56-7.8-7.8-7.8h-151.21V508.5h151.21c4.23,0,7.8-3.57,7.8-7.8c0-4.22-3.56-7.78-7.8-7.78h-166.78v134.83h166.78
		C1987.58,627.75,1991.15,624.18,1991.15,619.95"/>
	<path class="st0" d="M2146.17,588.02c23.98-2.66,42.69-23.05,42.69-47.74c0-26.48-21.54-48.02-48.02-48.02h-128.37v128.35
		c0,4.26,3.59,7.87,7.85,7.87c4.25,0,7.85-3.6,7.85-7.87v-32.3h90.29l58.2,38.72c1.61,1.2,3.7,1.66,5.78,1.26
		c2.11-0.41,3.96-1.68,4.98-3.32c1.19-1.6,1.66-3.62,1.31-5.68c-0.36-2.12-1.55-3.99-3.26-5.15L2146.17,588.02z M2140.84,572.61
		h-112.67v-64.65h112.67c17.82,0,32.32,14.51,32.32,32.33C2173.16,558.11,2158.66,572.61,2140.84,572.61"/>
</g>
</svg>
