<?xml version="1.0" encoding="utf-8"?>
<!-- Generator: Adobe Illustrator 24.0.1, SVG Export Plug-In . SVG Version: 6.00 Build 0)  -->
<svg version="1.1" id="Layer_1" xmlns="http://www.w3.org/2000/svg" xmlns:xlink="http://www.w3.org/1999/xlink" x="0px" y="0px"
	 width="609.4px" height="130.6px" viewBox="0 0 609.4 130.6" fill="#000" style="enable-background:new 0 0 609.4 130.6;" xml:space="preserve"
	>
<style type="text/css">
	.st0{fill-rule:evenodd;clip-rule:evenodd;}
</style>
<path fill="#000" class="st0" d="M492,2.7l23.7-0.8c0,0,4.9,0,6.6,2.9s28.8,51.7,28.8,51.7s1.3,2.5,2.7,2.4s2.8-1.6,3.8-3.2s16.4-26.6,16.4-26.6
	s9.2-15.2,9.3-18.8s-1-5.7-1.5-6.2c-0.6-0.6-1.3-1.1-2-1.6l29.6-0.2c-4.9,5.1-9.4,10.5-13.6,16.2c-6.4,8.8-35.9,48.3-35.9,48.3
	s-15.4,21.7-24,30.9c-4.4,4.7-21.9,22-44.7,28.9c-21.9,6.5-49.3,2.7-49.3,2.7s-14.8-2.1-16.7-5.5s0-3.6,1.6-3.9s10.8,1.3,16.3,2
	c2.7,0.3,13.7,2.4,26.2,1.4c13.2-1.1,28-5.3,32.6-7.6c9-4.5,22.5-13,28.2-23.5s7.3-17.1,5.8-21.5s-12.7-24.2-17.8-33.1
	S504.5,15.4,501,11.2c-1.5-1.7-3.1-3.4-4.8-4.9C494,4.2,492,2.7,492,2.7"/>
<path fill="#000" d="M71.4,0.2C26,0.2,0,15,0,37.9c0,16,16.6,32.7,58.4,32.7c45.4,0,71.4-14.9,71.4-37.7C129.8,16.8,113.1,0.2,71.4,0.2
	 M68.4,65.2c-32.1,0-43-16.6-43-33.9c0-12.2,7.6-25.9,36-25.9c32.1,0,43,16.6,43,33.9C104.4,51.6,96.8,65.2,68.4,65.2"/>
<path fill="#000" d="M270.4,13.6c0-6.3,10.9-9,22.7-9c13.9,0,20,1.5,31.8,8.7c0.3-3.1,0.6-7.4,0.6-10c0-0.9-3-1.2-3.9-1.3
	c-9.1-1.1-18.3-1.7-27.5-1.8c-28.4,0-46,4.7-46,15.8c0,21.8,59.9,18.8,59.9,36.8c0,8.4-10.6,12.5-28.4,12.5
	c-20,0-27.5-4.6-36.9-11.9c-0.3,3.7-1.5,7.2-1.5,10.8c0,2.1,1.8,2.6,5.1,3.2c11.1,2.1,22.3,3.2,33.6,3.2c25.7,0,53.5-7.1,53.5-21.1
	C333.3,29.1,270.4,31.1,270.4,13.6"/>
<path fill="#000" d="M470,52.1V3.4c0,0-1.5-1.7-22.4-2.8C442.5,0.3,437.4,0,431.9,0c-47.8,0-79,14-79,37.6c0,15.5,16,32.8,52,32.8
	c27.8,0,38.7-7.5,40.8-7.5c0.7-0.1,1.4,0.5,1.5,1.2c0,0,0,0.1,0,0.1l1.2,5.6l27-1.8C470,64,470,57.7,470,52.1 M447.7,48
	c0,8.2-8.5,14.7-26,14.7c-31.2,0-44.5-14.9-44.5-28.3c0-16.8,18.2-29.2,51.7-29.2c15.4,0,18.8,3.7,18.8,10.6L447.7,48z"/>
<path fill="#000" d="M209,0.6c-25.4,0-48.4,2.8-48.4,16.9v34.2c0,5.4,0,13.4-5.4,17.5h33.3c-5.5-4.1-5.5-12.1-5.5-17.5V20.9
	c0-4.4,0.9-14.3,13.6-14.3c6.7,0,15.7,3.8,24.5,3.8c5.1,0,9.4-1.8,9.4-4.6C230.5,1,215.9,0.5,209,0.6"/>
</svg>
